<?xml version="1.0" encoding="UTF-8"?>
<svg version="1.1" xmlns="http://www.w3.org/2000/svg" width="1000" height="1000">
<path d="M0 0 C330 0 660 0 1000 0 C1000 330 1000 660 1000 1000 C670 1000 340 1000 0 1000 C0 670 0 340 0 0 Z " fill="#F9F5F0" transform="translate(0,0)"/>
<path d="M0 0 C4.88586985 1.26206004 7.10919538 5.5345978 9.5859375 9.66796875 C11.50612698 9.47213546 11.50612698 9.47213546 13.5859375 8.66796875 C15.03464369 6.80992558 15.03464369 6.80992558 16.2734375 4.60546875 C18.91886607 0.85889732 18.91886607 0.85889732 21.796875 0.03515625 C27.90739974 -0.10694898 31.33196466 1.71858683 35.8984375 5.66796875 C40.01944013 12.99419565 37.29738364 23.82182171 36.2734375 31.85546875 C36.15548828 32.88349609 36.03753906 33.91152344 35.91601562 34.97070312 C35.16992798 40.95088255 34.18946839 46.20735645 31.5859375 51.66796875 C30.92118408 52.04800049 30.25643066 52.42803223 29.5715332 52.81958008 C26.35651012 55.81244123 26.57601699 59.46403261 26.171875 63.69140625 C26.07129791 64.58856354 25.97072083 65.48572083 25.86709595 66.4100647 C25.54807835 69.28614684 25.25378391 72.16411517 24.9609375 75.04296875 C24.55736062 78.80135853 24.14538527 82.5588229 23.734375 86.31640625 C23.58763336 87.67146271 23.58763336 87.67146271 23.43792725 89.05389404 C21.26055971 108.99334654 21.26055971 108.99334654 18.5859375 111.66796875 C16.04058609 111.86645946 13.62876991 111.9464865 11.0859375 111.91796875 C10.39628906 111.92570312 9.70664062 111.9334375 8.99609375 111.94140625 C3.83927043 111.92130168 3.83927043 111.92130168 1.5859375 109.66796875 C1.07104492 106.91040039 1.07104492 106.91040039 0.69140625 103.328125 C0.6189418 102.67053192 0.54647736 102.01293884 0.47181702 101.3354187 C0.23095527 99.13456101 0.00225118 96.93260904 -0.2265625 94.73046875 C-0.47984625 92.38009679 -0.73603974 90.03005268 -0.99234009 87.68000793 C-1.17433817 86.00921108 -1.35528056 84.33829893 -1.5352478 82.6672821 C-2.24032442 76.14889499 -3.0025616 69.63840347 -3.78515625 63.12890625 C-4.01656024 61.19263174 -4.24792437 59.25635247 -4.47924805 57.32006836 C-4.81859159 54.48159633 -5.15944208 51.64335341 -5.50552368 48.80569458 C-5.8293971 46.14451642 -6.14585292 43.48254361 -6.4609375 40.8203125 C-6.60594948 39.65337357 -6.60594948 39.65337357 -6.75389099 38.46286011 C-7.40921392 32.84767394 -7.51554116 27.3182877 -7.4140625 21.66796875 C-7.94515625 22.13847656 -8.47625 22.60898437 -9.0234375 23.09375 C-9.72984375 23.71636719 -10.43625 24.33898437 -11.1640625 24.98046875 C-11.86015625 25.59535156 -12.55625 26.21023438 -13.2734375 26.84375 C-13.97984375 27.44574219 -14.68625 28.04773438 -15.4140625 28.66796875 C-16.03796875 29.23902344 -16.661875 29.81007813 -17.3046875 30.3984375 C-20.41076743 32.26783746 -21.82335711 32.37925407 -25.4140625 31.66796875 C-28.50130405 29.50674736 -31.11703633 26.94083555 -33.7890625 24.29296875 C-34.52511719 23.59429687 -35.26117188 22.895625 -36.01953125 22.17578125 C-39.91959486 18.41319669 -39.91959486 18.41319669 -41.4140625 16.66796875 C-41.4140625 16.00796875 -41.4140625 15.34796875 -41.4140625 14.66796875 C-38.20715789 12.04196746 -34.79274268 9.95652972 -30.7265625 9.10546875 C-27.58580415 9.869437 -25.77183794 11.51228835 -23.4140625 13.66796875 C-19.7899261 12.14896853 -17.5564385 9.98726421 -14.8515625 7.16796875 C-10.03475063 2.16433281 -7.01545604 -0.05143296 0 0 Z " fill="#D0A069" transform="translate(518.4140625,356.33203125)"/>
<path d="M0 0 C0.029729 1.56004761 0.029729 1.56004761 0.06005859 3.15161133 C0.56289551 28.73879526 1.40082831 54.15086532 4.625 79.56640625 C5.08265602 83.75681915 5.15303851 87.79144095 5 92 C-0.28 92 -5.56 92 -11 92 C-11.02505615 90.58895996 -11.0501123 89.17791992 -11.07592773 87.72412109 C-11.17097632 82.42733575 -11.27094823 77.13065227 -11.37231445 71.83398438 C-11.41529866 69.55308434 -11.45699465 67.27215962 -11.49731445 64.99121094 C-11.76423874 48.35027599 -11.76423874 48.35027599 -12.79492188 31.74414062 C-13.11240678 27.49589025 -13.08827812 23.25696689 -13 19 C-13.66 19 -14.32 19 -15 19 C-15.226875 20.155 -15.45375 21.31 -15.6875 22.5 C-17.31381368 29.80135233 -19.72176762 36.88247702 -22 44 C-22.96110744 47.01995686 -23.91877136 50.04099505 -24.875 53.0625 C-25.12056641 53.83803223 -25.36613281 54.61356445 -25.61914062 55.41259766 C-27.70249518 62.01299524 -29.73403034 68.62873701 -31.75 75.25 C-32.04374512 76.21429932 -32.33749023 77.17859863 -32.64013672 78.17211914 C-34.13705923 83.10313254 -35.60240268 88.03989969 -37 93 C-41.62 93 -46.24 93 -51 93 C-53.31720807 86.18078767 -55.60673829 79.40282082 -57.58401489 72.47836304 C-60.88437926 60.97540409 -64.83035187 49.7191482 -68.8125 38.4375 C-69.51276225 36.44349716 -70.21263437 34.44935726 -70.91210938 32.45507812 C-72.60359436 27.63513214 -74.30029614 22.81705349 -76 18 C-77.15140735 33.50514806 -77.32578937 49.02172282 -77.5625 64.5625 C-77.60538525 67.23113226 -77.64940802 69.89974428 -77.69335938 72.56835938 C-77.79933519 79.04551827 -77.90089879 85.52273242 -78 92 C-81.96 92 -85.92 92 -90 92 C-90.13749505 85.54371071 -89.76743902 79.3937275 -88.98364258 72.98876953 C-86.13971742 49.42952864 -86.24835857 25.69958981 -86 2 C-82.18006259 0.94256522 -78.72053693 0.90073577 -74.75 0.9375 C-72.85507812 0.95103516 -72.85507812 0.95103516 -70.921875 0.96484375 C-69.95765625 0.97644531 -68.9934375 0.98804688 -68 1 C-67.84668213 1.52577637 -67.69336426 2.05155273 -67.53540039 2.59326172 C-60.15876635 27.65339227 -51.47977458 52.29780071 -43 77 C-40.5612342 71.06158983 -38.28391368 65.13063976 -36.37890625 59 C-36.15371811 58.28546158 -35.92852997 57.57092316 -35.69651794 56.83473206 C-34.9807159 54.55785771 -34.27113677 52.27911364 -33.5625 50 C-33.19741333 48.83197342 -33.19741333 48.83197342 -32.82495117 47.64035034 C-28.10401423 32.53354656 -23.7119771 17.39112455 -20 2 C-17.79248152 1.66131223 -15.58394089 1.32928311 -13.375 1 C-12.14523437 0.814375 -10.91546875 0.62875 -9.6484375 0.4375 C-6.3783017 0.0453638 -3.28642422 -0.03241849 0 0 Z " fill="#422F1C" transform="translate(625,528)"/>
<path d="M0 0 C4.51658714 -0.04993675 9.03302226 -0.08597002 13.54980469 -0.10986328 C15.08205978 -0.11983806 16.61429625 -0.13342276 18.14648438 -0.15087891 C44.02982975 -0.43809619 44.02982975 -0.43809619 52.53515625 7.41796875 C57.27397736 12.79231689 58.42256265 17.3928141 58.24609375 24.37890625 C57.63273679 30.91164471 55.49599032 36.51755706 51.01171875 41.36328125 C45.93575567 45.49304538 39.4256755 48.67797107 33 50 C48.36663177 71.79185717 48.36663177 71.79185717 68 89 C68 89.33 68 89.66 68 90 C49.64619595 91.77914451 49.64619595 91.77914451 44.24609375 88.1484375 C42.19329623 85.21333608 40.63158998 82.18917696 39 79 C37.08077802 76.10818509 35.03721414 73.30946695 33 70.5 C31.96655013 69.04322478 30.93526176 67.58491351 29.90625 66.125 C29.16568359 65.07699219 29.16568359 65.07699219 28.41015625 64.0078125 C27.12619661 62.1796816 25.85752393 60.34211115 24.59375 58.5 C23.9028125 57.51 23.211875 56.52 22.5 55.5 C21.9121875 54.6440625 21.324375 53.788125 20.71875 52.90625 C18.77188222 50.74699664 17.76745761 50.55691871 15 50 C15.11939499 54.25023138 15.24370164 58.50028405 15.37231445 62.75024414 C15.41529012 64.19226302 15.45698648 65.63432067 15.49731445 67.07641602 C15.71302833 74.75955833 15.98567498 82.37125304 17 90 C11.39 90 5.78 90 0 90 C0.16226074 88.67871094 0.32452148 87.35742188 0.49169922 85.99609375 C1.21708991 78.69580026 1.1442968 71.38980762 1.1328125 64.0625 C1.13348785 62.53133122 1.13445979 61.00016255 1.13571167 59.46899414 C1.13717777 56.27521738 1.13506929 53.08146877 1.13037109 49.88769531 C1.12467448 45.81970477 1.12795934 41.75178024 1.13394356 37.68379211 C1.13757867 34.52656569 1.1363971 31.3693546 1.13381577 28.21212769 C1.13315464 26.71320589 1.13394602 25.21428265 1.13629532 23.71536255 C1.14603061 15.76071879 1.03925171 7.89920189 0 0 Z " fill="#412F1C" transform="translate(428,530)"/>
<path d="M0 0 C4.80141735 -0.04989482 9.60267969 -0.08595085 14.40429688 -0.10986328 C16.03355543 -0.1198449 17.66279644 -0.13343499 19.29199219 -0.15087891 C31.97707391 -0.2831773 44.06883381 -0.40373313 55 7 C60.21344155 12.3330159 61.16057487 17.41255455 61.3125 24.625 C61.21619051 32.36186229 60.18498701 38.26364049 55.08203125 44.25 C47.19872861 51.84029493 37.85046348 55.15267975 27 55.125 C25.989375 55.12757813 24.97875 55.13015625 23.9375 55.1328125 C21.17768203 55.0080335 18.6952018 54.57210544 16 54 C16.11911512 58.00203816 16.24341172 62.00388006 16.37231445 66.00561523 C16.41537294 67.3642958 16.45706565 68.72302041 16.49731445 70.08178711 C16.55572893 72.04552303 16.61961803 74.00909364 16.68359375 75.97265625 C16.72025146 77.15093994 16.75690918 78.32922363 16.79467773 79.54321289 C17.00271532 83.04571488 17.50379843 86.52658902 18 90 C12.06 90 6.12 90 0 90 C0.33 87.69 0.66 85.38 1 83 C1.08875925 80.36531567 1.13705048 77.75815801 1.12939453 75.12451172 C1.13114685 74.37074249 1.13289917 73.61697327 1.13470459 72.84036255 C1.13907521 70.37011352 1.13620269 67.89993715 1.1328125 65.4296875 C1.13348677 63.70289089 1.13445783 61.97609438 1.13571167 60.2492981 C1.13718203 56.63998506 1.13505486 53.03069686 1.13037109 49.42138672 C1.12466563 44.80016549 1.12796218 40.17900224 1.13394356 35.55778313 C1.13755973 31.99585535 1.13640586 28.43394129 1.13381577 24.87201309 C1.13314987 23.16800047 1.13396312 21.46398659 1.13629532 19.75997543 C1.13884011 17.37884985 1.13495588 14.99781785 1.12939453 12.61669922 C1.13141876 11.91631531 1.13344299 11.2159314 1.13552856 10.49432373 C1.11988216 6.87067329 0.85661817 3.52452221 0 0 Z " fill="#44321F" transform="translate(347,530)"/>
<path d="M0 0 C5.8674643 -0.09998301 11.73441669 -0.1719872 17.60253906 -0.21972656 C19.59253596 -0.23965868 21.58247571 -0.26681452 23.57226562 -0.30175781 C40.08101985 -0.58410069 54.81230772 -0.00607085 67.73828125 11.5546875 C72.28347415 16.26905632 74.08711482 21.83952876 76 28 C76.495 29.485 76.495 29.485 77 31 C78.13949175 46.82840218 77.3719111 64.10519161 67 77 C59.52109492 84.72016008 51.75911404 89.65436158 40.80323792 90.08668518 C38.20417422 90.11537321 35.60699271 90.11240454 33.0078125 90.09765625 C32.06187225 90.0962413 31.11593201 90.09482635 30.1413269 90.09336853 C27.13585171 90.08779484 24.13045247 90.0752472 21.125 90.0625 C19.08073025 90.0574816 17.03645932 90.05291929 14.9921875 90.04882812 C9.99476264 90.03783403 4.99739417 90.02058757 0 90 C0.16233124 89.00521133 0.32466248 88.01042267 0.49191284 86.98548889 C1.04875588 83.06666815 1.14106975 79.18546025 1.12939453 75.23217773 C1.13114685 74.48976837 1.13289917 73.74735901 1.13470459 72.98245239 C1.13907493 70.54947513 1.13620249 68.11657164 1.1328125 65.68359375 C1.13348685 63.98161302 1.13445797 62.27963238 1.13571167 60.57765198 C1.13718205 57.01961343 1.13505504 53.46160007 1.13037109 49.90356445 C1.12466986 45.35194364 1.1279595 40.80038175 1.13394356 36.24876308 C1.13756326 32.73740701 1.13640417 29.22606483 1.13381577 25.71470833 C1.13315063 24.036642 1.13396044 22.3585744 1.13629532 20.68050957 C1.13884548 18.33311513 1.13494821 15.98581517 1.12939453 13.63842773 C1.13141876 12.95098984 1.13344299 12.26355194 1.13552856 11.55528259 C1.11827469 7.60241969 0.75645762 3.87922113 0 0 Z M16 8 C16 32.09 16 56.18 16 81 C43.07241856 83.03069233 43.07241856 83.03069233 55 77 C63.93976425 67.35446489 63.57780053 50.48992046 63.140625 38.09326172 C62.50976923 28.70271073 59.62291489 20.07403581 52.5625 13.6875 C42.06704125 5.291133 28.99484251 8 16 8 Z " fill="#43311E" transform="translate(727,530)"/>
<path d="M0 0 C5.61 0 11.22 0 17 0 C16.67 12.87 16.34 25.74 16 39 C29.2 39 42.4 39 56 39 C55.01 19.695 55.01 19.695 54 0 C59.61 0 65.22 0 71 0 C70.83773926 1.32128906 70.67547852 2.64257812 70.50830078 4.00390625 C69.78291009 11.30419974 69.8557032 18.61019238 69.8671875 25.9375 C69.86651215 27.46866878 69.86554021 28.99983745 69.86428833 30.53100586 C69.86282223 33.72478262 69.86493071 36.91853123 69.86962891 40.11230469 C69.87532552 44.18029523 69.87204066 48.24821976 69.86605644 52.31620789 C69.86242133 55.47343431 69.8636029 58.6306454 69.86618423 61.78787231 C69.86684536 63.28679411 69.86605398 64.78571735 69.86370468 66.28463745 C69.85395496 74.25106911 70.02779991 82.0833756 71 90 C65.39 90 59.78 90 54 90 C54.23009766 87.53273438 54.23009766 87.53273438 54.46484375 85.015625 C55.11060536 77.2664857 55.34057173 69.52039301 55.5625 61.75 C55.706875 56.8825 55.85125 52.015 56 47 C42.47 47 28.94 47 15 47 C15.66 61.19 16.32 75.38 17 90 C11.39 90 5.78 90 0 90 C0.16226074 88.6996582 0.32452148 87.39931641 0.49169922 86.05957031 C1.25226984 78.40287984 1.14408371 70.73201618 1.1328125 63.046875 C1.13348746 61.41644272 1.13445909 59.78601055 1.13571167 58.15557861 C1.13717793 54.75670402 1.13506766 51.35785587 1.13037109 47.95898438 C1.12465619 43.61259243 1.12797073 39.26626201 1.13394356 34.91987228 C1.13756268 31.56035908 1.13640468 28.20086039 1.13381577 24.84134674 C1.13315118 23.23863976 1.13395846 21.63593143 1.13629532 20.03322601 C1.13884609 17.79392514 1.134948 15.55472322 1.12939453 13.31542969 C1.12859894 12.04431335 1.12780334 10.77319702 1.12698364 9.46356201 C1.05782128 5.55667555 1.05782128 5.55667555 0 0 Z " fill="#402E1B" transform="translate(145,530)"/>
<path d="M0 0 C0.45101074 1.3765979 0.45101074 1.3765979 0.91113281 2.78100586 C6.52461269 19.88665478 12.23334446 36.95078222 18.375 53.875 C18.61512817 54.54071014 18.85525635 55.20642029 19.10266113 55.89230347 C24.91083768 73.65598824 24.91083768 73.65598824 35 89 C35 89.66 35 90.32 35 91 C28.07 91 21.14 91 14 91 C13.4121875 87.9990625 13.4121875 87.9990625 12.8125 84.9375 C11.35821319 78.07857999 9.31257903 71.59388256 6.98828125 64.984375 C6 62 6 62 6 60 C-3.57 60 -13.14 60 -23 60 C-25.54934084 70.3673194 -27.66152809 80.40376403 -29 91 C-34.61 91 -40.22 91 -46 91 C-44.80761719 88.74285156 -43.61523438 86.48570312 -42.38671875 84.16015625 C-37.8285019 75.22229188 -34.76355912 66.00160985 -31.8125 56.4375 C-31.31440395 54.85442295 -30.81505689 53.27173897 -30.31445312 51.68945312 C-29.57604188 49.3542081 -28.83906433 47.01859784 -28.10847473 44.68089294 C-26.58091669 39.79682133 -24.98560455 34.94045582 -23.34375 30.09375 C-21.23104781 23.80278881 -19.38397622 17.47688107 -17.6875 11.0625 C-17.42388672 10.08087891 -17.16027344 9.09925781 -16.88867188 8.08789062 C-16.2550761 5.72630636 -15.62551358 3.36373515 -15 1 C-9.94997778 -0.03590199 -5.12583611 -0.10251672 0 0 Z " fill="#422F1C" transform="translate(898,529)"/>
<path d="M0 0 C16.83 0 33.66 0 51 0 C50.34 2.97 49.68 5.94 49 9 C37.78 8.67 26.56 8.34 15 8 C15 18.23 15 28.46 15 39 C24.9 39 34.8 39 45 39 C44.01 41.97 43.02 44.94 42 48 C33.09 47.67 24.18 47.34 15 47 C15.33 58.55 15.66 70.1 16 82 C27.52061389 82.22589439 37.96422698 82.32640946 49.1640625 79.65625 C52 79 52 79 55 79 C54.67 82.63 54.34 86.26 54 90 C36.18 90 18.36 90 0 90 C0 60.3 0 30.6 0 0 Z " fill="#43311E" transform="translate(654,530)"/>
<path d="M0 0 C17.16 0 34.32 0 52 0 C51.01 2.97 50.02 5.94 49 9 C38.11 8.67 27.22 8.34 16 8 C16 18.23 16 28.46 16 39 C25.9 39 35.8 39 46 39 C45.01 41.97 44.02 44.94 43 48 C34.09 47.67 25.18 47.34 16 47 C16 58.88 16 70.76 16 83 C27.71295243 82.63624371 38.78881415 82.2737907 50.19921875 79.62109375 C53 79 53 79 56 79 C55.34 82.63 54.68 86.26 54 90 C36.18 90 18.36 90 0 90 C0.33 86.7 0.66 83.4 1 80 C1.08302551 77.46176597 1.12775551 74.92191524 1.12939453 72.38232422 C1.13114685 71.69145721 1.13289917 71.00059021 1.13470459 70.28878784 C1.13904443 68.04406086 1.13621395 65.79941504 1.1328125 63.5546875 C1.13348765 61.97388697 1.13445943 60.39308655 1.13571167 58.81228638 C1.13717785 55.51596071 1.13506845 52.21966232 1.13037109 48.92333984 C1.12466505 44.71614863 1.12796523 40.5090211 1.13394356 36.3018322 C1.13757041 33.04346239 1.136401 29.78510749 1.13381577 26.52673721 C1.13315286 24.97592282 1.13395246 23.42510704 1.13629532 21.87429428 C1.13885798 19.70245564 1.13493126 17.53071792 1.12939453 15.35888672 C1.12820114 13.51216873 1.12820114 13.51216873 1.12698364 11.62814331 C0.99077119 7.73631677 0.48301724 3.86413794 0 0 Z " fill="#42301D" transform="translate(244,530)"/>
<path d="M0 0 C21.78 0 43.56 0 66 0 C66 3.63 66 7.26 66 11 C57.32626131 10.05377396 48.66651442 9.01958993 40 8 C40.33 35.06 40.66 62.12 41 90 C35.72 90 30.44 90 25 90 C25.33 62.94 25.66 35.88 26 8 C12.99299511 9.44066166 12.99299511 9.44066166 0 11 C0 7.37 0 3.74 0 0 Z " fill="#44311F" transform="translate(67,530)"/>
<path d="M0 0 C5.28 0 10.56 0 16 0 C16 29.7 16 59.4 16 90 C10.72 90 5.44 90 0 90 C0 60.3 0 30.6 0 0 Z " fill="#44311F" transform="translate(825,530)"/>
<path d="M0 0 C18 0 18 0 25 3 C30.8050146 9.11879917 31.50350338 14.09905415 31.3828125 22.375 C30.68919876 28.94309745 28.13966463 33.80547218 23.5625 38.5 C16.90463687 42.39728573 10.56879295 42.4696365 3 42 C2.01 41.67 1.02 41.34 0 41 C0 27.47 0 13.94 0 0 Z " fill="#F8F3EE" transform="translate(363,537)"/>
<path d="M0 0 C0.56460937 0.32097656 1.12921875 0.64195312 1.7109375 0.97265625 C11.47940813 5.35679921 24.5069206 4.24819373 35 4 C36.83292491 9.03693539 37.18246409 12.70854153 37 18 C35.71996094 18.20367187 34.43992187 18.40734375 33.12109375 18.6171875 C27.30954371 19.90813711 22.9426973 22.82560386 18.0625 26.125 C16.38916893 27.2354718 14.71350351 28.34243674 13.03515625 29.4453125 C12.3069165 29.93531738 11.57867676 30.42532227 10.82836914 30.93017578 C9 32 9 32 7 32 C6.505 34.475 6.505 34.475 6 37 C3.6875 37 3.6875 37 1 36 C-1.84093169 29.67280749 -3.28855699 23.07059297 -4.75 16.3125 C-4.98332031 15.29349609 -5.21664063 14.27449219 -5.45703125 13.22460938 C-5.67230469 12.23912109 -5.88757813 11.25363281 -6.109375 10.23828125 C-6.30499023 9.35180908 -6.50060547 8.46533691 -6.70214844 7.55200195 C-7.0294306 4.74783769 -6.82117819 2.69651591 -6 0 C-3.44901433 -1.27549283 -2.66705587 -0.86287102 0 0 Z " fill="#AB652C" transform="translate(463,338)"/>
<path d="M0 0 C3.01125 -0.0825 6.0225 -0.165 9.125 -0.25 C10.06230957 -0.28641602 10.99961914 -0.32283203 11.96533203 -0.36035156 C18.56867408 -0.44755225 21.97107386 1.17555832 26.8515625 5.7265625 C28.59565296 9.17914973 28.4334163 12.59741229 28.375 16.375 C28.38660156 17.1175 28.39820313 17.86 28.41015625 18.625 C28.38446314 23.47243382 27.6356443 26.79431878 25 31 C16.99151592 38.40784777 12.77728623 36 0 36 C0 24.12 0 12.24 0 0 Z " fill="#F8F4EF" transform="translate(443,537)"/>
<path d="M0 0 C4.46408549 2.44068166 8.16177851 5.1367441 10 10 C10.72545222 14.55500288 11.055477 19.06724342 8.796875 23.203125 C5.73701006 26.88114448 2.707774 29.57660261 -2.1484375 30.3359375 C-7.61376895 30.43182051 -10.74988733 29.75591353 -15 26 C-18.93516831 21.65060345 -19.6434461 18.08177745 -19.37890625 12.3984375 C-18.69635075 8.07793153 -16.81780186 5.47264961 -13.45703125 2.75 C-9.28293227 -0.00089361 -4.95527816 -1.25997585 0 0 Z " fill="#C69159" transform="translate(534,323)"/>
<path d="M0 0 C2 1 2 1 2.859375 3.45703125 C3.15328125 4.56433594 3.4471875 5.67164063 3.75 6.8125 C4.96359539 11.27303552 6.20248445 15.71332711 7.55859375 20.1328125 C7.96223145 21.44995239 7.96223145 21.44995239 8.37402344 22.79370117 C8.90644633 24.52407558 9.44212763 26.25345158 9.98144531 27.98168945 C10.22862305 28.79081787 10.47580078 29.59994629 10.73046875 30.43359375 C10.95114014 31.14572021 11.17181152 31.85784668 11.39916992 32.59155273 C12.16918336 35.67817711 12.55010733 38.8507513 13 42 C4.75 42 -3.5 42 -12 42 C-8.65655226 27.79034711 -4.37916847 13.92154869 0 0 Z " fill="#F0EBE5" transform="translate(888,540)"/>
<path d="M0 0 C2.69990662 1.79993774 4.5418865 3.083773 6 6 C6.56406011 10.1364408 6.14638597 11.76045933 3.9375 15.375 C1 18 1 18 -2.5 18.625 C-6.65672698 17.88272732 -8.33984093 17.30504612 -11 14 C-11.72241241 10.85192641 -11.69537012 8.15159684 -11 5 C-7.89186342 0.52062669 -5.43349789 -1.01878085 0 0 Z " fill="#F2EEE8" transform="translate(382,655)"/>
<path d="M0 0 C3.17396662 2.89796953 4.80140943 4.78363273 5.5 9.0625 C4.93980114 12.3536683 3.98373516 14.32958728 2 17 C-1.13871188 18.56935594 -3.53855822 18.35201103 -7 18 C-9.92539902 16.00823896 -11.58729794 14.55075925 -12.515625 11.0625 C-12.70247194 8.82033669 -12.61585026 7.16639525 -12 5 C-8.42561053 0.91498347 -5.47392501 -1.28113139 0 0 Z " fill="#F6F2ED" transform="translate(506,655)"/>
<path d="M0 0 C2.85801731 1.98818595 4.61901083 3.47604331 5.484375 6.9375 C5.7545711 10.90037614 5.23136937 12.66346274 2.9375 16 C-0.74376653 18.50639423 -2.62901047 18.71525283 -7 18 C-9.36497439 16.13291495 -10.66030715 14.67938569 -12 12 C-12.43023798 8.12785818 -12.31669086 6.47503629 -10.125 3.1875 C-6.84028418 -0.19382511 -4.67056491 -0.54947822 0 0 Z " fill="#F3EFE9" transform="translate(215,655)"/>
<path d="M0 0 C1.60379341 -0.05416188 3.20811406 -0.09286638 4.8125 -0.125 C5.70582031 -0.14820313 6.59914063 -0.17140625 7.51953125 -0.1953125 C10 0 10 0 13 2 C13.1875 4.375 13.1875 4.375 13 7 C13 8.32 13 9.64 13 11 C13.33 11.33 13.66 11.66 14 12 C14.04063832 13.66617115 14.042721 15.33388095 14 17 C14.66 17.33 15.32 17.66 16 18 C14.68 18 13.36 18 12 18 C11.34 15.69 10.68 13.38 10 11 C8.35 10.67 6.7 10.34 5 10 C5 12.31 5 14.62 5 17 C5.66 17.33 6.32 17.66 7 18 C5.02 18 3.04 18 1 18 C1.33 12.72 1.66 7.44 2 2 C1.34 2 0.68 2 0 2 C0 1.34 0 0.68 0 0 Z " fill="#766859" transform="translate(662,655)"/>
<path d="M0 0 C9 0 9 0 12 2 C12.1875 4.375 12.1875 4.375 12 7 C12 10.54065105 12.11346089 11.74583192 13.5 14.75 C13.995 15.8225 14.49 16.895 15 18 C13.68 18 12.36 18 11 18 C10.34 15.69 9.68 13.38 9 11 C7.35 10.67 5.7 10.34 4 10 C4 12.31 4 14.62 4 17 C4.66 17.33 5.32 17.66 6 18 C4.02 18 2.04 18 0 18 C0 12.06 0 6.12 0 0 Z " fill="#978B7F" transform="translate(403,655)"/>
<path d="M0 0 C1.60332791 -0.08121924 3.20784026 -0.13929134 4.8125 -0.1875 C6.15248047 -0.23970703 6.15248047 -0.23970703 7.51953125 -0.29296875 C10 0 10 0 11.8359375 1.3515625 C13 3 13 3 12.8125 5.5625 C12 8 12 8 10 10 C7.375 10.125 7.375 10.125 5 10 C5 12.31 5 14.62 5 17 C5.66 17.33 6.32 17.66 7 18 C5.02 18 3.04 18 1 18 C1.33 12.72 1.66 7.44 2 2 C1.34 2 0.68 2 0 2 C0 1.34 0 0.68 0 0 Z " fill="#6F6051" transform="translate(558,655)"/>
<path d="M0 0 C3.96 0 7.92 0 12 0 C11.67 1.32 11.34 2.64 11 4 C11 3.34 11 2.68 11 2 C8.69 2 6.38 2 4 2 C4 3.98 4 5.96 4 8 C7.465 7.505 7.465 7.505 11 7 C11 8.32 11 9.64 11 11 C8.69 10.67 6.38 10.34 4 10 C4 12.31 4 14.62 4 17 C6.64 17 9.28 17 12 17 C12.33 16.01 12.66 15.02 13 14 C13 15.32 13 16.64 13 18 C8.38 18 3.76 18 -1 18 C-0.34 17.67 0.32 17.34 1 17 C0.67 11.39 0.34 5.78 0 0 Z " fill="#77685A" transform="translate(751,655)"/>
<path d="M0 0 C3.17396662 2.89796953 4.80140943 4.78363273 5.5 9.0625 C4.93980114 12.3536683 3.98373516 14.32958728 2 17 C-1.13871188 18.56935594 -3.53855822 18.35201103 -7 18 C-9.92539902 16.00823896 -11.58729794 14.55075925 -12.515625 11.0625 C-12.70247194 8.82033669 -12.61585026 7.16639525 -12 5 C-8.42561053 0.91498347 -5.47392501 -1.28113139 0 0 Z M-9 4 C-9.59459504 6.39908783 -9.59459504 6.39908783 -9.4375 9 C-9.43621094 9.86625 -9.43492187 10.7325 -9.43359375 11.625 C-8.92425266 14.41490433 -8.25050975 15.32156228 -6 17 C-3.5 17.58333333 -3.5 17.58333333 -1 17 C1.14223357 15.22711704 1.86058039 13.82971673 2.3203125 11.09375 C2.52759378 7.3903245 2.41059599 5.56633929 0.1875 2.5 C-3.62804909 -0.11637652 -5.91541257 0.96125569 -9 4 Z " fill="#5F4F3E" transform="translate(506,655)"/>
<path d="M0 0 C0.99 0 1.98 0 3 0 C3.33 4.62 3.66 9.24 4 14 C6.97 14 9.94 14 13 14 C13 9.38 13 4.76 13 0 C13.66 0 14.32 0 15 0 C15 5.61 15 11.22 15 17 C14.01 16.67 13.02 16.34 12 16 C11.34 16.33 10.68 16.66 10 17 C3.73143675 17.45589551 3.73143675 17.45589551 1.2890625 15.93359375 C-0.69652988 12.95520518 -0.28448308 10.33621858 -0.1875 6.8125 C-0.16042969 5.54019531 -0.13335938 4.26789062 -0.10546875 2.95703125 C-0.07066406 1.98121094 -0.03585937 1.00539063 0 0 Z " fill="#5E4E3D" transform="translate(527,656)"/>
<path d="M0 0 C2.85801731 1.98818595 4.61901083 3.47604331 5.484375 6.9375 C5.7545711 10.90037614 5.23136937 12.66346274 2.9375 16 C-0.74376653 18.50639423 -2.62901047 18.71525283 -7 18 C-9.36497439 16.13291495 -10.66030715 14.67938569 -12 12 C-12.43023798 8.12785818 -12.31669086 6.47503629 -10.125 3.1875 C-6.84028418 -0.19382511 -4.67056491 -0.54947822 0 0 Z M-7.1875 2.5 C-9.41059599 5.56633929 -9.52759378 7.3903245 -9.3203125 11.09375 C-8.86058039 13.82971673 -8.14223357 15.22711704 -6 17 C-3.54367668 17.75021244 -3.54367668 17.75021244 -1 17 C1.7943002 14.43226468 2.8617607 12.73727628 3.5625 9 C2.80862751 4.97934674 1.16460606 3.50224665 -2 1 C-5.02970006 0.71723582 -5.02970006 0.71723582 -7.1875 2.5 Z " fill="#625141" transform="translate(215,655)"/>
<path d="M0 0 C3.7652358 0.25672062 5.55839511 0.59325866 8.375 3.1875 C10.33888718 6.58653551 10.70949231 8.13720853 10 12 C7.9375 15.375 7.9375 15.375 5 18 C0.88971216 18.73397997 -1.19976004 18.39160679 -4.9375 16.5625 C-7.56594376 13.29685776 -7.65082709 11.22950136 -7.44140625 7.12890625 C-6.82114837 4.13739698 -5.44098846 2.75446046 -3 1 C-2.34 1.33 -1.68 1.66 -1 2 C-1.495 2.53625 -1.99 3.0725 -2.5 3.625 C-4.7692757 7.21801986 -4.35407216 10.31815725 -3.5 14.375 C-3.335 14.91125 -3.17 15.4475 -3 16 C1.08787015 16.30932933 1.08787015 16.30932933 4.875 15 C6.67859146 11.79361519 6.56266946 8.58608001 6 5 C4.81104764 3.05967596 4.81104764 3.05967596 3 2 C2.01 1.34 1.02 0.68 0 0 Z " fill="#554433" transform="translate(378,655)"/>
<path d="M0 0 C5.61 0 11.22 0 17 0 C16.67 1.32 16.34 2.64 16 4 C16 3.34 16 2.68 16 2 C14.02 2 12.04 2 10 2 C10 6.95 10 11.9 10 17 C10.66 17.33 11.32 17.66 12 18 C9.69 18 7.38 18 5 18 C5.66 17.67 6.32 17.34 7 17 C7 12.05 7 7.1 7 2 C5.35 2 3.7 2 2 2 C2 2.66 2 3.32 2 4 C1.34 4 0.68 4 0 4 C0 2.68 0 1.36 0 0 Z " fill="#9E9388" transform="translate(719,655)"/>
<path d="M0 0 C5.61 0 11.22 0 17 0 C16.67 1.32 16.34 2.64 16 4 C16 3.34 16 2.68 16 2 C14.02 2 12.04 2 10 2 C10 6.95 10 11.9 10 17 C10.66 17.33 11.32 17.66 12 18 C9.69 18 7.38 18 5 18 C5.66 17.67 6.32 17.34 7 17 C7 12.05 7 7.1 7 2 C5.35 2 3.7 2 2 2 C2 2.66 2 3.32 2 4 C1.34 4 0.68 4 0 4 C0 2.68 0 1.36 0 0 Z " fill="#7D6F61" transform="translate(340,655)"/>
<path d="M0 0 C5.61 0 11.22 0 17 0 C16.67 1.32 16.34 2.64 16 4 C16 3.34 16 2.68 16 2 C14.02 2 12.04 2 10 2 C10 6.95 10 11.9 10 17 C10.66 17.33 11.32 17.66 12 18 C9.69 18 7.38 18 5 18 C5.66 17.67 6.32 17.34 7 17 C7 12.05 7 7.1 7 2 C5.02 2 3.04 2 1 2 C0.67 2.66 0.34 3.32 0 4 C0 2.68 0 1.36 0 0 Z " fill="#736556" transform="translate(631,655)"/>
<path d="M0 0 C2.72869407 0.03287583 5.2966618 0.56397771 8 1 C7.67 2.32 7.34 3.64 7 5 C6.566875 4.505 6.13375 4.01 5.6875 3.5 C4.00259517 1.66781808 4.00259517 1.66781808 1 2 C0.67 3.65 0.34 5.3 0 7 C1.7015625 7.4640625 1.7015625 7.4640625 3.4375 7.9375 C7 9 7 9 8 10 C8.1875 12.9375 8.1875 12.9375 8 16 C6 18 6 18 4.0546875 18.1953125 C2.03645833 18.13020833 0.01822917 18.06510417 -2 18 C-2.33 16.35 -2.66 14.7 -3 13 C-2.34 13 -1.68 13 -1 13 C-0.67 13.99 -0.34 14.98 0 16 C1.65 16 3.3 16 5 16 C5 14.68 5 13.36 5 12 C4.05125 11.54625 3.1025 11.0925 2.125 10.625 C-1 9 -1 9 -3 7 C-2.67028521 3.70285207 -2.3773161 2.3773161 0 0 Z " fill="#4B3927" transform="translate(318,655)"/>
<path d="M0 0 C0.99 0 1.98 0 3 0 C3 2.64 3 5.28 3 8 C4.65 7.34 6.3 6.68 8 6 C7.67 4.02 7.34 2.04 7 0 C8.32 0.33 9.64 0.66 11 1 C11 4 11 7 11 10 C11.33 10.33 11.66 10.66 12 11 C12.04063832 12.66617115 12.042721 14.33388095 12 16 C12.66 16.33 13.32 16.66 14 17 C12.68 17 11.36 17 10 17 C9.34 14.69 8.68 12.38 8 10 C6.35 9.67 4.7 9.34 3 9 C3 11.31 3 13.62 3 16 C3.66 16.33 4.32 16.66 5 17 C3.02 17 1.04 17 -1 17 C-0.34 16.67 0.32 16.34 1 16 C0.67 10.72 0.34 5.44 0 0 Z " fill="#534130" transform="translate(269,656)"/>
<path d="M0 0 C-0.33 1.32 -0.66 2.64 -1 4 C-1 3.01 -1 2.02 -1 1 C-2.65 1 -4.3 1 -6 1 C-6.33 2.32 -6.66 3.64 -7 5 C-5.576875 5.680625 -5.576875 5.680625 -4.125 6.375 C-1 8 -1 8 1 10 C1.25 12.5 1.25 12.5 1 15 C-1 17 -1 17 -2.9453125 17.1953125 C-4.96354167 17.13020833 -6.98177083 17.06510417 -9 17 C-9.33 15.35 -9.66 13.7 -10 12 C-9.67 12.99 -9.34 13.98 -9 15 C-6.36 15 -3.72 15 -1 15 C-2.49835228 10.33845958 -5.88463591 9.13389249 -10 7 C-10.22111261 4.27294446 -10.30361625 2.53579338 -8.9375 0.125 C-5.88430685 -1.64782183 -3.33588292 -0.69235306 0 0 Z " fill="#594837" transform="translate(616,656)"/>
<path d="M0 0 C0 1.65 0 3.3 0 5 C-0.33 4.01 -0.66 3.02 -1 2 C-6.11573055 0.85486641 -6.11573055 0.85486641 -11 1.9375 C-12.59909291 5.23562913 -12.53942879 8.41130014 -12 12 C-11.01951062 14.06402685 -11.01951062 14.06402685 -9 15 C-5.89160979 15.7269226 -5.89160979 15.7269226 -3 16 C-3 16.33 -3 16.66 -3 17 C-10.32026144 17.36601307 -10.32026144 17.36601307 -13.4375 15.6875 C-15.75556859 13.18398593 -16.00386574 10.97017861 -16.4375 7.625 C-16 4 -16 4 -13.4375 1.0625 C-9.12240633 -2.05622884 -4.90522194 -1.63507398 0 0 Z " fill="#5E4D3D" transform="translate(795,656)"/>
<path d="M0 0 C1.32 0.33 2.64 0.66 4 1 C3.360625 1.969375 2.72125 2.93875 2.0625 3.9375 C-0.38351528 8.1553638 -0.78209489 12.19519242 -1 17 C-0.34 17.33 0.32 17.66 1 18 C-1.31 18 -3.62 18 -6 18 C-5.34 17.67 -4.68 17.34 -4 17 C-4.97472708 11.73647377 -5.98820986 7.51768521 -9 3 C-9 2.34 -9 1.68 -9 1 C-8.01 1 -7.02 1 -6 1 C-5.01 2.98 -4.02 4.96 -3 7 C-0.41222792 3.94419026 -0.41222792 3.94419026 0 0 Z " fill="#665747" transform="translate(441,655)"/>
<path d="M0 0 C1.98 0 3.96 0 6 0 C6.33 1.98 6.66 3.96 7 6 C8.32 5.67 9.64 5.34 11 5 C10.34 8.96 9.68 12.92 9 17 C9.66 17.33 10.32 17.66 11 18 C8.69 18 6.38 18 4 18 C4.66 17.67 5.32 17.34 6 17 C5.71572583 15.41532272 5.42225182 13.8322943 5.125 12.25 C4.88136719 10.92742188 4.88136719 10.92742188 4.6328125 9.578125 C4.02519918 7.10266333 3.32177701 5.17358885 2 3 C1.34 2.67 0.68 2.34 0 2 C0 1.34 0 0.68 0 0 Z " fill="#685949" transform="translate(810,655)"/>
<path d="M0 0 C1.98 0 3.96 0 6 0 C6.33 2.64 6.66 5.28 7 8 C7.66 8 8.32 8 9 8 C9.33 7.01 9.66 6.02 10 5 C11.3609623 7.7219246 10.70366248 9.1831957 10.0625 12.125 C9.86785156 13.03507813 9.67320312 13.94515625 9.47265625 14.8828125 C9.31667969 15.58148437 9.16070312 16.28015625 9 17 C9.66 17.33 10.32 17.66 11 18 C8.69 18 6.38 18 4 18 C4.66 17.67 5.32 17.34 6 17 C5.71572583 15.41532272 5.42225182 13.8322943 5.125 12.25 C4.88136719 10.92742188 4.88136719 10.92742188 4.6328125 9.578125 C4.02519918 7.10266333 3.32177701 5.17358885 2 3 C1.34 2.67 0.68 2.34 0 2 C0 1.34 0 0.68 0 0 Z " fill="#635343" transform="translate(175,655)"/>
<path d="M0 0 C0.66 0 1.32 0 2 0 C2 2.64 2 5.28 2 8 C3.98 7.67 5.96 7.34 8 7 C12.42857143 13.28571429 12.42857143 13.28571429 13 17 C11.68 17 10.36 17 9 17 C8.34 14.69 7.68 12.38 7 10 C5.35 9.67 3.7 9.34 2 9 C2 11.31 2 13.62 2 16 C2.66 16.33 3.32 16.66 4 17 C2.02 17 0.04 17 -2 17 C-1.34 16.67 -0.68 16.34 0 16 C0 10.72 0 5.44 0 0 Z " fill="#453320" transform="translate(405,656)"/>
<path d="M0 0 C3.3 0 6.6 0 10 0 C10.625 3.375 10.625 3.375 11 7 C10.34 7.66 9.68 8.32 9 9 C7.68 9 6.36 9 5 9 C5 6.36 5 3.72 5 1 C3.35 1.33 1.7 1.66 0 2 C0 1.34 0 0.68 0 0 Z " fill="#DDD6CF" transform="translate(267,655)"/>
<path d="M0 0 C0 1.32 0 2.64 0 4 C-3.3 4.66 -6.6 5.32 -10 6 C-10.33 4.68 -10.66 3.36 -11 2 C-7.17010894 0.19769832 -4.21878192 -0.19622241 0 0 Z " fill="#A6602B" transform="translate(455,356)"/>
<path d="M0 0 C2.61878654 2.61878654 3.40199615 5.57014292 4.5625 9 C6.08404526 13.57998435 6.08404526 13.57998435 8 18 C6.02 18 4.04 18 2 18 C2.33 17.34 2.66 16.68 3 16 C2.06913008 12.63902254 0.93401735 9.36824187 -0.1875 6.06640625 C-1 3 -1 3 0 0 Z " fill="#5C4C3B" transform="translate(700,655)"/>
<path d="M0 0 C0.66 0 1.32 0 2 0 C2.33 4.62 2.66 9.24 3 14 C5.64 14.33 8.28 14.66 11 15 C9 17 9 17 5.5 17.25 C2 17 2 17 0 15 C-0.14497985 12.41935871 -0.18677545 9.95056116 -0.125 7.375 C-0.11597656 6.66859375 -0.10695312 5.9621875 -0.09765625 5.234375 C-0.07407603 3.48943902 -0.03820461 1.74467705 0 0 Z " fill="#544231" transform="translate(237,656)"/>
<path d="M0 0 C0.556875 0.226875 1.11375 0.45375 1.6875 0.6875 C0.24123881 4.50037042 -1.61444812 6.01457177 -5.3125 7.6875 C-7.625 7.375 -7.625 7.375 -9.3125 6.6875 C-7.70234959 2.442558 -4.80443663 -0.64924819 0 0 Z " fill="#A55D26" transform="translate(456.3125,362.3125)"/>
<path d="M0 0 C3.3 0 6.6 0 10 0 C10.33 1.32 10.66 2.64 11 4 C10.67 4.33 10.34 4.66 10 5 C8.47480724 4.91062197 6.95318071 4.75462854 5.4375 4.5625 C4.19806641 4.40974609 4.19806641 4.40974609 2.93359375 4.25390625 C2.29550781 4.17011719 1.65742188 4.08632813 1 4 C0.67 2.68 0.34 1.36 0 0 Z " fill="#A45C27" transform="translate(444,349)"/>
<path d="M0 0 C1.65 0.33 3.3 0.66 5 1 C5 4 5 7 5 10 C5.33 10.33 5.66 10.66 6 11 C6.04063832 12.66617115 6.042721 14.33388095 6 16 C6.66 16.33 7.32 16.66 8 17 C6.68 17 5.36 17 4 17 C3.34 14.69 2.68 12.38 2 10 C0.35 9.67 -1.3 9.34 -3 9 C-2.360625 8.7525 -1.72125 8.505 -1.0625 8.25 C1.16331517 7.19184556 1.16331517 7.19184556 1.75 5 C2.04134491 3.00516811 2.04134491 3.00516811 2 1 C1.34 0.67 0.68 0.34 0 0 Z " fill="#635343" transform="translate(670,656)"/>
<path d="M0 0 C0.66 0 1.32 0 2 0 C3.25664978 2.90600261 4 4.79604584 4 8 C2.02 8 0.04 8 -2 8 C-2.66 9.32 -3.32 10.64 -4 12 C-3.33501617 7.61110675 -1.81242323 4.0188515 0 0 Z " fill="#ACA297" transform="translate(698,658)"/>
<path d="M0 0 C1.66611905 -0.042721 3.33382885 -0.04063832 5 0 C6 1 6 1 6.125 3.5 C6 6 6 6 5 7 C3.33382885 7.04063832 1.66611905 7.042721 0 7 C0 4.69 0 2.38 0 0 Z " fill="#F1EDE7" transform="translate(407,657)"/>
<path d="M0 0 C0.66 0 1.32 0 2 0 C2 5.28 2 10.56 2 16 C2.66 16.33 3.32 16.66 4 17 C1.69 17 -0.62 17 -3 17 C-2.34 16.34 -1.68 15.68 -1 15 C-0.69400937 12.43083343 -0.48912913 9.95241616 -0.375 7.375 C-0.33632813 6.66859375 -0.29765625 5.9621875 -0.2578125 5.234375 C-0.16352276 3.49001476 -0.08067109 1.74504309 0 0 Z " fill="#483623" transform="translate(727,656)"/>
<path d="M0 0 C1.65 0 3.3 0 5 0 C5.625 2.375 5.625 2.375 6 5 C5.34 5.66 4.68 6.32 4 7 C2.68 7 1.36 7 0 7 C0 4.69 0 2.38 0 0 Z " fill="#F2EEE8" transform="translate(667,657)"/>
<path d="M0 0 C2.475 0.495 2.475 0.495 5 1 C5.625 2.875 5.625 2.875 6 5 C5.34 5.66 4.68 6.32 4 7 C2.68 7 1.36 7 0 7 C0 4.69 0 2.38 0 0 Z " fill="#F3EEE9" transform="translate(563,657)"/>
<path d="M0 0 C0.33 0 0.66 0 1 0 C1.1953125 2.01822917 1.390625 4.03645833 1.5859375 6.0546875 C1.86374749 8.22668245 1.86374749 8.22668245 4 10 C6.45769153 10.41679297 6.45769153 10.41679297 9 10 C10.81476003 8.60414215 10.81476003 8.60414215 12 7 C12.33 7.99 12.66 8.98 13 10 C9.28986601 12.47342266 7.38939738 12.38503486 3 12 C0.5 11.0625 0.5 11.0625 -1 9 C-1.02177988 5.92903636 -0.58059937 3.01028154 0 0 Z " fill="#6C5C4D" transform="translate(496,661)"/>
<path d="M0 0 C1.875 0.3125 1.875 0.3125 4 1 C5.99825961 3.99738941 6.27550398 4.63347508 6.25 8 C6.25515625 8.680625 6.2603125 9.36125 6.265625 10.0625 C6 12 6 12 4 15 C3.34 15 2.68 15 2 15 C2.10699219 14.33613281 2.21398437 13.67226563 2.32421875 12.98828125 C3.16371708 7.29057602 3.16371708 7.29057602 1.5625 1.875 C1.046875 1.25625 0.53125 0.6375 0 0 Z " fill="#4E3C2A" transform="translate(214,656)"/>
<path d="M0 0 C0.66 0 1.32 0 2 0 C2 5.61 2 11.22 2 17 C-1 14 -1 14 -1.07421875 10.64453125 C-0.94660156 9.37996094 -0.81898438 8.11539063 -0.6875 6.8125 C-0.56761719 5.54019531 -0.44773438 4.26789062 -0.32421875 2.95703125 C-0.21722656 1.98121094 -0.11023438 1.00539063 0 0 Z " fill="#422F1C" transform="translate(249,656)"/>
<path d="M0 0 C3.7652358 0.25672062 5.55839511 0.59325866 8.375 3.1875 C10.24249951 6.41971069 10.34155908 8.32823991 10 12 C9.01 11.67 8.02 11.34 7 11 C6.4453125 9.22265625 6.4453125 9.22265625 6.125 7.0625 C5.72945144 4.90325577 5.72945144 4.90325577 5 3 C2.51686936 1.40311361 2.51686936 1.40311361 0 1 C0 0.67 0 0.34 0 0 Z " fill="#615141" transform="translate(378,655)"/>
<path d="M0 0 C2.02645576 2.72523361 2.92311545 5.17642332 3.8125 8.4375 C2.4925 8.4375 1.1725 8.4375 -0.1875 8.4375 C-0.8475 6.1275 -1.5075 3.8175 -2.1875 1.4375 C-3.8375 1.1075 -5.4875 0.7775 -7.1875 0.4375 C-7.1875 0.1075 -7.1875 -0.2225 -7.1875 -0.5625 C-3.99180519 -1.6277316 -2.81648305 -2.01177361 0 0 Z " fill="#625141" transform="translate(414.1875,664.5625)"/>
<path d="M0 0 C2.72869407 0.03287583 5.2966618 0.56397771 8 1 C7.67 2.32 7.34 3.64 7 5 C6.566875 4.505 6.13375 4.01 5.6875 3.5 C4.00259517 1.66781808 4.00259517 1.66781808 1 2 C0.896875 2.639375 0.79375 3.27875 0.6875 3.9375 C0.460625 4.618125 0.23375 5.29875 0 6 C-0.99 6.33 -1.98 6.66 -3 7 C-2.25 2.25 -2.25 2.25 0 0 Z " fill="#6E5F50" transform="translate(318,655)"/>
<path d="M0 0 C0.66 0.33 1.32 0.66 2 1 C1.54625 1.515625 1.0925 2.03125 0.625 2.5625 C-1.38200383 5.57300574 -2.12731809 8.50927237 -3 12 C-3.33 12 -3.66 12 -4 12 C-4.49230769 4.61538462 -4.49230769 4.61538462 -2 1.5 C-1.34 1.005 -0.68 0.51 0 0 Z " fill="#4D3B29" transform="translate(498,656)"/>
<path d="M0 0 C0.99 0.33 1.98 0.66 3 1 C3.12375 1.969375 3.2475 2.93875 3.375 3.9375 C3.684375 5.4534375 3.684375 5.4534375 4 7 C4.66 7.33 5.32 7.66 6 8 C4.35 8 2.7 8 1 8 C0.67 5.36 0.34 2.72 0 0 Z " fill="#675747" transform="translate(568,665)"/>
<path d="M0 0 C0.66 0 1.32 0 2 0 C2.33 0.99 2.66 1.98 3 3 C5.41619823 3.25030977 5.41619823 3.25030977 8 3 C8.66 2.01 9.32 1.02 10 0 C10.33 0.99 10.66 1.98 11 3 C9 5 9 5 7.0546875 5.1953125 C5.03645833 5.13020833 3.01822917 5.06510417 1 5 C0.67 3.35 0.34 1.7 0 0 Z " fill="#706152" transform="translate(315,668)"/>
<path d="M0 0 C3 1 3 1 4.3125 2.5 C6.68067968 4.60504861 8.91481553 4.65720173 12 5 C12 5.33 12 5.66 12 6 C4.69565217 6.36521739 4.69565217 6.36521739 1.5 4.6875 C0 3 0 3 0 0 Z " fill="#574635" transform="translate(780,667)"/>
<path d="M0 0 C1.98 0 3.96 0 6 0 C6 1.65 6 3.3 6 5 C3 5 3 5 1.3125 3.625 C0 2 0 2 0 0 Z " fill="#6B5B4B" transform="translate(175,655)"/>
<path d="M0 0 C0 1.32 0 2.64 0 4 C-2.31 3.67 -4.62 3.34 -7 3 C-7 2.34 -7 1.68 -7 1 C-2.25 0 -2.25 0 0 0 Z " fill="#A09589" transform="translate(762,662)"/>
<path d="M0 0 C2.475 0.495 2.475 0.495 5 1 C5 2.65 5 4.3 5 6 C4.01 6.495 4.01 6.495 3 7 C2.87625 6.030625 2.7525 5.06125 2.625 4.0625 C2.41875 3.051875 2.2125 2.04125 2 1 C1.34 0.67 0.68 0.34 0 0 Z " fill="#544332" transform="translate(670,656)"/>
</svg>
