<?xml version="1.0" standalone="no"?>
<!DOCTYPE svg PUBLIC "-//W3C//DTD SVG 20010904//EN"
 "http://www.w3.org/TR/2001/REC-SVG-20010904/DTD/svg10.dtd">
<svg version="1.0" xmlns="http://www.w3.org/2000/svg"
 width="3500.000000pt" height="1440.000000pt" viewBox="0 0 3500.000000 1440.000000"
 preserveAspectRatio="xMidYMid meet">

<g transform="translate(0.000000,1440.000000) scale(0.100000,-0.100000)"
fill="#000000" stroke="none">
<path d="M16154 10329 c-40 -11 -74 -49 -80 -90 -6 -34 205 -1040 226 -1079
20 -37 61 -60 107 -60 38 0 50 5 79 34 28 28 34 42 34 78 l1 43 122 74 c67 41
245 150 394 243 271 167 273 168 298 152 14 -9 28 -14 31 -11 3 3 29 70 58
149 55 150 54 142 31 245 -3 12 -17 35 -31 52 -45 53 -129 51 -173 -5 -11 -13
-29 -24 -42 -24 -13 0 -215 25 -449 55 -234 30 -431 55 -437 55 -7 0 -19 13
-28 30 -26 51 -84 75 -141 59z"/>
<path d="M15671 9944 c-26 -33 -26 -55 -3 -84 15 -19 42 -26 153 -45 163 -28
188 -21 189 52 0 46 -24 57 -165 82 -150 26 -149 26 -174 -5z"/>
<path d="M15823 9694 c-130 -27 -151 -36 -159 -68 -9 -36 -2 -57 26 -78 25
-19 27 -18 170 11 79 17 150 37 158 45 21 21 19 72 -3 96 -23 25 -49 24 -192
-6z"/>
<path d="M15895 9447 c-109 -75 -120 -85 -123 -115 -4 -43 21 -72 62 -72 21 0
62 21 136 71 58 39 113 80 123 91 37 42 6 109 -50 107 -18 0 -72 -30 -148 -82z"/>
<path d="M16920 9312 c-119 -72 -146 -92 -148 -113 -2 -21 22 -49 144 -168 80
-79 150 -139 154 -134 10 9 150 394 150 411 0 16 -112 92 -135 92 -12 0 -86
-40 -165 -88z"/>
<path d="M18190 5613 c-19 -1 -58 -5 -85 -8 l-50 -6 -2 -287 c-1 -301 -11
-489 -44 -786 -10 -99 -19 -183 -19 -188 0 -4 41 -8 91 -8 l91 0 -7 178 c-7
173 11 799 24 849 9 35 328 -890 348 -1010 l6 -39 61 7 c144 14 133 8 157 88
58 197 118 390 206 667 94 293 98 303 105 260 20 -128 30 -300 35 -632 l6
-368 115 0 115 0 -7 41 c-36 226 -76 784 -76 1067 0 181 0 182 -22 182 -12 0
-72 -5 -134 -11 l-112 -12 -37 -146 c-47 -178 -123 -433 -216 -726 -58 -179
-73 -216 -82 -200 -18 34 -334 978 -347 1038 l-11 57 -37 -2 c-20 0 -53 -3
-72 -5z"/>
<path d="M23045 5614 c-11 -2 -45 -6 -76 -9 l-57 -6 -16 -63 c-21 -85 -225
-744 -271 -876 -45 -128 -97 -242 -130 -286 -14 -18 -25 -35 -25 -38 0 -3 53
-6 119 -6 l118 0 12 103 c7 56 25 154 40 217 l27 115 207 3 206 2 52 -157 c28
-88 53 -186 56 -220 l6 -63 148 0 c82 0 149 2 149 5 0 3 -20 32 -44 64 -24 33
-66 115 -96 188 -99 240 -307 841 -340 981 -13 55 -16 57 -85 46z m31 -443
c46 -155 84 -286 84 -291 0 -6 -67 -10 -176 -10 -162 0 -175 1 -170 18 3 9 23
82 46 162 58 204 123 411 127 406 2 -2 42 -130 89 -285z"/>
<path d="M11390 5526 c0 -41 4 -77 8 -80 5 -3 33 1 63 9 72 20 279 48 287 40
10 -9 9 -971 -1 -1077 l-7 -88 115 0 116 0 -8 68 c-4 37 -8 299 -8 582 l0 515
64 -4 c35 -2 114 -13 175 -26 61 -12 112 -22 113 -21 1 1 5 36 9 79 l7 77
-467 0 -466 0 0 -74z"/>
<path d="M12507 5523 c13 -124 9 -1101 -4 -1150 l-11 -43 120 0 120 0 -6 43
c-3 23 -9 160 -12 305 l-7 262 288 0 288 0 -6 -262 c-4 -145 -10 -282 -15
-305 l-9 -43 119 0 120 0 -9 68 c-10 86 -11 1034 0 1130 l8 72 -117 0 -117 0
7 -47 c3 -27 9 -150 13 -275 l6 -228 -288 0 -288 0 6 223 c4 122 10 246 13
275 l7 52 -117 0 -117 0 8 -77z"/>
<path d="M13895 5563 c35 -186 34 -1068 -1 -1208 l-6 -25 380 0 c354 0 381 1
386 18 10 37 28 134 24 137 -2 2 -35 -5 -73 -16 -89 -25 -370 -46 -440 -33
l-50 9 -3 249 -2 248 191 -3 191 -4 24 59 24 59 -215 -6 -215 -6 0 223 0 223
46 7 c87 12 270 3 386 -19 l36 -7 17 54 c10 29 20 59 23 66 3 9 -74 12 -363
12 l-367 0 7 -37z"/>
<path d="M15354 5562 c22 -125 28 -299 23 -690 -2 -235 -9 -443 -14 -462 -6
-19 -13 -45 -17 -57 l-7 -23 129 0 130 0 -15 48 c-11 33 -17 106 -20 252 l-5
206 143 -1 c126 0 153 3 212 23 191 66 289 195 291 382 1 144 -46 235 -151
292 -99 54 -145 61 -437 64 l-268 2 6 -36z m511 -76 c50 -21 81 -50 108 -101
19 -34 22 -56 22 -155 0 -106 -2 -120 -28 -172 -54 -110 -146 -155 -292 -145
-128 9 -116 -23 -113 301 l3 281 30 7 c52 12 227 2 270 -16z"/>
<path d="M16484 5577 c21 -74 27 -239 24 -671 -4 -386 -7 -480 -20 -523 l-15
-53 125 0 124 0 -7 27 c-12 50 -25 247 -25 396 l0 148 32 -3 c29 -3 47 -25
215 -263 101 -143 192 -270 201 -283 17 -22 20 -23 167 -20 l150 3 -45 27
c-25 14 -73 55 -107 90 -62 64 -363 434 -363 447 0 3 32 15 70 25 124 32 221
114 267 227 27 67 24 209 -6 271 -26 54 -77 103 -130 126 -96 40 -132 44 -399
47 l-264 3 6 -21z m491 -88 c89 -25 132 -116 122 -259 -7 -104 -39 -169 -104
-207 -46 -27 -54 -28 -173 -28 l-125 0 -3 40 c-2 22 -1 135 3 252 l7 212 37 4
c55 7 191 -1 236 -14z"/>
<path d="M19674 5553 c33 -222 33 -998 0 -1185 l-7 -38 380 0 380 0 16 78 c8
42 14 79 12 81 -2 1 -25 -4 -52 -13 -88 -28 -176 -38 -340 -40 -89 0 -163 1
-166 4 -2 3 -6 115 -8 250 l-4 245 191 -1 192 -1 21 51 c11 28 21 55 21 60 0
5 -96 7 -212 5 l-213 -4 3 220 c2 121 5 221 7 223 2 2 45 6 97 9 84 5 256 -7
333 -22 30 -6 31 -5 52 59 l21 66 -365 0 -366 0 7 -47z"/>
<path d="M20715 5557 c34 -204 34 -1007 -1 -1191 l-6 -36 289 0 c256 0 299 2
367 20 268 68 409 270 423 605 15 347 -106 540 -384 617 -71 20 -107 22 -387
24 l-308 3 7 -42z m620 -96 c168 -61 237 -182 251 -445 15 -257 -53 -489 -154
-529 -68 -27 -184 -39 -340 -36 -83 2 -154 8 -159 12 -10 11 -18 898 -8 974
l7 55 171 -4 c143 -4 182 -9 232 -27z"/>
<path d="M22084 5568 c34 -164 34 -1078 1 -1211 l-7 -27 122 0 122 0 -6 28
c-33 156 -33 1055 0 1215 l6 27 -122 0 -122 0 6 -32z"/>
<path d="M15363 3903 l-113 -4 1 -27 c0 -26 1 -26 9 -4 8 18 17 22 50 22 l40
0 0 -109 c0 -96 -2 -110 -17 -114 -10 -3 5 -5 32 -5 28 0 42 2 31 5 -17 5 -18
12 -12 81 3 41 6 90 6 109 0 32 1 33 39 33 33 0 40 -4 44 -22 3 -17 5 -14 6
10 0 17 0 31 -1 30 -2 -1 -54 -4 -115 -5z"/>
<path d="M19355 3881 c-8 -29 1 -40 10 -12 5 17 15 21 45 21 21 0 42 -5 45
-11 4 -6 4 -55 0 -109 -6 -80 -10 -100 -24 -103 -9 -3 9 -5 39 -5 30 0 47 2
38 5 -16 4 -18 18 -18 114 l0 110 43 -3 c23 -2 42 -8 42 -15 0 -6 3 -15 8 -19
4 -4 7 6 7 22 l0 29 -115 0 c-112 0 -114 0 -120 -24z"/>
<path d="M20601 3875 c1 -24 3 -25 6 -7 4 19 11 22 49 22 l44 0 0 -109 c0 -96
-2 -110 -17 -114 -10 -3 5 -5 32 -5 28 0 42 2 32 5 -16 4 -17 16 -15 111 l3
107 42 3 c37 3 42 0 46 -20 3 -19 5 -17 6 7 l1 30 -115 0 -115 0 1 -30z"/>
<path d="M21120 3902 c-47 -2 -80 -6 -74 -10 6 -4 14 -51 17 -104 5 -80 4
-100 -9 -113 -14 -13 -6 -15 80 -15 l96 0 0 26 c0 14 -4 23 -10 19 -5 -3 -10
-13 -10 -21 0 -10 -14 -14 -54 -14 l-53 0 -7 46 c-3 25 -3 50 0 55 10 16 72
10 83 -8 8 -15 10 -11 10 17 0 19 -3 29 -6 23 -3 -8 -23 -13 -49 -13 l-45 0 3
48 3 47 48 3 c39 3 47 0 47 -14 0 -13 3 -15 11 -7 6 6 9 17 7 24 -2 11 -23 13
-88 11z"/>
<path d="M12922 3889 c10 -5 33 -38 53 -73 39 -71 46 -128 18 -145 -14 -8 -6
-10 32 -10 28 1 42 3 33 6 -14 4 -18 15 -18 58 0 43 7 66 31 107 17 29 36 56
43 60 6 4 -5 8 -24 8 -24 0 -31 -3 -21 -9 11 -7 9 -17 -10 -55 -12 -25 -25
-46 -29 -46 -8 0 -50 74 -50 88 0 6 8 13 18 15 9 3 -8 5 -38 6 -41 0 -51 -2
-38 -10z"/>
<path d="M13368 3882 c-60 -37 -75 -137 -27 -188 52 -55 134 -52 184 7 42 51
29 144 -27 183 -29 21 -96 20 -130 -2z m117 -16 c65 -65 27 -199 -57 -199 -47
0 -78 41 -78 104 0 51 20 103 42 112 32 13 70 6 93 -17z"/>
<path d="M13766 3892 c7 -4 13 -47 16 -103 2 -58 9 -103 17 -112 20 -24 64
-29 112 -13 28 10 47 12 53 6 22 -22 26 -5 26 104 0 82 4 116 13 119 6 3 -8 5
-33 5 -25 0 -37 -2 -27 -5 15 -4 17 -17 17 -98 0 -86 -2 -95 -22 -109 -30 -21
-81 -20 -100 2 -24 28 -28 49 -21 127 4 56 10 75 22 78 9 3 -6 5 -34 6 -27 0
-45 -3 -39 -7z"/>
<path d="M14233 3889 c14 -8 17 -25 17 -114 0 -73 -4 -105 -12 -108 -7 -3 7
-5 32 -5 25 0 37 2 28 5 -14 3 -18 15 -18 54 l0 49 34 0 c42 0 66 -29 66 -77
0 -31 2 -33 33 -32 17 1 24 3 15 6 -10 2 -18 13 -18 23 0 31 -22 69 -42 76
-18 5 -17 7 6 29 31 29 33 58 6 85 -16 16 -33 20 -92 20 -55 -1 -69 -3 -55
-11z m117 -19 c38 -38 15 -90 -41 -90 -29 0 -29 1 -29 55 0 52 1 55 25 55 14
0 34 -9 45 -20z"/>
<path d="M14912 3877 c-42 -44 -23 -81 62 -122 49 -24 59 -56 24 -79 -32 -21
-82 -8 -86 22 -2 12 -8 22 -13 22 -8 0 -2 -48 8 -59 2 -3 26 -5 54 -5 42 -1
54 3 70 23 37 46 20 85 -52 115 -51 21 -65 41 -51 71 20 44 85 28 105 -25 3
-8 6 1 6 20 l1 35 -53 3 c-45 2 -56 -1 -75 -21z"/>
<path d="M15720 3873 c-51 -46 -58 -135 -14 -184 27 -30 77 -42 123 -29 57 15
81 50 81 117 0 49 -4 59 -34 89 -29 29 -41 34 -80 34 -36 0 -52 -6 -76 -27z
m129 -7 c52 -56 33 -173 -31 -195 -64 -23 -117 43 -105 131 11 81 87 116 136
64z"/>
<path d="M16143 3889 c14 -8 17 -25 17 -114 0 -73 -4 -105 -12 -108 -7 -3 7
-5 32 -5 25 0 37 2 28 5 -14 3 -18 15 -18 54 0 47 1 49 28 49 42 0 63 -21 69
-68 5 -37 8 -42 32 -41 14 0 20 3 14 6 -7 2 -13 16 -13 30 0 14 -12 37 -29 53
l-28 29 23 22 c29 27 30 53 4 79 -16 16 -33 20 -92 20 -55 -1 -69 -3 -55 -11z
m102 -5 c9 -4 21 -18 26 -32 14 -36 -12 -72 -51 -72 -30 0 -30 1 -30 55 0 58
9 66 55 49z"/>
<path d="M16532 3888 c8 -7 29 -38 47 -69 37 -66 44 -144 14 -152 -10 -3 5 -5
32 -5 28 0 42 2 33 5 -14 3 -18 15 -18 56 0 40 -7 64 -30 102 -35 59 -35 62
-12 68 9 3 -5 5 -32 6 -41 1 -47 -1 -34 -11z"/>
<path d="M16672 3893 c16 -4 15 -9 -8 -55 -14 -27 -23 -52 -20 -55 2 -3 14 14
26 36 11 23 30 51 40 61 20 20 20 20 -17 19 -21 -1 -30 -3 -21 -6z"/>
<path d="M17456 3868 c-81 -82 -35 -213 75 -213 76 0 119 47 119 131 0 39 -5
51 -34 80 -29 29 -41 34 -81 34 -40 0 -52 -5 -79 -32z m135 -4 c32 -34 35
-130 4 -164 -64 -71 -145 -24 -145 84 0 91 85 140 141 80z"/>
<path d="M17878 3893 c8 -3 12 -33 12 -98 0 -51 3 -100 6 -109 11 -29 66 -38
120 -20 33 11 49 13 52 5 2 -6 8 -11 13 -11 5 0 9 49 9 108 0 71 4 112 12 120
9 9 2 12 -32 11 -25 -1 -37 -3 -27 -6 15 -4 17 -18 17 -102 0 -95 -1 -98 -25
-109 -35 -16 -66 -15 -93 4 -20 14 -22 23 -22 109 0 81 2 94 18 98 9 3 -3 5
-28 5 -25 0 -39 -2 -32 -5z"/>
<path d="M18333 3893 c15 -4 17 -18 17 -113 0 -77 -4 -110 -12 -113 -7 -3 7
-6 32 -6 35 0 41 2 28 10 -13 7 -18 23 -18 54 0 44 1 45 33 45 43 0 67 -26 67
-73 0 -35 2 -37 33 -36 17 1 24 3 15 6 -12 3 -18 14 -18 34 0 19 -10 40 -26
56 -25 25 -25 25 -5 40 29 19 28 67 -1 87 -16 11 -44 16 -93 15 -38 -1 -62 -3
-52 -6z m115 -19 c44 -30 21 -94 -33 -94 l-35 0 0 55 c0 51 2 55 23 55 12 0
33 -7 45 -16z"/>
<path d="M19016 3881 c-22 -24 -24 -67 -4 -87 7 -8 34 -24 58 -36 38 -19 45
-28 45 -52 0 -35 -25 -47 -72 -34 -24 6 -33 15 -36 36 -4 25 -4 24 -6 -6 -1
-27 4 -34 26 -43 64 -24 127 14 121 73 -3 29 -9 36 -60 60 -52 25 -58 31 -58
58 0 23 5 31 24 36 36 9 63 -4 75 -34 9 -27 9 -27 10 8 l1 35 -53 3 c-43 2
-57 -1 -71 -17z"/>
<path d="M19803 3893 c15 -4 17 -18 17 -113 0 -77 -4 -110 -12 -113 -7 -3 7
-5 32 -5 25 0 37 2 28 5 -14 3 -18 15 -18 54 l0 49 34 0 c42 0 66 -29 66 -77
0 -31 2 -33 33 -32 17 1 24 3 15 6 -12 3 -18 14 -18 34 0 29 -30 69 -51 69 -7
0 0 11 15 25 15 13 26 35 26 49 0 40 -34 56 -115 55 -38 -1 -62 -3 -52 -6z
m117 -23 c38 -38 18 -90 -35 -90 l-35 0 0 55 c0 52 1 55 25 55 14 0 34 -9 45
-20z"/>
<path d="M20311 3883 c-5 -10 -26 -58 -46 -108 -20 -49 -44 -96 -53 -102 -13
-11 -10 -13 24 -12 21 1 31 3 21 6 -18 5 -18 12 4 71 7 18 16 22 49 22 33 0
42 -4 49 -22 22 -59 22 -66 4 -71 -10 -3 5 -5 32 -6 36 0 45 2 34 9 -9 5 -34
59 -55 120 -22 60 -42 110 -46 110 -4 0 -12 -8 -17 -17z m22 -68 l16 -45 -35
0 c-19 0 -34 4 -34 9 0 12 29 81 34 81 2 0 11 -20 19 -45z"/>
<path d="M21504 3890 c-86 -35 -85 -190 1 -226 44 -18 77 -18 120 0 26 11 35
21 35 38 0 13 5 29 12 36 9 9 2 12 -32 11 -25 -1 -37 -3 -27 -6 12 -3 17 -14
17 -38 0 -25 -5 -34 -22 -39 -40 -10 -56 -7 -87 20 -55 46 -59 128 -9 181 40
42 131 24 141 -30 2 -12 5 -2 5 23 1 25 -2 40 -6 33 -5 -8 -13 -9 -22 -3 -18
12 -98 12 -126 0z"/>
<path d="M21886 3892 c7 -4 28 -37 48 -73 41 -75 49 -144 19 -152 -10 -3 5 -5
32 -5 28 0 42 2 33 5 -32 8 -24 95 14 164 18 32 39 60 48 63 8 2 -3 4 -25 5
-28 0 -36 -2 -25 -9 12 -8 11 -15 -8 -54 -12 -26 -25 -46 -30 -46 -7 0 -52 82
-52 95 0 2 8 6 18 8 9 3 -5 5 -33 6 -27 0 -45 -3 -39 -7z"/>
<path d="M16910 3677 c0 -7 5 -18 12 -25 9 -9 7 -17 -8 -34 -16 -19 -16 -21
-1 -9 29 23 40 50 26 67 -14 18 -29 18 -29 1z"/>
</g>
</svg>
