<?xml version="1.0" encoding="utf-8"?>
<!DOCTYPE svg PUBLIC "-//W3C//DTD SVG 1.0//EN" "http://www.w3.org/TR/2001/REC-SVG-20010904/DTD/svg10.dtd">
<svg version="1.0" xmlns="http://www.w3.org/2000/svg" width="1000px" height="1000px" viewBox="0 0 1000 1000" preserveAspectRatio="xMidYMid meet">
 <g fill="#f8f4ef">
  <path d="M0 500 l0 -500 500 0 500 0 0 500 0 500 -500 0 -500 0 0 -500z m460.90 172.40 c-0.20 -1.30 -1.50 -2.15 -2.65 -1.70 -0.85 0.30 -0.80 0.40 0.25 1.55 l1.20 1.25 -1.10 1.50 c-1.70 2.25 -1.30 2.45 0.70 0.35 1.10 -1.20 1.70 -2.30 1.60 -2.95z m332.10 -0.25 c2.10 -0.85 2.50 -1.40 2.50 -3.50 0 -0.90 0.25 -1.65 0.50 -1.65 0.30 0 0.50 -0.20 0.50 -0.50 0 -0.65 -5.85 -0.65 -6.25 -0.05 -0.15 0.25 0.35 0.55 1.10 0.65 1.20 0.15 1.40 0.40 1.55 1.90 0.20 2.15 -0.80 3 -3.75 3 -2.95 0 -4.95 -1.15 -6.15 -3.50 -2.10 -4.15 -0.80 -10.05 2.70 -11.70 2.15 -1 3.05 -1 5.65 0.15 1.75 0.80 2.10 1.25 2.25 2.65 0.25 2.70 1.15 1.90 1.30 -1.20 0.10 -1.65 -0.05 -2.90 -0.35 -2.90 -0.25 0 -0.55 0.20 -0.65 0.50 -0.10 0.25 -1.15 0.10 -2.50 -0.35 -4.35 -1.40 -8.75 0.10 -11.30 3.85 -1 1.50 -1.15 2.20 -1 5.10 0.20 3.55 1 5.20 3.50 7.05 2.50 1.85 6.60 2.05 10.40 0.50z m-606.75 0.35 c0.20 -0.30 -0.25 -0.50 -0.95 -0.50 -1.30 0 -1.30 -0.05 -1.30 -3.80 0 -3.45 0.15 -4.10 1.85 -7.10 1.05 -1.85 2.40 -3.85 3.05 -4.45 1.40 -1.30 1 -1.55 -1.90 -1.10 -1.85 0.25 -2.05 0.40 -1.15 0.70 l1.10 0.35 -1.75 3.45 c-0.95 1.90 -1.80 3.45 -1.95 3.45 -0.15 0 -1.05 -1.55 -2 -3.50 -1.65 -3.25 -1.70 -3.50 -0.75 -3.50 0.55 0 1 -0.20 1 -0.50 0 -0.30 -1.45 -0.50 -3.35 -0.50 -3.30 0 -3.35 0.05 -2.35 0.90 0.60 0.45 2.10 2.75 3.40 5.05 2.15 3.90 2.35 4.45 2.20 7.25 -0.15 2.75 -0.25 3.05 -1.30 3.20 -0.60 0.10 -1 0.40 -0.85 0.65 0.40 0.60 6.60 0.60 7 -0.05z m28.90 -0.20 c7.25 -3.10 6.55 -14.75 -1.10 -16.80 -5.60 -1.50 -11 2.80 -11.05 8.90 0 3.50 2.35 7.05 5.50 8.25 1.45 0.55 5.05 0.35 6.65 -0.35z m31.70 -0.25 l2.10 -0.95 0.70 1.05 c0.40 0.60 0.85 1 1 0.85 0.15 -0.15 0.45 -3.90 0.65 -8.40 0.20 -4.45 0.55 -8.10 0.75 -8.10 0.25 0 0.45 -0.20 0.45 -0.50 0 -0.25 -1.25 -0.50 -2.75 -0.50 -1.50 0 -2.75 0.25 -2.75 0.50 0 0.30 0.45 0.50 1 0.50 0.95 0 1 0.35 1 6.75 l0 6.70 -1.50 0.80 c-2.35 1.20 -5.80 1 -7.25 -0.50 -1.20 -1.15 -1.25 -1.50 -1.25 -7.50 l0 -6.25 1.25 0 c0.70 0 1.25 -0.20 1.25 -0.50 0 -0.30 -1.40 -0.50 -3.25 -0.50 -1.85 0 -3.25 0.20 -3.25 0.50 0 0.30 0.30 0.50 0.70 0.50 0.60 0 0.75 1.35 0.90 7.05 0.15 7 0.15 7.05 1.55 8.25 1.75 1.50 5.60 1.60 8.70 0.25z m27.15 0.50 c0 -0.25 -0.45 -0.55 -1 -0.70 -0.85 -0.20 -1 -0.70 -1 -3.55 l0 -3.30 2.15 0 c3.25 0 4.05 0.85 4.35 4.60 l0.25 3.15 2.15 0.15 c2.15 0.15 2.90 -0.55 1.10 -1.05 -0.80 -0.20 -1 -0.70 -1 -2.25 0 -2.15 -1.35 -4.35 -3.05 -4.85 -1 -0.35 -0.95 -0.40 0.50 -1.65 0.90 -0.80 1.70 -2.05 1.85 -2.95 0.25 -1.35 0.05 -1.85 -1.20 -3.15 -1.50 -1.45 -1.60 -1.50 -6.55 -1.50 -3.05 0 -5.05 0.20 -5.05 0.50 0 0.30 0.45 0.50 1 0.50 0.95 0 1 0.35 1 7.75 0 6.55 -0.10 7.75 -0.75 7.75 -0.40 0 -0.75 0.25 -0.75 0.50 0 0.30 1.35 0.50 3 0.50 1.65 0 3 -0.20 3 -0.45z m50 -0.30 c1.75 -0.90 2.50 -2.15 2.50 -4.10 0 -2.15 -1.35 -3.65 -4.45 -5 -3.40 -1.50 -4.55 -2.45 -4.55 -3.90 0 -1.80 1.20 -2.95 3.15 -2.95 2.15 0 3.85 1.35 3.85 3.05 0 0.60 0.25 1.15 0.50 1.15 0.45 0 0.55 -0.60 0.70 -3.85 0.05 -0.60 -0.30 -0.90 -0.95 -0.90 -0.55 -0.05 -1.75 -0.20 -2.60 -0.45 -3.35 -0.80 -7.15 1.70 -7.15 4.75 0 2 1.85 3.85 5.55 5.65 2.70 1.30 3.25 1.75 3.35 2.95 0.35 2.85 -2.20 4.05 -5.80 2.80 -1.25 -0.40 -1.55 -0.85 -1.70 -2.10 -0.10 -0.90 -0.35 -1.55 -0.65 -1.45 -0.80 0.25 -0.30 3.80 0.60 4.50 1.15 0.85 5.90 0.75 7.65 -0.15z m28.25 0.25 c0.15 -0.25 -0.15 -0.50 -0.70 -0.50 -0.55 0 -1.10 -0.20 -1.30 -0.50 -0.15 -0.25 -0.15 -3.75 0.05 -7.75 l0.35 -7.25 2.70 0 c2.50 0 2.65 0.05 2.65 1.25 0 0.70 0.25 1.25 0.50 1.25 0.30 0 0.50 -0.20 0.50 -0.45 0 -0.25 0.15 -1.05 0.30 -1.85 l0.30 -1.45 -8.45 0.10 -8.40 0.10 -0.30 1.50 c-0.20 0.85 -0.20 1.65 -0.05 1.80 0.55 0.55 1.05 0.20 1.20 -0.85 0.15 -1 0.50 -1.15 3.05 -1.30 l2.90 -0.15 -0.15 7.65 c-0.15 7.50 -0.15 7.65 -1.30 7.80 -0.60 0.10 -1 0.40 -0.85 0.65 0.40 0.60 6.60 0.60 7 -0.05z m30.10 -0.05 c7.05 -2.65 7.25 -13.45 0.25 -16.55 -4.15 -1.85 -9 0.05 -11.05 4.20 -3.55 7.40 3.25 15.20 10.80 12.35z m26.90 0.05 c0.15 -0.25 -0.05 -0.50 -0.45 -0.50 -1.05 0 -1.20 -0.35 -1.60 -3.90 l-0.35 -3.10 2.50 0 c3.30 0 4.25 1.05 4.55 5 l0.20 3 1.95 0 c2.05 0 3.05 -0.75 1.50 -1.15 -0.65 -0.15 -1 -0.85 -1.20 -2.40 -0.20 -1.65 -0.70 -2.60 -2 -3.80 l-1.75 -1.55 1.45 -1.40 c1.75 -1.65 1.95 -4 0.50 -5.75 -0.90 -1.10 -1.40 -1.20 -6.50 -1.35 -3.75 -0.15 -5.55 0 -5.55 0.35 0 0.30 0.40 0.55 0.95 0.55 1.15 0 1.55 2.50 1.55 9.85 0 4.80 -0.10 5.25 -1 5.50 -0.55 0.15 -1 0.45 -1 0.70 0 0.60 5.85 0.55 6.25 -0.05z m32.50 0.05 c0.15 -0.25 -0.25 -0.55 -0.85 -0.65 -1.05 -0.15 -1.15 -0.45 -1.30 -3.75 -0.15 -3.45 -0.05 -3.80 1.95 -7.45 1.15 -2.10 2.55 -3.95 3.05 -4.10 1.80 -0.45 0.85 -1.10 -1.60 -1.10 -1.35 0 -2.50 0.25 -2.50 0.50 0 0.30 0.45 0.50 1 0.50 0.95 0 0.90 0.25 -0.75 3.50 -0.95 1.95 -1.85 3.50 -1.95 3.50 -0.25 0 -3.80 -6.30 -3.80 -6.70 0 -0.15 0.45 -0.30 1.05 -0.30 0.55 0 0.95 -0.25 0.85 -0.60 -0.15 -0.40 -1.30 -0.55 -3.45 -0.45 -3.45 0.15 -4.30 0.40 -2.60 0.85 0.65 0.20 1.95 1.90 3.60 4.90 2.25 4.05 2.55 4.95 2.55 7.50 0 2.45 -0.15 2.95 -1 3.15 -0.55 0.15 -1 0.45 -1 0.70 0 0.60 6.35 0.60 6.75 0z m65.65 -1 c4.50 -3.20 4.80 -10.45 0.65 -14.20 -6.35 -5.70 -16.25 0.85 -14 9.35 0.60 2.35 2.50 4.60 4.70 5.60 2.25 1.05 6.70 0.65 8.65 -0.75z m30.05 0.45 l2.20 -1 0.70 1 c0.40 0.55 0.95 0.90 1.20 0.75 0.25 -0.20 0.45 -3.75 0.45 -8 0 -6.80 0.10 -7.75 0.85 -8.20 1.45 -0.80 0.45 -1.10 -2.65 -0.90 -2.25 0.10 -2.65 0.25 -1.80 0.55 1.05 0.40 1.10 0.60 1.10 7.05 0 7.70 -0.05 7.85 -4.40 8.10 -4.80 0.30 -5.55 -1.10 -5.20 -9.70 0.20 -4.65 0.30 -5.15 1.15 -5.15 0.55 0 0.95 -0.20 0.95 -0.50 0 -0.30 -1.35 -0.50 -3 -0.50 -1.65 0 -3 0.20 -3 0.50 0 0.30 0.35 0.50 0.75 0.50 0.65 0 0.75 1.05 0.75 6.50 0 6.80 0.40 8.55 2.20 9.40 1.70 0.85 5.40 0.65 7.75 -0.40z m27.30 0.50 c0.15 -0.25 -0.10 -0.50 -0.65 -0.50 -0.75 0 -1.05 -0.45 -1.30 -2.30 -0.60 -4.65 -0.60 -4.70 2.10 -4.70 3.25 0 4.20 1.05 4.50 5 l0.20 3 1.95 0 c1.05 0 2.05 -0.20 2.20 -0.50 0.15 -0.25 -0.15 -0.50 -0.65 -0.50 -0.80 0 -1 -0.45 -1.25 -2.35 -0.20 -1.90 -0.60 -2.70 -2 -3.95 l-1.75 -1.60 1.45 -1.40 c1.75 -1.65 1.95 -4 0.50 -5.75 -0.90 -1.10 -1.40 -1.20 -6.50 -1.35 -3.75 -0.15 -5.55 0 -5.55 0.35 0 0.30 0.40 0.55 0.95 0.55 0.85 0 0.95 0.55 1.25 5.15 0.50 7.55 0.30 9.95 -0.80 10.25 -0.50 0.10 -0.75 0.40 -0.60 0.65 0.35 0.60 5.55 0.55 5.95 -0.05z m50.65 -0.75 c1.90 -1.60 2.40 -3.70 1.40 -5.65 -0.70 -1.40 -1.75 -2.05 -5.95 -3.80 -2.90 -1.20 -3.45 -4.05 -1.05 -5.65 1.95 -1.25 5.30 0.25 5.40 2.40 0 0.60 0.35 1.20 0.70 1.35 0.40 0.10 0.60 -0.55 0.60 -2.30 0 -2.75 0.40 -2.50 -5.10 -2.75 -2 -0.05 -2.60 0.15 -3.90 1.40 -1.20 1.15 -1.50 1.85 -1.50 3.55 0 1.85 0.25 2.30 1.65 3.35 0.85 0.65 2.40 1.50 3.35 1.85 2.25 0.85 4 2.40 4 3.60 0 0.50 -0.50 1.40 -1.05 1.95 -0.85 0.85 -1.50 1 -3.25 0.80 -2.75 -0.30 -3.70 -1.05 -3.70 -2.90 0 -0.80 -0.20 -1.45 -0.50 -1.45 -0.25 0 -0.50 1 -0.50 2.25 0 2.70 0.70 3.15 5.10 3.20 2.30 0.05 3.10 -0.15 4.30 -1.20z m27.60 0.75 c0 -0.25 -0.45 -0.50 -1 -0.50 -0.95 0 -1 -0.35 -1 -7.75 l0 -7.75 3 0 c2.85 0 3 0.05 3 1.25 0 0.70 0.25 1.25 0.50 1.25 0.30 0 0.50 -0.85 0.50 -1.85 l0 -1.90 -8.25 0 c-4.55 0 -8.25 0.15 -8.25 0.30 0 0.20 -0.15 1.05 -0.30 1.90 -0.40 1.90 0.65 2.15 1.10 0.30 0.30 -1.15 0.55 -1.25 3.25 -1.25 l2.95 0 0 6.20 c0 7.55 -0.30 9.30 -1.55 9.30 -0.55 0 -0.95 0.25 -0.95 0.50 0 0.30 1.50 0.50 3.50 0.50 2 0 3.50 -0.20 3.50 -0.50z m25.75 0 c0.15 -0.25 -0.15 -0.50 -0.70 -0.50 -0.95 0 -1.05 -0.30 -1.05 -3.50 l0 -3.50 2.15 0 c2.95 0 4 1.25 4.35 4.95 0.25 2.65 0.35 2.80 1.65 2.95 0.80 0.10 1.80 0 2.25 -0.15 0.75 -0.30 0.70 -0.40 -0.25 -0.80 -0.80 -0.30 -1.15 -0.85 -1.15 -1.70 0 -2.10 -1.35 -4.70 -2.75 -5.35 l-1.30 -0.55 1.55 -1.40 c2.05 -1.90 2.15 -4.90 0.20 -6.40 -1.15 -0.90 -2.05 -1.05 -6.50 -1.05 -3.15 0 -5.20 0.20 -5.20 0.50 0 0.30 0.45 0.50 0.95 0.50 1.40 0 1.55 0.90 1.55 8.35 0 6.30 -0.05 6.75 -1 7 -0.55 0.15 -0.85 0.45 -0.70 0.70 0.35 0.60 5.55 0.55 5.95 -0.05z m27.50 0 c0.15 -0.25 -0.10 -0.50 -0.65 -0.50 -1.50 0 -1.55 -0.40 -0.45 -3.25 l1.05 -2.65 2.55 -0.20 c2.95 -0.25 3.35 0.05 4.40 3.30 0.80 2.30 0.80 2.40 -0.15 2.65 -2 0.55 -0.90 1.15 2 1.15 2.90 0 3.75 -0.50 2.30 -1.35 -0.60 -0.35 -2.15 -4.25 -5.85 -14.75 -0.35 -1.05 -0.80 -1.90 -1.05 -1.90 -0.45 0 -3.50 6.35 -5.95 12.45 -1.05 2.60 -2.05 4.30 -2.55 4.45 -0.50 0.10 -0.75 0.40 -0.60 0.65 0.35 0.60 4.55 0.55 4.95 -0.05z m35 0 c0.20 -0.30 -0.25 -0.50 -0.95 -0.50 l-1.30 0 0 -5.10 c0 -2.85 0.15 -6.35 0.30 -7.75 l0.35 -2.65 2.65 0 c2.55 0 2.70 0.05 2.70 1.25 0 0.70 0.25 1.25 0.50 1.25 0.30 0 0.50 -0.85 0.50 -1.85 l0 -1.90 -8.25 0 c-8.15 0 -8.25 0 -8.25 1.10 0 0.60 -0.15 1.40 -0.30 1.85 -0.15 0.45 -0.05 0.80 0.25 0.80 0.30 0 0.80 -0.55 1.05 -1.25 0.45 -1.15 0.75 -1.25 3.25 -1.25 l2.80 0 -0.15 7.65 c-0.15 7.45 -0.15 7.60 -1.30 7.75 -0.60 0.10 -1 0.40 -0.85 0.65 0.40 0.60 6.60 0.60 7 -0.05z m32.75 -1.80 c0 -1.35 -0.20 -2.15 -0.50 -1.95 -0.25 0.15 -0.50 0.85 -0.50 1.55 0 1.15 -0.10 1.20 -4 1.20 l-4 0 0 -3.50 0 -3.50 2.75 0 c2.40 0 2.75 0.10 2.75 1 0 0.55 0.25 1 0.50 1 0.30 0 0.50 -1.10 0.50 -2.50 0 -2.50 -0.65 -3.35 -1.15 -1.50 -0.20 0.85 -0.70 1 -2.80 1 l-2.55 0 0 -3.50 0 -3.50 3.25 0 c3.15 0 3.25 0.05 3.25 1.30 0 2.05 1.25 1.15 1.40 -1.05 0.15 -1.90 0.15 -1.90 -1.45 -1.55 -0.85 0.15 -3.70 0.30 -6.25 0.30 -4.35 0 -6.05 0.55 -3.70 1.15 1 0.25 1 0.60 0.90 7.70 -0.15 7.25 -0.15 7.40 -1.30 7.55 -0.60 0.10 -1 0.40 -0.85 0.65 0.20 0.25 3.35 0.45 7.05 0.45 l6.70 0 0 -2.30z m57.25 1.80 c0.20 -0.30 -0.25 -0.50 -0.95 -0.50 -1.30 0 -1.30 -0.05 -1.30 -3.75 0 -3.50 0.15 -4.05 2.05 -7.40 1.10 -2 2.50 -3.95 3.05 -4.40 1.35 -1.05 0.70 -1.30 -2.10 -0.90 -1.85 0.25 -2.05 0.40 -1.15 0.70 l1.10 0.35 -1.75 3.45 c-0.95 1.90 -1.80 3.45 -1.95 3.45 -0.15 0 -1.05 -1.55 -2 -3.50 -1.65 -3.25 -1.70 -3.50 -0.75 -3.50 0.55 0 1 -0.20 1 -0.45 0 -0.55 -6 -0.95 -6.35 -0.40 -0.10 0.20 0.10 0.50 0.55 0.65 0.40 0.15 1.85 2.30 3.25 4.75 2.30 4 2.55 4.75 2.55 7.50 0 2.60 -0.15 3.10 -1 3.30 -0.55 0.15 -1 0.45 -1 0.70 0 0.60 6.35 0.55 6.75 -0.05z m-237.65 -51.80 l4.35 -0.35 0.80 -2.80 c3.80 -13.40 11.30 -37.50 20.50 -65.80 1.75 -5.45 1.70 -5.50 2.50 0.75 1.35 10.80 1.90 22.35 2.05 44 l0.20 23.75 8.25 0.15 c7.75 0.10 8.25 0.05 8.25 -0.80 0 -0.50 -0.35 -3.30 -0.75 -6.25 -2.65 -18.75 -5.45 -60.70 -5.20 -77.85 0.10 -6.85 0.05 -7.25 -0.85 -7.15 -0.50 0.05 -4.80 0.45 -9.55 0.95 l-8.55 0.85 -1.60 6.30 c-1.95 7.95 -7.10 26.05 -10.75 37.80 -4.90 15.80 -10.40 32.75 -10.70 32.75 -0.65 0 -23.15 -66.60 -24.60 -72.90 -0.60 -2.65 -1.30 -5.05 -1.50 -5.25 -0.30 -0.40 -14.15 0.40 -16.90 0.95 -1.10 0.25 -1.15 0.40 -0.80 2.60 0.20 1.30 0.35 9.45 0.30 18.10 -0.05 21.15 -0.90 36 -3.30 57.80 -0.70 6.10 -1.25 11.35 -1.25 11.65 0 0.40 2 0.55 6.45 0.55 l6.45 0 -0.10 -21.60 c-0.05 -23.15 1 -54.10 1.85 -52.60 1.95 3.45 21.50 61.65 23.40 69.70 0.60 2.35 1.15 4.55 1.25 4.95 0.15 0.50 0.85 0.60 2.85 0.40 1.40 -0.15 4.55 -0.45 6.95 -0.65z m-475.10 -0.60 c0 -0.25 -0.40 -2.75 -0.85 -5.65 -0.80 -4.60 -0.90 -9.40 -0.90 -40.80 0 -19.55 0.20 -35.75 0.40 -35.95 0.80 -0.80 15.60 1.40 23.90 3.55 l1.35 0.35 0.40 -5.45 c0.20 -2.95 0.40 -5.60 0.45 -5.80 0 -0.25 -14.95 -0.45 -33.25 -0.45 l-33.25 0 0.15 5.45 c0.10 2.95 0.35 5.55 0.50 5.75 0.20 0.20 1.70 0 3.35 -0.40 5.10 -1.20 13.30 -2.60 17.55 -2.95 l4.05 -0.35 0.30 3.40 c0.50 5.15 0.40 64.20 -0.10 69.70 -0.25 2.60 -0.60 5.95 -0.80 7.40 l-0.40 2.60 8.60 0 c4.70 0 8.55 -0.20 8.55 -0.40z m53.75 -1.45 c-0.90 -5.45 -1.30 -11.85 -1.60 -26 l-0.30 -15.65 20.40 0 20.40 0 -0.35 15.65 c-0.30 14.60 -0.70 21.45 -1.55 26 l-0.35 1.85 8.85 0 8.85 0 -0.30 -1.10 c-1.40 -5.20 -1.55 -9.20 -1.55 -44.40 0.05 -31.15 0.15 -36.80 0.85 -40.25 0.40 -2.20 0.70 -4.15 0.55 -4.35 -0.10 -0.25 -4.05 -0.40 -8.70 -0.40 l-8.55 0 0.30 1.90 c0.95 5.45 1.30 11.15 1.60 23.50 l0.35 13.60 -20.40 0 -20.40 0 0.30 -12.85 c0.30 -11.85 0.85 -20.35 1.65 -24.50 l0.30 -1.65 -8.65 0.10 c-8.35 0.15 -8.70 0.20 -8.60 1.15 0.10 0.55 0.40 2.70 0.75 4.75 0.50 2.75 0.65 13 0.65 39.25 0 34.25 -0.15 39.15 -1.55 44.15 l-0.30 1.10 8.85 0 8.85 0 -0.35 -1.85z m137.10 -4.10 c0.65 -3.15 1.05 -5.80 0.95 -5.95 -0.15 -0.10 -1.65 0.25 -3.40 0.85 -5.90 1.90 -11.65 2.65 -23.75 2.90 -8.95 0.20 -11.80 0.15 -12.40 -0.35 -0.65 -0.55 -0.75 -3.10 -0.75 -17.90 l0 -17.25 12.40 0.30 c6.80 0.15 12.80 0.35 13.30 0.45 0.80 0.10 1.30 -0.60 2.60 -3.60 0.90 -2.05 1.65 -4.05 1.65 -4.45 0.05 -0.60 -2.25 -0.65 -14.95 -0.40 l-15 0.30 0.10 -15.85 0.15 -15.85 11.75 0.05 c8.90 0 12.80 0.25 16.20 0.90 2.40 0.45 4.50 0.75 4.60 0.65 0.25 -0.25 3.20 -8.90 3.20 -9.35 0 -0.30 -51.55 -0.05 -51.90 0.25 -0.05 0.05 0.25 2.20 0.75 4.80 0.80 4.20 0.90 8.30 0.90 40.20 0 31.70 -0.10 36 -0.85 40.15 -0.50 2.50 -0.90 4.70 -0.90 4.85 0 0.15 12.20 0.20 27.10 0.15 l27.10 -0.15 1.15 -5.70z m65.50 4.85 c-1.65 -7.20 -1.85 -9.45 -1.85 -22.45 0 -7.45 0.20 -13.40 0.40 -13.25 0.25 0.15 2.70 0.50 5.55 0.75 12.60 1.30 24.25 -2.20 31.55 -9.45 3.85 -3.85 5.65 -7 7 -12.30 3.40 -13.30 -1.65 -24.95 -12.80 -29.40 -6.75 -2.75 -9.90 -3.05 -29.45 -3.05 -14.15 0 -17.95 0.15 -17.85 0.65 1.90 9.50 1.85 8.80 1.85 44.60 0 31.65 -0.10 35.10 -0.90 38.50 -0.50 2.05 -1 4.35 -1.20 5.15 l-0.25 1.35 9.10 0 9.10 0 -0.25 -1.10z m80.15 0.70 c0 -0.20 -0.35 -1.95 -0.80 -3.85 -0.60 -2.65 -0.85 -7.50 -1.05 -20.15 l-0.25 -16.65 1.90 0.15 c1.90 0.15 2 0.25 13.30 16.15 6.30 8.80 12.70 17.95 14.30 20.35 l2.85 4.40 10.65 0 c11.60 0 12.65 -0.30 8.35 -2.40 -3.20 -1.55 -9.45 -7.70 -16.25 -16.10 -12.35 -15.10 -18 -22.50 -17.40 -22.70 0.35 -0.10 2.25 -0.55 4.15 -1 9.40 -2.20 16.75 -8.55 19.80 -17.10 1.50 -4 1.60 -12.20 0.30 -16.25 -2.70 -8.20 -10.40 -13.10 -22.65 -14.45 -4.25 -0.45 -33.35 -0.60 -34.25 -0.15 -0.20 0.05 0.05 1.65 0.50 3.50 0.70 3 0.80 8 0.80 40.65 0 39.20 0.10 37.40 -2.05 44.90 l-0.30 1.10 9.05 0 c4.95 0 9.05 -0.15 9.05 -0.40z m262.90 -1.95 c1.15 -5.30 1.75 -9.15 1.50 -9.40 -0.15 -0.20 -1.60 0.15 -3.20 0.70 -5.80 1.95 -11.50 2.65 -23.70 2.85 -6.65 0.15 -12.05 0.05 -12.40 -0.20 -0.50 -0.35 -0.75 -4.30 -0.95 -17.85 l-0.30 -17.35 12.45 0.25 c6.85 0.15 12.90 0.40 13.50 0.60 0.95 0.30 1.25 -0.15 2.85 -3.90 1.05 -2.35 1.85 -4.45 1.85 -4.65 0 -0.20 -6.90 -0.20 -15.30 -0.05 l-15.25 0.30 0.15 -15.50 c0.15 -13.10 0.25 -15.55 0.90 -16 1.15 -0.75 22.85 -0.20 27.75 0.75 2.20 0.45 4.15 0.80 4.30 0.80 0.25 0 1.85 -4.40 3.15 -8.80 l0.30 -1.05 -25.85 0.25 c-14.25 0.10 -26 0.30 -26.10 0.40 -0.05 0.05 0.25 2.80 0.75 6.05 0.85 5.30 0.95 9.20 0.95 39.15 0 29.15 -0.15 33.90 -0.90 38.45 -0.45 2.90 -0.85 5.50 -0.85 5.90 0 0.55 4.90 0.65 26.95 0.65 l26.95 0 0.50 -2.35z m64.10 1.20 c9.15 -2.25 13.95 -4.75 19.55 -10.35 3.40 -3.35 4.75 -5.20 6.55 -8.75 4.35 -8.50 6 -16.50 5.95 -28.50 -0.05 -11.70 -1.90 -19 -6.65 -26.05 -5.65 -8.40 -15.30 -13.60 -28.40 -15.15 -4.75 -0.60 -41.40 -0.65 -41.75 -0.05 -0.05 0.15 0.15 1.85 0.55 3.75 2.20 11.25 2.20 69.60 0 81.75 -0.35 2.05 -0.55 3.95 -0.45 4.15 0.15 0.25 9.50 0.35 20.85 0.20 16.40 -0.20 21.20 -0.40 23.80 -1z m69.30 -1.15 c-2.20 -16.05 -2.20 -69.90 0 -85.80 l0.35 -2.40 -8.65 0 -8.65 0 0.30 2.15 c1.45 9.85 1.55 12.95 1.55 43.10 0 30 -0.10 33.40 -1.55 43.15 l-0.30 2.10 8.65 0 8.65 0 -0.35 -2.30z m28.40 -2.80 c0.30 -5.10 1.80 -13.05 3.95 -21.65 l1.15 -4.50 14.45 0 14.45 0 3.70 11.25 c3.15 9.45 3.75 11.95 4 15.65 l0.25 4.35 10.90 0 c6.95 0 10.95 -0.20 10.95 -0.50 0 -0.25 -1.10 -1.90 -2.45 -3.55 -3.35 -4.10 -5.25 -7.90 -9.70 -19.20 -7.50 -19 -19.80 -54.80 -21.95 -63.85 -0.95 -4.20 -1.30 -4.90 -2.15 -4.90 -0.55 0 -3.90 0.35 -7.50 0.75 -3.55 0.40 -6.55 0.75 -6.55 0.75 -0.05 0 -0.20 0.85 -0.40 1.95 -0.90 5.85 -18.15 61.10 -22.35 71.70 -2.50 6.25 -5.20 11.60 -7 13.90 -0.80 1 -1.45 2.10 -1.45 2.40 0 0.40 2.65 0.55 8.65 0.55 l8.70 0 0.35 -5.10z m-334.15 -147.40 c3.55 -1 3.35 -0.25 6.20 -26.15 1.45 -12.95 2.80 -25.20 3 -27.10 0.30 -3.45 0.35 -3.55 2.30 -4.65 2.55 -1.45 4.30 -4.20 4.95 -7.60 1 -5.45 4 -30.40 4 -33.25 0 -3.70 -1.35 -6.60 -4.25 -9.15 -2.65 -2.35 -5 -3.10 -9.65 -3.10 l-3.55 0 -3.10 3.90 c-4.45 5.50 -5.50 6.55 -6.20 6.30 -0.35 -0.15 -2.40 -2.50 -4.60 -5.25 l-3.90 -4.95 -4.15 0 c-5.20 0 -6.10 0.45 -11.85 5.95 -2.45 2.35 -5.45 5.15 -6.60 6.25 l-2.10 1.95 -4 -2.85 c-2.20 -1.55 -4.30 -2.80 -4.60 -2.80 -1.30 0 -9.95 5.60 -9.95 6.45 0 0.90 13.85 14.40 15.85 15.45 1.40 0.75 4 0.75 5.75 -0.05 0.75 -0.35 3.60 -2.70 6.35 -5.25 l5 -4.60 0.30 2.10 c0.15 1.20 2.20 20.05 4.50 41.90 2.35 21.85 4.40 40.70 4.55 41.85 0.35 2.30 2.05 4.45 3.85 4.80 2.25 0.45 10.15 0.35 11.90 -0.15z m-66.10 -94.30 c0.60 -0.75 1.05 -1.80 1.05 -2.40 0 -0.85 2.35 -2.50 11.40 -8.05 7.85 -4.85 11.75 -6.95 12.60 -6.85 3.45 0.35 4.20 0.20 5.10 -0.90 0.50 -0.60 0.90 -1.80 0.90 -2.70 -0.05 -2.60 -1.80 -9.30 -2.75 -10.30 -1.20 -1.30 -3.95 -1.30 -5.25 0 -1 1 -1.05 0.95 -14.55 -0.75 -12.70 -1.60 -13.65 -1.80 -14.70 -2.95 -2.35 -2.50 -5.80 -1.95 -6.55 1.05 -0.25 0.85 0.75 6.60 2.80 16.05 3.75 17.70 3.80 17.95 4.90 18.55 1.65 1 3.95 0.65 5.05 -0.75z m-15.85 -5.75 c3.85 -2.55 4.70 -3.60 4.10 -5.10 -0.65 -1.75 -2.20 -1.50 -6.20 1.15 -2.15 1.40 -4.05 2.90 -4.20 3.30 -0.45 1.20 0.70 2.90 2.15 3.15 0.15 0.05 2 -1.10 4.15 -2.50z m-3.80 -6.75 c4.90 -1 5.70 -1.40 5.70 -2.90 0 -2.15 -1.10 -2.55 -5.40 -1.85 -4.50 0.75 -6.10 1.60 -6.10 3.30 0 0.90 0.90 2.05 1.80 2.25 0.05 0 1.85 -0.35 4 -0.80z m4.25 -7.70 c1.10 -0.60 1.25 -2.60 0.25 -3.45 -0.40 -0.30 -2.65 -0.85 -5.05 -1.15 -4.10 -0.55 -4.40 -0.55 -5.05 0.35 -0.85 1.15 -0.85 1.35 -0.05 2.45 0.45 0.60 1.90 1.15 4.15 1.55 4.55 0.85 4.60 0.85 5.75 0.25z m82.15 -2.20 c9.90 -4.85 11.05 -19.10 2 -25.30 -2.75 -1.90 -7.60 -3.20 -10.35 -2.75 -7.65 1.25 -13 7.30 -13.05 14.75 0 3.60 0.65 5.65 2.80 8.85 3.90 5.75 11.95 7.70 18.60 4.45z"/>
  <path d="M208.70 671.10 c-1.80 -1.40 -2.85 -4.10 -2.85 -7.15 0 -3.35 1.15 -5.70 3.60 -7.15 1.40 -0.80 1.90 -0.85 3.55 -0.35 2.65 0.80 4.05 2.85 4.35 6.50 0.35 3.60 -0.45 6.10 -2.40 7.80 -1.80 1.50 -4.65 1.65 -6.25 0.35z"/>
  <path d="M272 660.25 l0 -3.75 1.70 0 c3.45 0 5.35 3.50 3.30 6.15 -0.85 1.05 -1.50 1.35 -3.05 1.35 l-1.95 0 0 -3.75z"/>
  <path d="M376.60 671.35 c-2.95 -1.40 -4.30 -8.45 -2.30 -11.90 0.55 -0.95 1.85 -2.10 2.85 -2.65 1.70 -0.80 2.10 -0.85 3.75 -0.20 4.80 1.80 5.65 10.95 1.35 14.30 -1.50 1.20 -3.80 1.35 -5.65 0.45z"/>
  <path d="M407 660.25 l0 -3.75 1.70 0 c2.35 0 4.30 1.65 4.30 3.70 0 2.60 -1.20 3.80 -3.80 3.80 l-2.20 0 0 -3.75z"/>
  <path d="M499.55 671.20 c-1.60 -1.15 -3.05 -4.50 -3.05 -7.15 0 -6.65 6.05 -10.35 9.70 -6 2.50 2.95 2.80 7.85 0.75 11.25 -1.60 2.60 -5.10 3.50 -7.40 1.90z"/>
  <path d="M562.50 660.25 l0 -3.75 1.70 0 c2.35 0 4.30 1.65 4.30 3.70 0 2.60 -1.20 3.80 -3.80 3.80 l-2.20 0 0 -3.75z"/>
  <path d="M666.90 663.40 c-0.15 -0.35 -0.20 -1.30 -0.15 -2.15 0.05 -0.80 0.15 -2.25 0.20 -3.10 0.05 -1.45 0.20 -1.65 1.50 -1.65 2.30 0 4.05 1.75 4.05 3.95 0 1.20 -0.35 2.20 -0.90 2.70 -1.10 1 -4.40 1.15 -4.70 0.25z"/>
  <path d="M697 664.60 c0 -0.25 0.55 -1.75 1.20 -3.40 0.75 -1.85 1.35 -2.65 1.50 -2.20 0.90 2.40 1.80 5.20 1.80 5.55 0 0.25 -1 0.45 -2.25 0.45 -1.25 0 -2.25 -0.20 -2.25 -0.40z"/>
  <path d="M368.15 578.50 c-1.45 -0.20 -3.20 -0.55 -3.90 -0.70 l-1.25 -0.30 0 -20.30 0 -20.30 9.45 0.20 9.40 0.15 3.45 1.75 c3.95 2 6.15 4.75 7.55 9.45 1 3.30 1.10 11.45 0.20 15.25 -2.70 11.20 -11.95 16.70 -24.90 14.80z"/>
  <path d="M444.60 573.15 l-1.65 -0.20 0.15 -17.50 c0.15 -14.85 0.25 -17.55 0.90 -18 0.45 -0.30 4.05 -0.45 9 -0.35 7.30 0.15 8.55 0.30 10.75 1.30 5.20 2.40 7.20 5.90 7.60 13.60 0.70 12.05 -3.40 18.80 -12.60 20.75 -3.25 0.70 -10.20 0.85 -14.15 0.40z"/>
  <path d="M746.50 611.05 l-3.25 -0.30 -0.35 -7.75 c-0.30 -8.15 -0.35 -53.80 0 -60.85 l0.20 -4.15 9.80 0 c11.45 0 17.20 0.95 22.60 3.55 10.30 5.10 14.60 16.85 13.85 37.95 -0.40 11.35 -2.05 18.30 -5.80 24.55 -2.20 3.70 -4.10 4.85 -10.05 6.20 -4.05 0.90 -21.05 1.40 -27 0.80z"/>
  <path d="M876.70 580.65 c0.15 -0.50 1.50 -5.30 3 -10.65 3.40 -11.95 8.20 -27.95 8.75 -28.90 0.50 -0.90 -0.05 -2.45 6.50 19.40 2.75 9.20 5.35 17.70 5.75 18.90 l0.75 2.10 -12.50 0 c-11.70 0 -12.50 -0.05 -12.25 -0.85z"/>
 </g>
 <g fill="#000000">
  <path d="M795.10 669 c0 -0.95 0.10 -1.35 0.25 -0.85 0.10 0.45 0.10 1.25 0 1.75 -0.15 0.45 -0.25 0.05 -0.25 -0.90z"/>
  <path d="M666.60 666.50 c0 -0.95 0.10 -1.35 0.25 -0.85 0.10 0.45 0.10 1.25 0 1.75 -0.15 0.45 -0.25 0.05 -0.25 -0.90z"/>
  <path d="M697.40 665.65 c0.60 -0.10 1.60 -0.10 2.25 0 0.60 0.10 0.10 0.20 -1.15 0.20 -1.25 0 -1.75 -0.10 -1.10 -0.20z"/>
  <path d="M350.15 663.75 c0 -1.10 0.10 -1.50 0.20 -0.85 0.10 0.60 0.10 1.50 0 2 -0.15 0.45 -0.25 -0.05 -0.20 -1.15z"/>
  <path d="M529.65 663 c0 -1.25 0.10 -1.75 0.20 -1.10 0.10 0.60 0.10 1.60 0 2.25 -0.10 0.60 -0.20 0.10 -0.20 -1.15z"/>
  <path d="M560.15 660.25 c0 -1.10 0.10 -1.50 0.20 -0.85 0.10 0.60 0.10 1.50 0 2 -0.15 0.45 -0.25 -0.05 -0.20 -1.15z"/>
  <path d="M754.65 659.75 c0 -1.10 0.10 -1.50 0.20 -0.85 0.10 0.60 0.10 1.50 0 2 -0.15 0.45 -0.25 -0.05 -0.20 -1.15z"/>
  <path d="M666.65 658.25 c0 -1.10 0.10 -1.50 0.20 -0.85 0.10 0.60 0.10 1.50 0 2 -0.15 0.45 -0.25 -0.05 -0.20 -1.15z"/>
  <path d="M729.10 658.50 c0 -0.95 0.10 -1.35 0.25 -0.85 0.10 0.45 0.10 1.25 0 1.75 -0.15 0.45 -0.25 0.05 -0.25 -0.90z"/>
  <path d="M613.60 618.50 c0 -0.95 0.10 -1.35 0.25 -0.85 0.10 0.45 0.10 1.25 0 1.75 -0.15 0.45 -0.25 0.05 -0.25 -0.90z"/>
  <path d="M547.15 608.75 c0 -1.35 0.10 -1.90 0.20 -1.10 0.10 0.75 0.10 1.85 0 2.50 -0.10 0.60 -0.20 0 -0.20 -1.40z"/>
  <path d="M669.15 603.75 c0 -1.10 0.10 -1.50 0.20 -0.85 0.10 0.60 0.10 1.50 0 2 -0.15 0.45 -0.25 -0.05 -0.20 -1.15z"/>
  <path d="M362.70 594.25 c0 -6.05 0.10 -8.45 0.15 -5.35 0.10 3.10 0.10 8.05 0 11 -0.05 2.95 -0.15 0.40 -0.15 -5.65z"/>
  <path d="M742.65 599.25 c0 -1.10 0.10 -1.50 0.20 -0.85 0.10 0.60 0.10 1.50 0 2 -0.15 0.45 -0.25 -0.05 -0.20 -1.15z"/>
  <path d="M729.15 597.50 c0 -1.25 0.10 -1.75 0.20 -1.10 0.10 0.60 0.10 1.60 0 2.25 -0.10 0.60 -0.20 0.10 -0.20 -1.15z"/>
  <path d="M826.15 597.25 c0 -1.10 0.10 -1.50 0.20 -0.85 0.10 0.60 0.10 1.50 0 2 -0.15 0.45 -0.25 -0.05 -0.20 -1.15z"/>
  <path d="M259.70 585.25 c0 -4.40 0.10 -6.15 0.15 -3.85 0.10 2.30 0.10 5.90 0 8 -0.05 2.10 -0.15 0.25 -0.15 -4.15z"/>
  <path d="M372.90 584.65 c0.60 -0.10 1.60 -0.10 2.25 0 0.60 0.10 0.10 0.20 -1.15 0.20 -1.25 0 -1.75 -0.10 -1.10 -0.20z"/>
  <path d="M269.35 576.65 c0.90 -0.10 2.50 -0.10 3.50 0 1.05 0.10 0.35 0.20 -1.60 0.20 -1.90 0 -2.75 -0.10 -1.90 -0.20z"/>
  <path d="M362.70 562.25 c0 -8.25 0.10 -11.70 0.15 -7.65 0.10 4.05 0.10 10.80 0 15 -0.05 4.20 -0.15 0.90 -0.15 -7.35z"/>
  <path d="M678.90 576.65 c0.85 -0.10 2.35 -0.10 3.25 0 0.85 0.10 0.15 0.20 -1.65 0.20 -1.80 0 -2.50 -0.10 -1.60 -0.20z"/>
  <path d="M268.90 569.15 c0.60 -0.10 1.50 -0.10 2 0 0.45 0.15 -0.05 0.25 -1.15 0.20 -1.10 0 -1.50 -0.10 -0.85 -0.20z"/>
  <path d="M678.15 569.15 c0.45 -0.10 1.25 -0.10 1.75 0 0.45 0.15 0.05 0.25 -0.90 0.25 -0.95 0 -1.35 -0.10 -0.85 -0.25z"/>
  <path d="M259.70 559.75 c0 -5.20 0.10 -7.30 0.15 -4.60 0.10 2.70 0.10 6.95 0 9.50 -0.05 2.55 -0.15 0.35 -0.15 -4.90z"/>
  <path d="M539.15 553.25 c0 -1.90 0.10 -2.65 0.20 -1.60 0.10 1 0.10 2.60 0 3.50 -0.10 0.85 -0.20 0.05 -0.20 -1.90z"/>
  <path d="M729.15 553.25 c0 -1.35 0.10 -1.90 0.20 -1.10 0.10 0.75 0.10 1.85 0 2.50 -0.10 0.60 -0.20 0 -0.20 -1.40z"/>
  <path d="M826.15 552 c0 -1.25 0.10 -1.75 0.20 -1.10 0.10 0.60 0.10 1.60 0 2.25 -0.10 0.60 -0.20 0.10 -0.20 -1.15z"/>
  <path d="M742.60 544 c0 -0.95 0.10 -1.35 0.25 -0.85 0.10 0.45 0.10 1.25 0 1.75 -0.15 0.45 -0.25 0.05 -0.25 -0.90z"/>
  <path d="M539.15 543 c0 -1.25 0.10 -1.75 0.20 -1.10 0.10 0.60 0.10 1.60 0 2.25 -0.10 0.60 -0.20 0.10 -0.20 -1.15z"/>
  <path d="M669.15 539.30 c0.05 -0.85 0.45 -1.55 0.85 -1.65 0.50 -0.15 0.55 -0.10 0.20 0.20 -0.35 0.20 -0.70 0.95 -0.85 1.65 -0.20 1.10 -0.25 1.05 -0.20 -0.20z"/>
  <path d="M360.85 530.15 c0.90 -0.10 2.50 -0.10 3.50 0 1.05 0.10 0.35 0.20 -1.60 0.20 -1.90 0 -2.75 -0.10 -1.90 -0.20z"/>
  <path d="M441.40 530.15 c0.85 -0.10 2.35 -0.10 3.25 0 0.85 0.10 0.15 0.20 -1.65 0.20 -1.80 0 -2.50 -0.10 -1.60 -0.20z"/>
  <path d="M738.90 530.15 c0.60 -0.10 1.50 -0.10 2 0 0.45 0.15 -0.05 0.25 -1.15 0.20 -1.10 0 -1.50 -0.10 -0.85 -0.20z"/>
  <path d="M69.40 529.65 c0.60 -0.10 1.50 -0.10 2 0 0.45 0.15 -0.05 0.25 -1.15 0.20 -1.10 0 -1.50 -0.10 -0.85 -0.20z"/>
  <path d="M128.90 529.65 c0.60 -0.10 1.50 -0.10 2 0 0.45 0.15 -0.05 0.25 -1.15 0.20 -1.10 0 -1.50 -0.10 -0.85 -0.20z"/>
  <path d="M288.35 529.65 c0.90 -0.10 2.50 -0.10 3.50 0 1.05 0.10 0.35 0.20 -1.60 0.20 -1.90 0 -2.75 -0.10 -1.90 -0.20z"/>
  <path d="M697.40 529.65 c1.15 -0.10 2.95 -0.10 4 0 1 0.10 0.05 0.20 -2.15 0.20 -2.20 0 -3.05 -0.10 -1.85 -0.20z"/>
  <path d="M523.75 468.10 c-3.50 -1.15 -3.60 -1.55 -5.45 -18.65 -1.60 -14.55 -1.85 -21.65 -0.85 -22.45 0.65 -0.55 1.55 -2.55 1.55 -3.45 0 -0.55 0.25 -1.15 0.50 -1.30 0.30 -0.15 0.50 -0.80 0.50 -1.45 0 -0.60 0.20 -1.30 0.50 -1.60 0.25 -0.25 0.55 -0.90 0.65 -1.45 0.05 -0.55 0.50 -1.75 1 -2.70 0.45 -0.95 0.85 -2.10 0.85 -2.60 0 -0.50 0.25 -1.05 0.50 -1.20 0.30 -0.15 0.50 -0.85 0.50 -1.50 0 -0.65 0.25 -1.35 0.50 -1.50 0.30 -0.15 0.50 -0.75 0.50 -1.25 0 -0.55 0.45 -1.75 1 -2.75 0.55 -1 1 -2.20 1 -2.75 0 -0.50 0.25 -1.10 0.50 -1.25 0.30 -0.15 0.50 -0.85 0.50 -1.50 0 -0.65 0.25 -1.35 0.50 -1.50 0.30 -0.15 0.50 -0.85 0.50 -1.50 0 -0.65 0.25 -1.35 0.50 -1.50 0.30 -0.15 0.50 -0.75 0.50 -1.30 0 -0.50 0.25 -0.95 0.50 -0.95 0.30 0 0.50 -0.65 0.50 -1.50 0 -0.80 0.25 -1.50 0.50 -1.50 0.30 0 0.50 -0.55 0.50 -1.20 0 -0.70 0.25 -1.40 0.50 -1.55 0.30 -0.15 0.50 -0.85 0.50 -1.50 0 -0.65 0.25 -1.35 0.50 -1.50 0.30 -0.15 0.50 -0.65 0.50 -1.05 0 -0.40 0.45 -1.70 1 -2.80 0.55 -1.15 1 -2.50 1 -2.95 0 -0.50 0.25 -1.05 0.50 -1.20 0.30 -0.15 0.50 -0.85 0.50 -1.50 0 -0.65 0.25 -1.35 0.50 -1.50 0.30 -0.15 0.50 -0.75 0.50 -1.25 0 -0.55 0.45 -1.75 1 -2.75 0.55 -1 1 -2.20 1 -2.75 0 -0.50 0.25 -1.10 0.50 -1.25 0.30 -0.15 0.50 -0.80 0.50 -1.45 0 -0.60 0.20 -1.30 0.45 -1.60 0.25 -0.25 0.55 -1 0.65 -1.70 0.10 -0.70 0.70 -1.55 1.45 -1.95 2.90 -1.65 9.15 2 11.40 6.60 0.70 1.45 1.05 3.15 1.05 5.10 0 2.85 -3 27.80 -4 33.25 -0.65 3.40 -2.40 6.15 -4.95 7.60 -1.95 1.10 -2 1.20 -2.30 4.65 -0.20 1.90 -1.55 14.15 -3 27.10 -2.85 25.90 -2.65 25.15 -6.20 26.15 -1.95 0.55 -10.20 0.60 -11.80 0.10z"/>
  <path d="M516.10 429.50 c0 -0.95 0.10 -1.35 0.25 -0.85 0.10 0.45 0.10 1.25 0 1.75 -0.15 0.45 -0.25 0.05 -0.25 -0.90z"/>
  <path d="M514.60 415.50 c0 -0.95 0.10 -1.35 0.25 -0.85 0.10 0.45 0.10 1.25 0 1.75 -0.15 0.45 -0.25 0.05 -0.25 -0.90z"/>
  <path d="M504.50 382.85 c0 -0.10 0.75 -0.80 1.65 -1.65 l1.60 -1.45 -1.45 1.65 c-1.40 1.50 -1.80 1.85 -1.80 1.45z"/>
  <path d="M480.25 375.40 l-3 -3.15 3.15 3 c1.70 1.65 3.10 3.05 3.10 3.10 0 0.40 -0.50 -0.05 -3.25 -2.95z"/>
  <path d="M498.50 368.75 c0.95 -0.95 1.80 -1.75 1.95 -1.75 0.15 0 -0.50 0.80 -1.45 1.75 -0.95 0.95 -1.80 1.75 -1.95 1.75 -0.15 0 0.50 -0.80 1.45 -1.75z"/>
  <path d="M507 360.75 c0.95 -0.95 1.80 -1.75 1.95 -1.75 0.15 0 -0.50 0.80 -1.45 1.75 -0.95 0.95 -1.80 1.75 -1.95 1.75 -0.15 0 0.50 -0.80 1.45 -1.75z"/>
  <path d="M538.50 349.85 c0 -0.10 0.75 -0.80 1.65 -1.65 l1.60 -1.45 -1.45 1.65 c-1.40 1.50 -1.80 1.85 -1.80 1.45z"/>
  <path d="M544.15 338 c0 -1.50 0.10 -2.15 0.20 -1.35 0.10 0.75 0.10 1.95 0 2.75 -0.10 0.75 -0.20 0.10 -0.20 -1.40z"/>
  <path d="M514.60 338 c0 -0.95 0.10 -1.35 0.25 -0.85 0.10 0.45 0.10 1.25 0 1.75 -0.15 0.45 -0.25 0.05 -0.25 -0.90z"/>
  <path d="M528.65 323.15 c0.45 -0.10 1.25 -0.10 1.75 0 0.45 0.15 0.05 0.25 -0.90 0.25 -0.95 0 -1.35 -0.10 -0.85 -0.25z"/>
 </g>
 <g fill="#000000">
  <path d="M539.65 662.75 c0 -1.10 0.10 -1.50 0.20 -0.85 0.10 0.60 0.10 1.50 0 2 -0.15 0.45 -0.25 -0.05 -0.20 -1.15z"/>
  <path d="M347.65 661.50 c0 -1.25 0.10 -1.75 0.20 -1.10 0.10 0.60 0.10 1.60 0 2.25 -0.10 0.60 -0.20 0.10 -0.20 -1.15z"/>
  <path d="M730.65 620.15 c1.85 -0.10 4.80 -0.10 6.50 0 1.70 0.10 0.20 0.15 -3.40 0.15 -3.55 0 -4.95 -0.05 -3.10 -0.15z"/>
  <path d="M259.65 595.50 c0 -1.50 0.10 -2.15 0.20 -1.35 0.10 0.75 0.10 1.95 0 2.75 -0.10 0.75 -0.20 0.10 -0.20 -1.40z"/>
  <path d="M259.65 548.50 c0 -1.25 0.10 -1.75 0.20 -1.10 0.10 0.60 0.10 1.60 0 2.25 -0.10 0.60 -0.20 0.10 -0.20 -1.15z"/>
  <path d="M362.65 545.50 c0 -1.25 0.10 -1.75 0.20 -1.10 0.10 0.60 0.10 1.60 0 2.25 -0.10 0.60 -0.20 0.10 -0.20 -1.15z"/>
  <path d="M754.40 537.65 c0.60 -0.10 1.60 -0.10 2.25 0 0.60 0.10 0.10 0.20 -1.15 0.20 -1.25 0 -1.75 -0.10 -1.10 -0.20z"/>
  <path d="M370.40 536.65 c0.60 -0.10 1.60 -0.10 2.25 0 0.60 0.10 0.10 0.20 -1.15 0.20 -1.25 0 -1.75 -0.10 -1.10 -0.20z"/>
  <path d="M367.40 530.15 c0.90 -0.10 2.25 -0.10 3 0 0.75 0.10 0 0.20 -1.65 0.20 -1.65 0 -2.25 -0.10 -1.35 -0.20z"/>
  <path d="M447.15 530.15 c0.75 -0.10 1.95 -0.10 2.75 0 0.75 0.10 0.10 0.20 -1.40 0.20 -1.50 0 -2.15 -0.10 -1.35 -0.20z"/>
  <path d="M742.15 530.15 c0.45 -0.10 1.25 -0.10 1.75 0 0.45 0.15 0.05 0.25 -0.90 0.25 -0.95 0 -1.35 -0.10 -0.85 -0.25z"/>
  <path d="M516.60 431.25 c-0.05 -0.25 -1.35 -12.20 -2.90 -26.50 -1.50 -14.30 -2.90 -26.30 -3 -26.70 -0.20 -0.55 -0.55 -0.45 -1.60 0.50 -0.75 0.65 -0.65 0.45 0.25 -0.45 0.90 -0.90 1.65 -1.95 1.65 -2.35 0 -0.40 0.45 -1.50 1 -2.50 0.55 -1 1 -2.35 1 -3 0 -0.70 0.25 -1.25 0.50 -1.25 0.30 0 0.50 -0.55 0.50 -1.20 0 -0.70 0.25 -1.40 0.50 -1.55 0.30 -0.15 0.50 -0.85 0.50 -1.50 0 -0.65 0.25 -1.35 0.50 -1.50 0.30 -0.15 0.50 -0.70 0.50 -1.20 0 -0.70 0.90 -3 1.70 -4.40 0.05 -0.05 0.65 -0.20 1.35 -0.40 1.20 -0.30 1.70 0.15 5.50 4.95 2.30 2.90 4.55 5.30 5.05 5.30 0.45 0 2.55 -2.20 4.75 -4.85 2.15 -2.70 4.15 -5.05 4.40 -5.25 0.30 -0.20 1.60 -0.40 3 -0.40 2.40 0 2.45 0.05 1.35 0.80 -0.60 0.40 -1.10 1.30 -1.10 1.95 0 0.65 -0.20 1.35 -0.50 1.50 -0.25 0.15 -0.50 0.85 -0.50 1.50 0 0.65 -0.20 1.35 -0.50 1.50 -0.25 0.15 -0.50 0.75 -0.50 1.25 0 0.55 -0.45 1.75 -1 2.75 -0.55 1 -1 2.20 -1 2.75 0 0.50 -0.20 1.10 -0.50 1.25 -0.25 0.15 -0.50 0.85 -0.50 1.50 0 0.65 -0.20 1.35 -0.50 1.50 -0.25 0.15 -0.50 0.70 -0.50 1.20 0 0.45 -0.45 1.80 -1 2.95 -0.55 1.10 -1 2.40 -1 2.80 0 0.40 -0.20 0.90 -0.50 1.05 -0.25 0.15 -0.50 0.85 -0.50 1.50 0 0.65 -0.20 1.35 -0.50 1.50 -0.25 0.15 -0.50 0.85 -0.50 1.55 0 0.65 -0.20 1.20 -0.50 1.20 -0.25 0 -0.50 0.70 -0.50 1.50 0 0.85 -0.20 1.50 -0.50 1.50 -0.25 0 -0.50 0.45 -0.50 0.95 0 0.55 -0.20 1.15 -0.50 1.30 -0.25 0.15 -0.50 0.85 -0.50 1.50 0 0.65 -0.20 1.35 -0.50 1.50 -0.25 0.15 -0.50 0.85 -0.50 1.50 0 0.65 -0.20 1.35 -0.50 1.50 -0.25 0.15 -0.50 0.75 -0.50 1.25 0 0.55 -0.45 1.75 -1 2.75 -0.55 1 -1 2.20 -1 2.75 0 0.50 -0.20 1.10 -0.50 1.25 -0.25 0.15 -0.50 0.85 -0.50 1.50 0 0.65 -0.20 1.35 -0.50 1.50 -0.25 0.15 -0.50 0.70 -0.50 1.20 0 0.50 -0.40 1.65 -0.85 2.60 -0.50 0.95 -0.95 2.15 -1 2.70 -0.10 0.55 -0.40 1.20 -0.65 1.45 -0.30 0.30 -0.50 1 -0.50 1.60 0 0.65 -0.20 1.30 -0.50 1.45 -0.25 0.15 -0.50 0.75 -0.50 1.30 0 0.95 -0.90 2.95 -1.60 3.45 -0.20 0.15 -0.40 1.30 -0.55 2.50 -0.10 1.25 -0.20 2.05 -0.25 1.75z"/>
  <path d="M526.85 352.45 c-2.10 -0.35 -6.85 -2.55 -6.85 -3.25 0 -0.15 0.25 -0.10 0.50 0.05 0.30 0.20 0.50 -0.25 0.50 -0.95 0 -0.70 0.25 -1.30 0.50 -1.30 0.30 0 0.50 -0.55 0.50 -1.20 0 -0.70 0.25 -1.40 0.50 -1.55 0.30 -0.15 0.50 -0.85 0.50 -1.50 0 -0.65 0.25 -1.35 0.50 -1.50 0.30 -0.15 0.50 -0.75 0.50 -1.25 0 -0.55 0.45 -1.75 1 -2.75 0.55 -1 1 -2.20 1 -2.75 0 -0.50 0.25 -1.10 0.50 -1.25 0.30 -0.15 0.50 -0.80 0.50 -1.45 0 -0.60 0.20 -1.30 0.50 -1.60 0.25 -0.25 0.55 -0.95 0.65 -1.55 0.10 -0.65 0.30 -1.30 0.50 -1.45 0.20 -0.20 0.35 -1.05 0.35 -1.90 0 -1.55 0.05 -1.55 2.45 -1.50 4.90 0.15 10.10 4.15 11.75 9.05 3.75 10.95 -4.95 21.35 -16.35 19.60z"/>
 </g>
 <g fill="#000000">
  <path d="M499.20 385.75 c-0.25 -0.95 0 -1.95 0.75 -3.35 0.55 -1.10 1.05 -2.40 1.05 -2.90 0 -0.55 0.25 -1.10 0.50 -1.25 0.30 -0.15 0.50 -0.85 0.50 -1.50 0 -0.65 0.25 -1.35 0.50 -1.50 0.30 -0.15 0.50 -0.85 0.50 -1.50 0 -0.65 0.25 -1.35 0.50 -1.50 0.30 -0.15 0.50 -0.85 0.50 -1.50 0 -0.65 0.25 -1.35 0.50 -1.50 0.30 -0.15 0.50 -0.75 0.50 -1.30 0 -0.50 0.20 -0.95 0.45 -0.95 0.40 0 1 -2.10 1.20 -4.35 0.05 -0.55 0.25 -1 0.40 -0.90 0.35 0.25 1.65 -1.25 2.10 -2.45 0.20 -0.45 0.55 -0.75 0.80 -0.60 0.25 0.20 0.55 0.10 0.65 -0.20 0.10 -0.30 0.70 -0.60 1.35 -0.75 1.80 -0.35 7.40 -0.75 6.50 -0.45 -0.80 0.25 -2.45 3.45 -2.45 4.85 0 0.45 -0.20 0.95 -0.50 1.10 -0.25 0.15 -0.50 0.85 -0.50 1.50 0 0.65 -0.20 1.35 -0.50 1.50 -0.25 0.15 -0.50 0.85 -0.50 1.55 0 0.65 -0.20 1.20 -0.50 1.20 -0.25 0 -0.50 0.55 -0.50 1.25 0 0.65 -0.45 2 -1 3 -0.55 1 -1 2.10 -1 2.45 0 0.65 -3.40 4.10 -9.10 9.25 l-2.35 2.15 -0.35 -1.35z"/>
  <path d="M519.10 348.05 c-2.75 -2.85 -3.75 -5.30 -3.50 -8.55 0.15 -1.85 0.60 -3.35 1.30 -4.35 0.60 -0.85 1.10 -2.10 1.10 -2.80 0 -0.70 0.20 -1.35 0.40 -1.45 0.25 -0.05 0.60 -0.80 0.80 -1.55 0.25 -1.10 0.20 -1.35 -0.30 -1.05 -0.50 0.30 -0.50 0.20 0.05 -0.45 0.35 -0.45 0.85 -0.70 1.10 -0.60 0.20 0.15 0.65 -0.15 0.90 -0.70 0.55 -1 3.30 -2.25 6.20 -2.80 1.85 -0.35 1.85 -0.35 1.85 1.35 0 0.95 -0.15 1.90 -0.35 2.10 -0.20 0.15 -0.40 0.80 -0.50 1.45 -0.10 0.60 -0.40 1.30 -0.65 1.55 -0.30 0.30 -0.50 1 -0.50 1.60 0 0.65 -0.20 1.30 -0.50 1.45 -0.25 0.15 -0.50 0.75 -0.50 1.25 0 0.55 -0.45 1.75 -1 2.75 -0.55 1 -1 2.20 -1 2.75 0 0.50 -0.20 1.10 -0.50 1.25 -0.25 0.15 -0.50 0.85 -0.50 1.50 0 0.65 -0.20 1.35 -0.50 1.50 -0.25 0.15 -0.50 0.85 -0.50 1.55 0 0.65 -0.20 1.20 -0.45 1.20 -0.25 0 -0.55 0.60 -0.65 1.40 l-0.15 1.35 -1.65 -1.70z"/>
 </g>
 <g fill="#000000">
  <path d="M439.10 667 c0 -0.95 0.10 -1.35 0.25 -0.85 0.10 0.45 0.10 1.25 0 1.75 -0.15 0.45 -0.25 0.05 -0.25 -0.90z"/>
  <path d="M742.65 620.15 c0.75 -0.10 1.85 -0.10 2.50 0 0.60 0.10 0 0.20 -1.40 0.20 -1.35 0 -1.90 -0.10 -1.10 -0.20z"/>
  <path d="M429.75 576 c0 -14.70 0.05 -20.75 0.10 -13.35 0.10 7.35 0.10 19.35 0 26.75 -0.05 7.35 -0.10 1.30 -0.10 -13.40z"/>
  <path d="M147.25 575.25 c0 -11.25 0.05 -15.95 0.10 -10.40 0.10 5.55 0.10 14.75 0 20.50 -0.05 5.70 -0.10 1.20 -0.10 -10.10z"/>
  <path d="M150.10 530.15 c1.85 -0.10 5 -0.10 7 0 2 0.05 0.50 0.15 -3.35 0.15 -3.85 0 -5.50 -0.05 -3.65 -0.15z"/>
  <path d="M203.65 530.15 c2.15 -0.10 5.50 -0.10 7.50 0 2 0.05 0.25 0.15 -3.90 0.15 -4.10 0 -5.75 -0.10 -3.60 -0.15z"/>
  <path d="M373.65 530.15 c0.75 -0.10 1.85 -0.10 2.50 0 0.60 0.10 0 0.20 -1.40 0.20 -1.35 0 -1.90 -0.10 -1.10 -0.20z"/>
  <path d="M453.65 530.15 c0.75 -0.10 1.85 -0.10 2.50 0 0.60 0.10 0 0.20 -1.40 0.20 -1.35 0 -1.90 -0.10 -1.10 -0.20z"/>
  <path d="M828.65 530.15 c2.10 -0.10 5.60 -0.10 7.75 0 2.10 0.05 0.35 0.15 -3.90 0.15 -4.25 0 -6 -0.10 -3.85 -0.15z"/>
  <path d="M494.65 387.45 c-1 -0.20 -3.15 -1.65 -5.55 -3.90 -3.70 -3.30 -6.95 -6.70 -4.30 -4.40 0.55 0.45 1.35 0.85 1.75 0.85 0.55 -0.05 0.50 -0.15 -0.15 -0.50 -0.80 -0.50 -0.70 -2.50 0.15 -2.50 0.25 0 0.45 -0.55 0.45 -1.20 0 -0.70 0.25 -1.40 0.50 -1.55 0.30 -0.15 0.50 -0.85 0.50 -1.50 0 -0.65 0.25 -1.35 0.50 -1.50 0.30 -0.15 0.50 -0.95 0.50 -1.75 0 -2.15 1.35 -2.10 4.40 0.15 l2.65 1.95 2.85 -2.65 c1.55 -1.45 4.50 -4.20 6.50 -6.10 1.95 -1.95 3.60 -3.25 3.60 -2.95 0 0.35 -0.20 0.60 -0.45 0.60 -0.60 0 -2.55 4.20 -2.55 5.50 0 0.55 -0.20 1 -0.50 1 -0.25 0 -0.50 0.45 -0.50 0.95 0 0.55 -0.20 1.15 -0.50 1.30 -0.25 0.15 -0.50 0.85 -0.50 1.50 0 0.65 -0.20 1.35 -0.50 1.50 -0.25 0.15 -0.50 0.85 -0.50 1.50 0 0.65 -0.20 1.35 -0.50 1.50 -0.25 0.15 -0.50 0.85 -0.50 1.50 0 0.65 -0.20 1.35 -0.50 1.50 -0.25 0.15 -0.50 0.75 -0.50 1.25 0 0.55 -0.45 1.80 -1.05 2.85 -0.70 1.20 -0.95 2.35 -0.80 3.35 0.15 0.85 0.15 1.30 0.05 0.95 -0.15 -0.35 -0.60 -0.45 -1 -0.30 -0.55 0.20 -0.60 0.40 -0.20 0.65 0.90 0.55 -1.45 0.85 -3.35 0.45z"/>
  <path d="M495.05 355.80 c-0.55 -0.65 -0.45 -1.25 0.45 -3.55 0.80 -2.15 1.50 -4.60 1.50 -5.40 0 -0.45 0.25 -0.85 0.50 -0.85 0.30 0 0.50 -0.35 0.50 -0.80 0 -0.40 0.20 -0.65 0.50 -0.45 0.25 0.15 0.35 0.60 0.15 1 -0.15 0.45 -0.05 1.05 0.25 1.40 0.95 1.15 1.70 6.20 1.10 7.30 -1 1.95 -3.85 2.70 -4.95 1.35z"/>
  <path d="M515.05 338.45 c-0.05 -3.85 1.15 -7.05 3.80 -9.85 1.25 -1.30 1.75 -1.70 1.20 -0.90 -0.60 0.80 -1.05 1.85 -1.05 2.35 0 0.55 -0.20 0.95 -0.50 0.95 -0.25 0 -0.50 0.60 -0.50 1.30 0 0.70 -0.45 1.95 -1.05 2.75 -0.55 0.80 -1.20 2.55 -1.45 3.85 l-0.40 2.35 -0.05 -2.80z"/>
 </g>
 <g fill="#000000">
  <path d="M759.40 672.65 c0.60 -0.10 1.60 -0.10 2.25 0 0.60 0.10 0.10 0.20 -1.15 0.20 -1.25 0 -1.75 -0.10 -1.10 -0.20z"/>
  <path d="M746.90 620.15 c0.60 -0.10 1.50 -0.10 2 0 0.45 0.15 -0.05 0.25 -1.15 0.20 -1.10 0 -1.50 -0.10 -0.85 -0.20z"/>
  <path d="M678.65 612.65 c0.75 -0.10 1.85 -0.10 2.50 0 0.60 0.10 0 0.20 -1.40 0.20 -1.35 0 -1.90 -0.10 -1.10 -0.20z"/>
  <path d="M214.10 596 c0 -0.95 0.10 -1.35 0.25 -0.85 0.10 0.45 0.10 1.25 0 1.75 -0.15 0.45 -0.25 0.05 -0.25 -0.90z"/>
  <path d="M214.15 592.25 c0 -1.10 0.10 -1.50 0.20 -0.85 0.10 0.60 0.10 1.50 0 2 -0.15 0.45 -0.25 -0.05 -0.20 -1.15z"/>
  <path d="M214.20 561.75 c0 -4.65 0.10 -6.65 0.15 -4.40 0.10 2.25 0.10 6.10 0 8.50 -0.05 2.40 -0.15 0.60 -0.15 -4.10z"/>
  <path d="M96.40 530.15 c0.60 -0.10 1.50 -0.10 2 0 0.45 0.15 -0.05 0.25 -1.15 0.20 -1.10 0 -1.50 -0.10 -0.85 -0.20z"/>
  <path d="M102.40 530.15 c0.60 -0.10 1.60 -0.10 2.25 0 0.60 0.10 0.10 0.20 -1.15 0.20 -1.25 0 -1.75 -0.10 -1.10 -0.20z"/>
  <path d="M245.90 530.15 c0.60 -0.10 1.50 -0.10 2 0 0.45 0.15 -0.05 0.25 -1.15 0.20 -1.10 0 -1.50 -0.10 -0.85 -0.20z"/>
  <path d="M655.15 530.15 c0.45 -0.10 1.25 -0.10 1.75 0 0.45 0.15 0.05 0.25 -0.90 0.25 -0.95 0 -1.35 -0.10 -0.85 -0.25z"/>
  <path d="M481.80 376.45 c-2.10 -1.95 -3.80 -3.95 -3.80 -4.45 0 -0.65 1.40 -1.75 4.40 -3.45 2.40 -1.40 4.70 -2.55 5.10 -2.55 0.45 0 1.45 0.60 2.30 1.40 0.80 0.75 1.25 1.20 1 1 -1.05 -0.80 -1.80 -0.35 -1.80 1.05 0 0.85 -0.20 1.65 -0.50 1.80 -0.25 0.15 -0.50 0.85 -0.50 1.50 0 0.65 -0.20 1.35 -0.50 1.50 -0.25 0.15 -0.50 0.85 -0.50 1.55 0 0.65 -0.20 1.20 -0.45 1.20 -0.85 0 -0.95 2 -0.15 2.50 0.80 0.45 0.80 0.45 0.05 0.50 -0.50 0 -2.55 -1.60 -4.65 -3.55z"/>
  <path d="M476.90 364.25 c0.10 -0.95 0.40 -1.90 0.65 -2.05 0.25 -0.15 0.45 -0.90 0.45 -1.75 0 -0.80 0.25 -1.45 0.50 -1.45 0.30 0 0.50 -0.55 0.50 -1.20 0 -0.70 0.25 -1.40 0.50 -1.55 0.30 -0.15 0.50 -0.75 0.50 -1.30 0 -0.50 0.25 -0.95 0.50 -0.95 0.30 0 0.50 -0.55 0.50 -1.20 0 -0.70 0.25 -1.40 0.50 -1.55 0.30 -0.15 0.50 -0.85 0.50 -1.50 0 -0.65 0.25 -1.35 0.50 -1.50 0.30 -0.15 0.50 -0.85 0.50 -1.55 0 -0.70 0.35 -1.60 0.75 -2.05 0.40 -0.40 0.65 -0.95 0.50 -1.20 -0.35 -0.55 1.60 -0.55 4.80 0 2 0.30 2.50 0.20 3.65 -0.80 1.70 -1.45 2.90 -1.45 4.50 0 0.95 0.80 1.20 1.40 1 2.25 -0.20 0.60 -0.50 1.10 -0.75 1.10 -0.25 0 -0.45 0.40 -0.45 0.85 0 0.80 -0.75 3.40 -1.55 5.40 -0.20 0.55 -0.50 1.50 -0.70 2.05 -0.15 0.60 -0.65 1.20 -1.15 1.40 -0.45 0.15 -4 2.30 -7.85 4.75 -3.85 2.45 -7.15 4.35 -7.30 4.25 -0.20 -0.10 -0.45 0.15 -0.65 0.55 -0.50 1.40 -1.10 0.75 -0.90 -1z"/>
 </g>
 <g fill="#000000">
  <path d="M760.15 671.65 c0.45 -0.10 1.25 -0.10 1.75 0 0.45 0.15 0.05 0.25 -0.90 0.25 -0.95 0 -1.35 -0.10 -0.85 -0.25z"/>
  <path d="M640.60 670 c0 -0.95 0.10 -1.35 0.25 -0.85 0.10 0.45 0.10 1.25 0 1.75 -0.15 0.45 -0.25 0.05 -0.25 -0.90z"/>
  <path d="M818.65 666.75 c0 -1.10 0.10 -1.50 0.20 -0.85 0.10 0.60 0.10 1.50 0 2 -0.15 0.45 -0.25 -0.05 -0.20 -1.15z"/>
  <path d="M236.70 662.75 c0 -3 0.05 -4.20 0.15 -2.60 0.10 1.60 0.10 4.05 0 5.50 -0.10 1.45 -0.15 0.15 -0.15 -2.90z"/>
  <path d="M726.65 661.75 c0 -1.10 0.10 -1.50 0.20 -0.85 0.10 0.60 0.10 1.50 0 2 -0.15 0.45 -0.25 -0.05 -0.20 -1.15z"/>
  <path d="M271.65 660 c0 -1.80 0.10 -2.50 0.20 -1.60 0.10 0.85 0.10 2.35 0 3.25 -0.10 0.85 -0.20 0.15 -0.20 -1.65z"/>
  <path d="M756.65 656.15 c0.45 -0.10 1.25 -0.10 1.75 0 0.45 0.15 0.05 0.25 -0.90 0.25 -0.95 0 -1.35 -0.10 -0.85 -0.25z"/>
  <path d="M750.65 620.15 c0.75 -0.10 1.95 -0.10 2.75 0 0.75 0.10 0.10 0.20 -1.40 0.20 -1.50 0 -2.15 -0.10 -1.35 -0.20z"/>
  <path d="M93.10 597 c0 -0.95 0.10 -1.35 0.25 -0.85 0.10 0.45 0.10 1.25 0 1.75 -0.15 0.45 -0.25 0.05 -0.25 -0.90z"/>
  <path d="M246.25 575 c0 -11.95 0.05 -16.85 0.10 -10.85 0.10 5.95 0.10 15.75 0 21.75 -0.05 5.95 -0.10 1.05 -0.10 -10.90z"/>
  <path d="M93.20 575.25 c0 -8.80 0.10 -12.35 0.15 -7.85 0.10 4.50 0.10 11.70 0 16 -0.05 4.30 -0.15 0.65 -0.15 -8.15z"/>
  <path d="M885.15 588.65 c2.40 -0.10 6.25 -0.10 8.50 0 2.25 0.05 0.30 0.15 -4.40 0.15 -4.65 0 -6.50 -0.10 -4.10 -0.15z"/>
  <path d="M93.15 555.75 c0 -1.65 0.10 -2.25 0.20 -1.35 0.10 0.90 0.10 2.25 0 3 -0.10 0.75 -0.20 0 -0.20 -1.65z"/>
  <path d="M92.90 530.15 c0.60 -0.10 1.50 -0.10 2 0 0.45 0.15 -0.05 0.25 -1.15 0.20 -1.10 0 -1.50 -0.10 -0.85 -0.20z"/>
  <path d="M106.15 530.15 c0.45 -0.10 1.25 -0.10 1.75 0 0.45 0.15 0.05 0.25 -0.90 0.25 -0.95 0 -1.35 -0.10 -0.85 -0.25z"/>
  <path d="M249.40 530.15 c0.60 -0.10 1.60 -0.10 2.25 0 0.60 0.10 0.10 0.20 -1.15 0.20 -1.25 0 -1.75 -0.10 -1.10 -0.20z"/>
  <path d="M658.40 530.15 c0.60 -0.10 1.60 -0.10 2.25 0 0.60 0.10 0.10 0.20 -1.15 0.20 -1.25 0 -1.75 -0.10 -1.10 -0.20z"/>
  <path d="M465.15 374.40 c-1.30 -0.60 -1.80 -1.90 -2.90 -6.90 -0.45 -2.05 -0.90 -4.15 -1.05 -4.70 -0.20 -0.55 -0.10 -0.80 0.20 -0.60 0.25 0.15 0.60 -0.15 0.75 -0.70 0.15 -0.65 0.50 -0.90 1.05 -0.70 0.45 0.15 0.80 0.05 0.80 -0.25 0 -0.30 -0.20 -0.55 -0.50 -0.55 -0.25 0 -0.50 -0.45 -0.50 -1 0 -1.10 0.80 -1.35 1.15 -0.35 0.10 0.35 0.40 0.40 0.65 0.15 0.25 -0.25 0.20 -0.55 -0.15 -0.65 -1.10 -0.40 -0.75 -2.15 0.35 -2.15 0.55 0 1 -0.20 1 -0.50 0 -0.25 -0.20 -0.50 -0.50 -0.50 -0.25 0 -0.50 -0.45 -0.50 -1 0 -0.65 0.35 -1 1 -1 0.55 0 1 -0.25 1 -0.55 0 -0.25 -0.20 -0.35 -0.50 -0.20 -0.30 0.20 -0.50 -0.25 -0.50 -0.95 0 -0.95 0.25 -1.30 1 -1.30 0.55 0 1 -0.20 1 -0.50 0 -0.25 -0.20 -0.50 -0.50 -0.50 -0.25 0 -0.50 -0.45 -0.50 -1 0 -1.10 0.80 -1.35 1.15 -0.35 0.10 0.35 0.40 0.40 0.65 0.15 0.25 -0.25 0.20 -0.55 -0.15 -0.65 -1.10 -0.40 -0.75 -2.15 0.35 -2.15 0.55 0 1 -0.20 1 -0.50 0 -0.25 -0.20 -0.50 -0.50 -0.50 -0.25 0 -0.50 -0.45 -0.50 -1 0 -0.55 0.35 -1 0.75 -1 0.40 0 0.75 -0.20 0.75 -0.50 0 -0.25 0.35 -0.50 0.75 -0.50 0.40 0 0.75 0.20 0.75 0.50 0 0.25 0.30 0.35 0.65 0.25 0.95 -0.40 10.80 1 11.40 1.60 0.35 0.35 0.25 0.75 -0.25 1.30 -0.45 0.45 -0.80 1.35 -0.80 2.05 0 0.70 -0.20 1.40 -0.50 1.55 -0.25 0.15 -0.50 0.85 -0.50 1.50 0 0.65 -0.20 1.35 -0.50 1.50 -0.25 0.15 -0.50 0.85 -0.50 1.55 0 0.65 -0.20 1.20 -0.50 1.20 -0.25 0 -0.50 0.45 -0.50 0.95 0 0.55 -0.20 1.15 -0.50 1.30 -0.25 0.15 -0.50 0.85 -0.50 1.55 0 0.65 -0.20 1.20 -0.50 1.20 -0.25 0 -0.50 0.65 -0.50 1.45 0 0.85 -0.20 1.65 -0.50 1.80 -0.25 0.15 -0.50 0.90 -0.50 1.65 0 1.85 -0.30 2.15 -3.85 4.35 -2.65 1.60 -3.15 2.10 -3.15 3.30 0 0.90 -0.45 1.75 -1.30 2.40 -1.50 1.15 -1.95 1.20 -3.55 0.45z"/>
 </g>
 <g fill="#000000" stroke="#a1561b" stroke-width="0.5">
  <path d="M451.20 367.70 c-0.20 -0.70 -0.10 -1.45 0.15 -1.65 0.30 -0.15 0.60 -0.75 0.70 -1.30 0.10 -0.55 0.70 -1.20 1.35 -1.50 0.60 -0.25 1.10 -0.65 1.10 -0.85 0 -0.65 1.85 -0.45 2.35 0.25 1.05 1.30 0.45 2.45 -2.40 4.40 l-2.95 1.95 -0.30 -1.30z"/>
  <path d="M461.30 362 c-0.65 -1.65 -2.70 -11.75 -2.45 -12.30 0.10 -0.35 0 -0.75 -0.30 -0.95 -0.30 -0.15 -0.55 -0.70 -0.55 -1.15 0 -0.75 0.10 -0.75 0.50 -0.10 0.35 0.55 0.50 0.20 0.50 -1.35 0 -1.20 0.25 -2.15 0.50 -2.15 0.30 0 0.50 -0.65 0.50 -1.50 0 -0.80 0.25 -1.50 0.50 -1.50 0.30 0 0.50 -0.25 0.50 -0.55 0 -0.25 -0.20 -0.35 -0.50 -0.20 -0.25 0.15 -0.50 -0.05 -0.50 -0.45 0 -0.45 0.35 -0.80 0.75 -0.80 1.35 0 0.80 -1 -0.60 -1.05 -1.15 -0.05 -1.20 -0.10 -0.30 -0.30 1.15 -0.20 3.45 0.70 2.95 1.20 -0.70 0.70 1.40 1.65 4.40 1.95 1.80 0.20 3.30 0.55 3.30 0.75 0 0.25 -0.35 0.45 -0.75 0.45 -0.40 0 -0.75 0.45 -0.75 1 0 0.55 0.25 1 0.50 1 0.30 0 0.50 0.25 0.50 0.50 0 0.30 -0.45 0.50 -1 0.50 -1.10 0 -1.45 1.75 -0.35 2.15 0.35 0.10 0.40 0.40 0.15 0.65 -0.25 0.25 -0.55 0.20 -0.65 -0.15 -0.35 -1 -1.15 -0.75 -1.15 0.35 0 0.55 0.25 1 0.50 1 0.30 0 0.50 0.25 0.50 0.50 0 0.30 -0.45 0.50 -1 0.50 -0.75 0 -1 0.35 -1 1.30 0 0.70 0.20 1.15 0.50 0.95 0.30 -0.15 0.50 -0.05 0.50 0.20 0 0.30 -0.45 0.55 -1 0.55 -0.65 0 -1 0.35 -1 1 0 0.55 0.25 1 0.50 1 0.30 0 0.50 0.25 0.50 0.50 0 0.30 -0.45 0.50 -1 0.50 -1.10 0 -1.45 1.75 -0.35 2.15 0.35 0.10 0.40 0.40 0.15 0.65 -0.25 0.25 -0.55 0.20 -0.65 -0.15 -0.35 -1 -1.15 -0.75 -1.15 0.35 0 0.55 0.25 1 0.50 1 0.30 0 0.50 0.25 0.50 0.55 0 0.30 -0.35 0.40 -0.75 0.25 -0.50 -0.20 -0.95 0.10 -1.20 0.85 -0.35 0.85 -0.50 0.95 -0.75 0.35z"/>
 </g>
 <g fill="#000000">
  <path d="M448.65 369.35 c-1.90 -0.85 -1.45 -2.05 1.50 -4.05 1.75 -1.20 1.85 -1.20 1.85 -0.30 0 0.55 -0.25 1 -0.55 1 -0.35 0 -0.45 0.55 -0.30 1.50 0.40 1.80 -0.80 2.65 -2.50 1.85z"/>
  <path d="M444.45 360.45 c-0.85 -1.65 0.50 -2.60 5 -3.50 4.10 -0.80 5.55 -0.60 5.55 0.85 0 0.90 -1.40 2.45 -1.85 2 -0.15 -0.15 -0.55 -0.10 -0.85 0.15 -0.55 0.45 -5.25 1.55 -6.55 1.55 -0.40 0 -0.95 -0.50 -1.30 -1.05z"/>
  <path d="M448.05 352.85 c-3.50 -0.65 -4.70 -1.70 -3.75 -3.20 0.65 -1 3.45 -1 7.60 0 2.15 0.55 2.35 0.75 2.35 2.10 0 1.30 -0.20 1.50 -1.50 1.60 -0.80 0.05 -2.95 -0.20 -4.70 -0.50z"/>
  <path d="M458.15 346.65 c-0.30 -0.85 -0.40 -1.70 -0.25 -1.90 0.20 -0.15 0.05 -0.50 -0.30 -0.70 -0.85 -0.50 -0.90 -4.35 -0.10 -5.30 0.70 -0.85 4 -1.05 4 -0.25 0 0.30 -0.35 0.50 -0.75 0.50 -0.40 0 -0.75 0.35 -0.75 0.80 0 0.40 0.25 0.60 0.50 0.45 0.30 -0.15 0.50 -0.05 0.50 0.20 0 0.30 -0.20 0.55 -0.50 0.55 -0.25 0 -0.50 0.70 -0.50 1.50 0 0.85 -0.20 1.50 -0.45 1.50 -0.30 0 -0.55 0.95 -0.65 2.15 l-0.15 2.10 -0.60 -1.60z"/>
 </g>
 <g fill="#000000">
  <path d="M458 676.10 c0 -0.25 0.35 -0.75 0.75 -1.10 0.95 -0.80 0.95 -1.45 -0.05 -2.55 -0.85 -0.95 -0.55 -1.95 0.55 -1.95 1.20 0 1.70 1.60 1.05 3.25 -0.65 1.55 -2.30 3.25 -2.30 2.35z"/>
  <path d="M208.80 672.50 c-2.10 -0.65 -4.75 -3.40 -5.30 -5.60 -1.05 -3.80 0.55 -7.95 4 -10.30 1.50 -1 2.20 -1.15 4.85 -1 2.75 0.15 3.35 0.40 4.90 1.90 2.15 2.10 2.95 4.35 2.65 7.85 -0.30 3.30 -1.45 5 -4.40 6.55 -2.30 1.15 -4.25 1.30 -6.70 0.60z m6.65 -2 c3.20 -3.25 3.15 -9.50 -0.20 -12.85 -5.35 -5.35 -12.25 3.05 -8.80 10.65 1.20 2.65 2.75 3.70 5.35 3.70 1.70 0 2.45 -0.30 3.65 -1.50z"/>
  <path d="M239.55 672.50 c-2.30 -1 -2.50 -1.80 -2.55 -9.10 0 -5.80 -0.10 -6.90 -0.75 -6.90 -0.40 0 -0.75 -0.20 -0.75 -0.50 0 -0.25 1.25 -0.50 2.75 -0.50 1.50 0 2.75 0.25 2.75 0.50 0 0.30 -0.45 0.50 -1 0.50 -0.95 0 -1 0.35 -1 6.50 0 5.90 0.10 6.55 1.05 7.45 1.35 1.25 3.75 1.70 5.90 1.05 3 -0.85 3.05 -1 3.05 -8.25 0 -6.45 -0.05 -6.65 -1.10 -7.05 -0.90 -0.30 -0.55 -0.40 1.55 -0.55 2.85 -0.20 3.80 0.15 2.40 0.90 -0.75 0.45 -0.85 1.40 -0.85 8.20 0 7.45 -0.30 8.90 -1.45 6.90 -0.45 -0.85 -0.55 -0.85 -2.35 0 -2.30 1.10 -6.05 1.50 -7.65 0.85z"/>
  <path d="M280.70 672.60 c-1.50 -0.15 -1.60 -0.25 -1.85 -2.95 -0.20 -1.80 -0.65 -3.15 -1.25 -3.80 -1.05 -1 -5.25 -1.80 -5.75 -1.05 -0.15 0.25 -0.15 1.95 0 3.80 0.25 2.90 0.40 3.40 1.35 3.55 0.55 0.10 -0.40 0.20 -2.20 0.20 -1.80 0.05 -2.85 -0.05 -2.35 -0.20 0.45 -0.10 0.90 -0.70 0.90 -1.30 0.10 -1.90 0.10 -6.45 0.05 -10.45 -0.10 -3.55 -0.20 -3.90 -1.10 -3.90 -0.55 0 -1 -0.20 -1 -0.50 0 -0.80 8.80 -0.60 10.45 0.25 2.60 1.30 2.85 4.60 0.55 6.65 l-1.45 1.30 1.75 1.50 c1.45 1.25 1.85 2 2.05 3.90 0.20 1.90 0.45 2.40 1.35 2.50 1.60 0.25 0.25 0.70 -1.50 0.50z m-3.50 -9.70 c2 -2.85 0.05 -6.50 -3.55 -6.60 l-1.90 -0.05 -0.15 3.90 -0.15 3.85 2.50 0 c2 0 2.65 -0.20 3.25 -1.10z"/>
  <path d="M317 672.60 c-1.05 -0.35 -1.25 -0.70 -1.35 -2.60 -0.10 -2.10 -0.05 -2.15 0.35 -0.75 0.65 2.05 1.80 2.75 4.35 2.75 2.20 0 4.15 -1.25 4.15 -2.65 0 -1.35 -1.70 -2.95 -4.65 -4.30 -3.70 -1.65 -4.45 -2.45 -4.50 -4.85 -0.10 -3.55 4.80 -6 8.25 -4.15 0.80 0.45 1.15 0.40 1.45 -0.10 0.30 -0.45 0.45 0.30 0.45 1.95 0 1.65 -0.20 2.55 -0.50 2.35 -0.25 -0.15 -0.50 -0.85 -0.50 -1.50 0 -0.85 -0.45 -1.45 -1.50 -2 -1.85 -0.95 -3 -0.95 -4.40 0.05 -0.90 0.60 -1.10 1.20 -1 2.60 0.15 1.75 0.30 1.95 4.05 3.70 5.15 2.50 6.20 4.90 3.45 7.95 -1.25 1.35 -1.85 1.65 -4.15 1.75 -1.50 0.10 -3.25 0 -3.95 -0.20z"/>
  <path d="M376.25 672.45 c-2.15 -0.60 -4.75 -3.45 -5.25 -5.75 -2.20 -9.65 9.40 -15.40 15.20 -7.55 0.85 1.15 1.05 2.15 1.05 5.10 0 4.35 -0.85 5.90 -4.25 7.65 -2.30 1.15 -4.20 1.30 -6.75 0.55z m6.70 -1.95 c2 -2 2.90 -5.90 2.05 -8.95 -0.80 -2.95 -3.35 -5.55 -5.50 -5.55 -4.75 0 -7.55 5.35 -5.95 11.20 1.30 4.75 6.20 6.45 9.40 3.30z"/>
  <path d="M498.50 671.90 c-2.85 -1.50 -4.10 -3.25 -4.40 -6.35 -0.50 -5.60 2.60 -9.55 7.85 -9.95 4.65 -0.35 7.25 1.60 8.55 6.35 0.85 3.10 0.20 5.80 -1.85 8.10 -2.75 3.05 -6.45 3.70 -10.15 1.85z m7.75 -1.60 c3.45 -3.65 2.75 -11.50 -1.20 -13.50 -4.60 -2.40 -8.55 1.05 -8.55 7.45 0 4.90 2.15 7.70 5.95 7.75 1.85 0 2.45 -0.25 3.80 -1.70z"/>
  <path d="M530.70 672.65 c-2.50 -0.50 -2.95 -1.75 -3.10 -9.20 -0.15 -5.60 -0.30 -6.95 -0.90 -6.95 -0.40 0 -0.70 -0.20 -0.70 -0.50 0 -0.30 1.35 -0.50 3 -0.50 1.65 0 3 0.20 3 0.50 0 0.30 -0.45 0.50 -0.95 0.50 -0.50 0 -1.10 0.35 -1.25 0.80 -0.55 1.45 -0.30 10.90 0.35 12.20 0.90 1.85 3.90 2.80 6.35 2.05 3.35 -1 3.50 -1.35 3.50 -8.60 0 -6.10 -0.05 -6.45 -1 -6.45 -0.55 0 -1 -0.20 -1 -0.50 0 -0.25 1.15 -0.50 2.50 -0.50 1.40 0 2.50 0.25 2.50 0.50 0 0.30 -0.20 0.50 -0.40 0.50 -0.25 0 -0.60 3.50 -0.75 7.80 -0.15 4.30 -0.40 7.95 -0.60 8.10 -0.20 0.20 -0.60 -0.05 -0.95 -0.50 -0.55 -0.75 -0.80 -0.75 -3.30 0.15 -2.70 0.90 -4.10 1.05 -6.30 0.60z"/>
  <path d="M608.10 672.65 c-1.15 -0.25 -2.10 -1.85 -2.10 -3.70 0 -0.50 0.25 -0.95 0.50 -0.95 0.30 0 0.50 0.70 0.50 1.50 0 1.75 1.35 2.50 4.45 2.50 2.35 0 3.70 -1.30 3.45 -3.35 -0.15 -1.20 -0.70 -1.65 -3.80 -3.25 -2.05 -1 -4 -2.25 -4.40 -2.75 -1.20 -1.60 -0.85 -4.05 0.80 -5.75 1.40 -1.40 1.70 -1.45 4.40 -1.20 1.55 0.15 3.25 0.30 3.75 0.30 0.90 0.05 1 0.75 0.35 3.25 -0.40 1.50 -0.40 1.50 -0.45 0.15 -0.10 -2.85 -4.50 -4.45 -6.55 -2.40 -2.15 2.15 -0.75 4.55 3.50 6.20 3.15 1.25 4.50 2.60 4.50 4.65 0 0.95 -0.25 2.15 -0.50 2.70 -1.10 2 -4.45 2.85 -8.40 2.10z"/>
  <path d="M783.50 671.90 c-5.45 -2.75 -5.95 -11.35 -0.95 -14.95 2.20 -1.55 7.50 -1.95 9.85 -0.75 1.50 0.75 1.60 0.75 1.60 -0.05 0 -0.50 0.15 -0.65 0.40 -0.40 0.25 0.30 0.30 1.65 0.20 3 -0.25 2.15 -0.30 2.30 -0.55 1 -0.45 -2.30 -3.20 -3.90 -6.20 -3.60 -2.75 0.25 -4.10 1.30 -5.40 4.10 -1.25 2.70 -1.20 5.10 0.20 7.75 1.55 3.05 3.35 4.25 6.35 4.20 3.05 -0.05 4 -0.80 4 -3.25 0 -1.65 -0.15 -1.90 -1.35 -2.10 -0.80 -0.10 0.05 -0.20 1.85 -0.20 1.80 -0.05 2.85 0.05 2.40 0.20 -0.65 0.15 -0.90 0.75 -0.90 2.20 0 1.85 -0.15 2.05 -2.10 2.95 -2.95 1.35 -6.65 1.30 -9.40 -0.10z"/>
  <path d="M180.40 672.15 c1 -0.20 1.10 -0.50 1.10 -3.55 0 -3.10 -0.20 -3.75 -2.25 -7.35 -1.25 -2.20 -2.80 -4.40 -3.40 -4.85 -1.05 -0.85 -1 -0.90 2.40 -0.80 1.95 0 3 0.15 2.40 0.25 -0.65 0.10 -1.15 0.45 -1.15 0.70 0 0.60 3.45 7.45 3.75 7.45 0.35 0 3.75 -6.85 3.75 -7.55 0 -0.30 -0.35 -0.45 -0.75 -0.25 -0.40 0.15 -0.75 0.05 -0.75 -0.20 0 -0.30 1.05 -0.50 2.30 -0.50 1.35 0 2.15 0.20 1.95 0.50 -0.15 0.30 -0.60 0.50 -0.90 0.50 -0.60 0 -4.25 6.25 -5.05 8.60 -0.25 0.70 -0.25 2.55 -0.10 4.10 0.30 2.30 0.55 2.75 1.45 2.95 0.60 0.10 -0.45 0.20 -2.40 0.20 -1.90 0 -3 -0.10 -2.35 -0.20z"/>
  <path d="M346.30 672.15 c1.40 -0.25 1.70 -2.05 1.70 -9.75 l0 -5.90 -3.25 0 c-2.90 0 -3.25 0.10 -3.25 1 0 0.55 -0.25 1 -0.55 1 -0.35 0 -0.45 -0.45 -0.25 -1.10 0.15 -0.65 0.30 -1.35 0.30 -1.65 0 -0.30 3 -0.50 8 -0.50 l8 0 0 1.90 c0 1.05 -0.20 1.80 -0.45 1.65 -0.25 -0.15 -0.35 -0.75 -0.20 -1.30 0.25 -0.95 0 -1 -3.05 -1 l-3.30 0 0 7.70 c0 7.60 0 7.75 1.15 7.95 0.60 0.10 -0.45 0.20 -2.40 0.20 -1.90 0 -3 -0.10 -2.45 -0.20z"/>
  <path d="M403.90 672.15 c1.10 -0.20 1.10 -0.35 1.10 -7.95 0 -7.35 -0.05 -7.70 -1 -7.70 -0.55 0 -1 -0.25 -1 -0.55 0 -0.35 1.60 -0.50 5.05 -0.35 4.80 0.15 5.10 0.20 6.25 1.55 1.70 2 1.55 3.65 -0.55 5.65 -1.60 1.50 -1.65 1.65 -0.75 1.95 1.50 0.50 2.85 2.55 3.20 4.95 0.25 1.50 0.65 2.30 1.20 2.45 0.45 0.15 -0.10 0.25 -1.25 0.30 l-2.15 0.05 0 -2.25 c0 -4 -1.70 -5.75 -5.55 -5.75 l-1.45 0 0 3.70 c0 3.45 0.10 3.75 1.15 3.95 0.60 0.10 -0.35 0.20 -2.15 0.20 -1.80 0 -2.75 -0.10 -2.10 -0.20z m8.20 -9 c2.60 -3 0.35 -7.15 -3.85 -7.15 -1.20 0 -1.25 0.10 -1.25 4 l0 4 2.15 0 c1.45 0 2.45 -0.30 2.95 -0.85z"/>
  <path d="M435.90 672.15 c1 -0.20 1.10 -0.50 1.10 -3.50 0 -2.90 -0.25 -3.70 -2.10 -7.10 -1.15 -2.10 -2.60 -4.30 -3.25 -4.90 l-1.10 -1.15 3.10 0.05 c1.70 0.05 2.70 0.15 2.25 0.30 -1.25 0.30 -1.15 0.65 0.90 4.75 1.35 2.70 1.90 3.40 2.25 2.85 0.70 -1.05 3.45 -6.40 3.45 -6.70 0 -0.15 -0.50 -0.50 -1.10 -0.75 -0.90 -0.35 -0.65 -0.45 1.35 -0.45 1.40 0.05 2.25 0.15 1.90 0.30 -0.35 0.10 -1.75 2.20 -3.15 4.60 -2.25 3.95 -2.50 4.75 -2.50 7.35 0 3.30 0.30 3.95 1.75 4.35 0.55 0.10 -0.55 0.25 -2.50 0.20 -1.90 0 -3 -0.10 -2.35 -0.20z"/>
  <path d="M559.40 672.15 c1.10 -0.20 1.10 -0.35 1.10 -7.75 0 -7.05 -0.05 -7.50 -1 -7.75 -0.55 -0.15 -1 -0.50 -1 -0.75 0 -0.30 2 -0.45 5.05 -0.30 4.80 0.15 5.10 0.20 6.25 1.55 1.70 2 1.55 3.65 -0.55 5.65 -1.60 1.50 -1.65 1.65 -0.75 1.95 1.50 0.50 2.85 2.55 3.20 4.95 0.25 1.50 0.65 2.30 1.20 2.45 0.45 0.15 -0.10 0.25 -1.25 0.30 l-2.15 0.05 0 -2.25 c0 -4 -1.70 -5.75 -5.55 -5.75 l-1.45 0 0 3.50 c0 3.20 0.10 3.60 1.15 4 0.80 0.30 0.25 0.45 -2.15 0.40 -1.80 0 -2.75 -0.15 -2.10 -0.25z m8.20 -9 c2.10 -2.40 1.20 -5.65 -1.85 -6.65 -2.90 -0.95 -3.25 -0.55 -3.25 3.75 l0 3.75 2.15 0 c1.45 0 2.45 -0.30 2.95 -0.85z"/>
  <path d="M637.15 672.15 l1.35 -0.20 0 -7.75 0 -7.75 -3.10 0.15 c-2.85 0.15 -3.15 0.25 -3.30 1.30 -0.25 1.75 -0.95 0.85 -0.70 -1 l0.20 -1.65 8.20 0 8.20 0 0 1.60 c0 0.85 -0.20 1.75 -0.50 1.90 -0.30 0.20 -0.50 -0.25 -0.50 -0.95 0 -1.25 -0.10 -1.30 -3 -1.30 l-3 0 -0.10 5.50 c-0.20 10.50 -0.30 9.65 1.10 10.05 0.75 0.20 -0.25 0.35 -2.50 0.35 -2.05 -0.05 -3.15 -0.15 -2.35 -0.25z"/>
  <path d="M663.65 672.15 c0.75 -0.20 0.85 -1 0.85 -7.95 0 -7.35 -0.05 -7.70 -1 -7.70 -0.55 0 -1 -0.25 -1 -0.55 0 -0.35 1.60 -0.50 4.95 -0.35 4.45 0.15 5.10 0.30 6.25 1.35 1.85 1.75 1.75 3.80 -0.40 5.75 l-1.65 1.60 1.45 0.85 c1.55 0.90 2.90 3.50 2.90 5.55 0 0.90 0.30 1.30 1.15 1.45 0.60 0.10 0.05 0.25 -1.20 0.30 l-2.30 0.05 -0.10 -2.60 c-0.10 -3.25 -1.05 -4.75 -3.25 -5.15 -3.30 -0.65 -3.55 -0.40 -3.55 3.50 0 3.25 0.05 3.45 1.25 3.80 0.80 0.20 0.05 0.35 -2 0.35 -1.80 0 -2.85 -0.10 -2.35 -0.25z m8.05 -8.95 c1.15 -1.10 1.50 -3.10 0.90 -4.45 -0.65 -1.45 -3.25 -2.85 -4.75 -2.65 -1 0.15 -1.10 0.50 -1.25 4.05 l-0.15 3.85 2.25 0 c1.35 0 2.55 -0.30 3 -0.80z"/>
  <path d="M692.15 671.90 c0.50 -0.35 2.15 -3.70 3.75 -7.40 1.60 -3.70 3.30 -7.40 3.70 -8.25 l0.80 -1.50 0.60 1.50 c0.35 0.85 1.25 3.30 2 5.50 2.60 7.50 3.55 9.75 4.40 10.25 0.60 0.35 0.05 0.45 -2.15 0.45 -1.65 -0.05 -2.60 -0.15 -2.10 -0.30 1.05 -0.25 1 -0.70 -0.10 -3.90 l-0.90 -2.50 -2.95 -0.15 -2.95 -0.15 -1.10 2.95 c-0.65 1.60 -1.15 3.05 -1.15 3.20 0 0.20 0.60 0.45 1.40 0.55 0.75 0.10 0.15 0.25 -1.35 0.30 -2.30 0.05 -2.60 -0.05 -1.90 -0.55z m8.80 -9.75 c-0.50 -1.60 -1.10 -3.25 -1.25 -3.65 -0.15 -0.45 -0.85 0.65 -1.75 2.75 -0.80 1.90 -1.45 3.55 -1.45 3.60 0 0.10 1.25 0.15 2.70 0.15 l2.75 0 -1 -2.85z"/>
  <path d="M725.30 672.15 c1 -0.20 1.10 -0.60 1.40 -7.40 0.20 -3.95 0.25 -7.45 0.05 -7.75 -0.15 -0.25 -1.60 -0.50 -3.20 -0.50 -2.50 0 -2.95 0.15 -3.45 1.15 l-0.55 1.10 0 -1.25 c0 -0.70 0.15 -1.45 0.35 -1.75 0.20 -0.30 3.55 -0.50 8.25 -0.50 l7.85 0 0 1.90 c0 1 -0.20 1.85 -0.50 1.85 -0.25 0 -0.50 -0.55 -0.50 -1.25 0 -1.20 -0.15 -1.25 -3 -1.25 l-3 0 0 7.70 c0 7.60 0 7.75 1.15 7.95 0.60 0.10 -0.45 0.20 -2.40 0.20 -1.90 0 -3 -0.10 -2.45 -0.20z"/>
  <path d="M751.40 672.15 c1.10 -0.20 1.10 -0.35 1.10 -7.75 0 -6.60 -0.10 -7.60 -0.85 -8.20 -0.75 -0.55 0.05 -0.65 5 -0.80 l5.85 -0.15 -0.05 1.75 c-0.05 1.10 -0.15 1.35 -0.30 0.65 -0.20 -0.90 -0.65 -1.10 -3.40 -1.40 -1.75 -0.20 -3.40 -0.20 -3.70 0 -0.30 0.15 -0.55 1.85 -0.55 3.80 l0 3.45 2.80 0 c2.10 0 3 -0.20 3.50 -0.85 0.60 -0.80 0.65 -0.65 0.65 1.35 0.05 2.20 0 2.25 -0.85 1.20 -0.70 -0.90 -1.35 -1.10 -3.35 -1 -2.90 0.05 -3.10 0.50 -2.50 5.15 l0.30 2.65 3.65 0 c3.90 0 4.55 -0.30 4.95 -2.50 0.15 -0.80 0.25 -0.50 0.30 0.90 l0.05 2.10 -6.85 -0.05 c-3.80 -0.05 -6.40 -0.20 -5.75 -0.30z"/>
  <path d="M815.40 672.15 c1 -0.20 1.10 -0.50 1.10 -3.55 0 -3.10 -0.20 -3.75 -2.25 -7.35 -1.25 -2.20 -2.80 -4.40 -3.40 -4.85 -1.05 -0.85 -1 -0.90 2.40 -0.80 1.95 0 3 0.15 2.40 0.25 -1.45 0.30 -1.45 0.60 0.35 4.05 2.40 4.70 2.20 4.65 4.20 0.70 1 -1.95 1.80 -3.80 1.80 -4.05 0 -0.25 -0.50 -0.60 -1.10 -0.70 -0.65 -0.10 -0.10 -0.25 1.25 -0.30 1.30 0 2.35 0.20 2.35 0.45 0 0.30 -0.30 0.50 -0.60 0.50 -0.60 0 -1.35 1.15 -4.25 6.60 -1.10 2.10 -1.20 2.70 -0.90 5.60 0.30 2.80 0.50 3.30 1.45 3.45 0.55 0.10 -0.50 0.20 -2.45 0.20 -1.90 0 -3 -0.10 -2.35 -0.20z"/>
  <path d="M573.50 618.85 c-0.95 -4.50 -3.45 -12.65 -8.30 -27.15 -5.35 -16 -15.40 -44.75 -16.10 -46 -0.90 -1.60 -2.10 28.55 -2.10 53.95 l0 20.85 -5.95 0 c-3.30 0 -6.10 -0.15 -6.20 -0.40 -0.15 -0.20 0.15 -3.75 0.65 -7.85 2.70 -21.85 3.70 -38.45 3.70 -62.10 0.05 -13.05 0.25 -20.15 0.55 -20.15 0.30 -0.05 4.10 -0.35 8.50 -0.70 4.40 -0.40 8.05 -0.65 8.15 -0.55 0.10 0.10 0.50 1.80 0.90 3.85 1.05 5 24.55 74.90 25.25 74.90 1 0 21.05 -66.25 22.70 -75.20 0.25 -1.30 0.65 -1.85 1.45 -2.05 1 -0.20 16.10 -1.75 17.15 -1.75 0.30 0 0.60 6.25 0.80 15.90 0.50 26.10 2.80 56.65 5.65 74 l0.35 2.10 -8.30 0 -8.25 0 -0.25 -25.60 c-0.20 -18.30 -0.50 -27.95 -1.05 -33.65 -0.45 -4.40 -0.95 -9.50 -1.15 -11.35 -0.15 -1.90 -0.45 -3.40 -0.65 -3.40 -0.20 0 -1.25 2.85 -2.35 6.40 -12.10 38.05 -15 47.30 -17.65 56.35 -1.70 5.80 -3.20 10.60 -3.30 10.70 -0.10 0.10 -2.25 0.35 -4.80 0.60 -2.55 0.25 -5.60 0.55 -6.75 0.65 l-2.05 0.25 -0.60 -2.60z"/>
  <path d="M91.85 620.15 c-0.15 -0.25 -0.05 -1.50 0.20 -2.90 1.05 -6.35 1.55 -26.55 1.30 -51.75 -0.15 -14.45 -0.45 -26.65 -0.60 -27.10 -0.30 -0.70 -0.95 -0.90 -2.95 -0.90 -3.05 0 -10.25 1.10 -16.95 2.60 -2.65 0.55 -4.95 0.95 -5.05 0.85 -0.10 -0.10 -0.35 -2.60 -0.55 -5.50 l-0.35 -5.35 33.05 0.05 33.05 0 -0.35 5.30 c-0.15 2.90 -0.35 5.40 -0.45 5.50 -0.05 0.05 -3.65 -0.55 -7.95 -1.40 -4.25 -0.85 -9.90 -1.70 -12.45 -1.90 l-4.70 -0.30 -0.35 3.70 c-0.20 2.05 -0.25 18.90 -0.10 37.45 0.15 27.40 0.35 34.45 0.95 37.50 0.45 2.05 0.70 3.90 0.55 4.15 -0.30 0.45 -16 0.45 -16.30 0z"/>
  <path d="M145.70 618.65 c1.40 -8.55 1.55 -12.20 1.55 -43.15 0 -30.55 -0.25 -36.85 -1.55 -43.40 l-0.30 -1.60 8.45 0 8.50 0 -0.40 2.15 c-0.80 4.35 -1.45 15.90 -1.45 25.95 l0 10.40 20.30 0 20.35 0 -0.30 -15.15 c-0.20 -8.30 -0.65 -16.95 -1 -19.20 l-0.65 -4.15 8.45 0 8.45 0 -0.30 1.65 c-1.35 7.65 -1.55 12.50 -1.55 43.35 0 31 0.15 34.55 1.55 43.15 l0.35 1.85 -8.45 -0.10 c-5.90 -0.10 -8.40 -0.30 -8.35 -0.70 0.85 -4.70 1.25 -11.35 1.50 -25.55 l0.30 -17.15 -20.40 0 -20.40 0 0.30 16.90 c0.25 14.25 0.50 18.55 1.50 25.60 0.10 0.65 -1.20 0.75 -8.35 0.90 l-8.45 0.10 0.35 -1.85z"/>
  <path d="M244.70 617.90 c0.15 -1.45 0.55 -4.20 0.80 -6.15 0.30 -1.90 0.65 -14.30 0.80 -27.50 0.30 -24.25 -0.20 -43.05 -1.35 -49.90 -0.35 -1.85 -0.45 -3.55 -0.25 -3.75 0.20 -0.15 11.80 -0.40 25.80 -0.50 l25.50 -0.20 -1.50 4.30 c-0.80 2.35 -1.55 4.50 -1.70 4.75 -0.15 0.25 -1.65 0.10 -3.40 -0.30 -2.15 -0.50 -7.25 -0.85 -16.20 -1 l-13.05 -0.25 -0.30 2.35 c-0.20 1.30 -0.35 8.60 -0.35 16.15 l0 13.75 15.25 -0.35 c8.40 -0.20 15.25 -0.15 15.20 0.05 0 0.20 -0.75 2.10 -1.65 4.15 l-1.60 3.75 -1.95 -0.05 c-1.10 0 -5.25 -0.20 -9.25 -0.45 -4 -0.20 -9.25 -0.20 -11.70 0 l-4.45 0.35 0.25 17.25 c0.20 12.30 0.45 17.40 0.85 17.80 0.45 0.45 3.55 0.60 10.95 0.50 11.35 -0.05 18.80 -0.95 24.95 -2.90 4.30 -1.35 4.15 -1.75 2.65 5.50 -0.55 2.65 -1 4.95 -1 5.05 0 0.10 -12.05 0.20 -26.80 0.20 l-26.85 0 0.35 -2.60z"/>
  <path d="M347.20 619.40 c2.15 -7.50 2.05 -5.80 2.05 -43.65 0 -35.25 -0.10 -38.05 -1.60 -44.10 l-0.25 -1.15 17.50 0 c13.45 0 18.50 0.20 21.85 0.75 15.50 2.70 23.15 12.55 21.30 27.45 -1.25 10.30 -6.30 17.30 -15.80 21.85 -6.10 2.95 -9.40 3.65 -17.50 3.65 -3.85 0.05 -8.20 -0.15 -9.70 -0.35 l-2.65 -0.40 0.25 14.40 c0.20 12.65 0.35 14.85 1.30 18.35 0.55 2.20 1.05 4.05 1.05 4.15 0 0.05 -4.10 0.15 -9.05 0.15 l-9.05 0 0.30 -1.10z m34.45 -41.70 c5.35 -2.05 9.35 -6.60 11.25 -12.70 0.60 -2 0.85 -4.50 0.85 -9 -0.05 -5.35 -0.20 -6.65 -1.20 -9.20 -1.60 -3.95 -4.90 -7.30 -8.80 -8.85 -2.75 -1.05 -3.75 -1.20 -11.60 -1.20 -4.70 0 -8.75 0.20 -9 0.40 -0.20 0.25 -0.45 9.40 -0.55 20.35 l-0.15 19.95 1.90 0.50 c3.50 0.90 4.40 0.95 9.65 0.80 3.60 -0.10 6 -0.40 7.65 -1.05z"/>
  <path d="M427.50 620.20 c0 -0.15 0.50 -2.60 1.15 -5.35 1.10 -5 1.10 -5.65 1.10 -39.85 0 -30.95 -0.10 -35.25 -0.90 -39.40 -0.45 -2.50 -0.85 -4.75 -0.85 -4.90 0 -0.15 8.50 -0.20 18.90 -0.10 17.80 0.20 19.05 0.30 22.60 1.35 7.25 2.20 11.75 5.65 14.30 10.95 1.20 2.45 1.40 3.65 1.60 8.45 0.20 4.65 0.05 6.10 -0.85 9.05 -2.70 9 -10.35 15.65 -20.55 17.95 -2.20 0.50 -4 1 -4 1.20 0 0.15 5.10 6.65 11.30 14.40 12.45 15.60 18.05 21.60 22.35 24.05 1.55 0.85 2.70 1.80 2.55 2.05 -0.15 0.25 -4.85 0.45 -10.50 0.45 l-10.25 0 -1.85 -2.95 c-1 -1.60 -7.45 -10.80 -14.35 -20.50 l-12.45 -17.55 -1.90 0 -1.90 0 0 14.90 c0 13.35 0.40 19.50 1.60 25.15 0.10 0.55 -1.45 0.75 -8.45 0.85 -4.75 0.05 -8.65 0 -8.65 -0.20z m34.25 -47.95 c3.45 -1.30 7.30 -5.20 8.55 -8.75 0.75 -2.20 0.95 -4.15 0.95 -9.75 0 -6.70 -0.05 -7.15 -1.45 -9.90 -1.65 -3.40 -4.25 -5.35 -8.45 -6.45 -2.70 -0.70 -15.85 -0.90 -17.45 -0.25 -0.85 0.30 -0.90 1.60 -0.90 18 0 9.75 0.15 17.85 0.40 18.05 0.20 0.20 3.85 0.30 8.10 0.15 5.80 -0.15 8.35 -0.45 10.25 -1.10z"/>
  <path d="M653.50 620.25 c0 -0.15 0.40 -2.35 0.90 -4.85 0.75 -4.15 0.85 -8.40 0.85 -40.40 0 -31.45 -0.10 -36.25 -0.85 -40 -0.50 -2.30 -0.75 -4.35 -0.60 -4.45 0.50 -0.50 51.20 -0.70 51.20 -0.20 0 1.15 -2.95 8.90 -3.35 8.80 -5.85 -1.15 -12.55 -1.65 -21.85 -1.65 l-10.80 0 0 16.10 0 16.05 15.25 -0.35 15.30 -0.35 -0.70 1.65 c-0.40 0.90 -1.25 2.85 -1.85 4.35 l-1.20 2.65 -3 -0.30 c-6.25 -0.65 -15.20 -0.95 -19.40 -0.60 l-4.40 0.40 0 15.80 c0 8.75 0.15 16.65 0.30 17.65 l0.30 1.85 5.35 0.35 c6 0.35 19.20 -0.40 24.70 -1.45 1.95 -0.40 4.95 -1.15 6.60 -1.70 1.65 -0.55 3.05 -0.95 3.15 -0.85 0.10 0.10 -0.35 2.70 -1 5.85 l-1.15 5.65 -26.85 0.15 c-14.80 0.05 -26.90 0 -26.90 -0.15z"/>
  <path d="M741.40 620.15 c-10.65 -0.15 -13.90 -0.30 -13.90 -0.80 0 -0.30 0.35 -2.50 0.80 -4.85 0.65 -3.45 0.85 -9.85 1.05 -33.60 0.25 -29 -0.10 -40.50 -1.40 -47.05 -0.35 -1.55 -0.50 -2.95 -0.40 -3.10 0.15 -0.10 9.35 -0.25 20.45 -0.35 19.05 -0.10 20.55 -0.05 25.30 0.95 16.05 3.35 25.20 11.60 29.05 26.05 1.20 4.40 1.35 5.75 1.35 14.60 0.05 10.50 -0.50 14.35 -3 22 -3.20 9.55 -9.50 17.15 -17.70 21.20 -2.60 1.25 -6.55 2.75 -8.75 3.30 -4.10 1.05 -13.50 2.10 -17 1.90 -1.10 -0.10 -8.25 -0.20 -15.85 -0.25z m33 -9.85 c7.15 -1.80 9.65 -4.50 12.55 -13.30 3.55 -10.65 3.55 -31.55 0.10 -41.65 -4.60 -13.35 -15.55 -18.60 -36.90 -17.70 -3.65 0.15 -6.85 0.40 -7.15 0.60 -0.55 0.35 -0.75 63.45 -0.20 69.35 l0.35 3.35 1.80 0.20 c1 0.15 7.30 0.15 14.05 0.10 9.25 -0.10 13 -0.35 15.40 -0.95z"/>
  <path d="M824.70 618.90 c1.45 -7.05 1.55 -10.35 1.55 -43.65 0 -33.20 -0.15 -38.05 -1.55 -43.55 l-0.30 -1.20 8.60 0 8.60 0 -0.30 1.20 c-1.15 4.55 -1.55 16.20 -1.55 43.80 0 27.75 0.35 37.35 1.55 43.40 l0.35 1.60 -8.65 0 -8.60 0 0.30 -1.60z"/>
  <path d="M852.20 619.95 c-0.15 -0.30 0.25 -1.15 0.95 -1.85 2.65 -2.80 6.35 -10.80 10.45 -22.55 3.90 -11.35 17.75 -56.25 19.10 -62 0.40 -1.75 0.80 -3.20 0.90 -3.30 0.15 -0.15 9.35 -1.10 13.05 -1.40 1.40 -0.10 1.40 -0.05 3.10 6.40 1.85 7.20 8.55 27.25 15.10 45.20 8.45 23.30 12.10 31.50 16.15 36.20 1.40 1.60 2.40 3.15 2.20 3.40 -0.15 0.25 -4.90 0.45 -10.65 0.45 l-10.35 0 -0.55 -4.65 c-0.40 -3.40 -1.55 -7.70 -4.20 -15.70 l-3.60 -11 -4.80 -0.35 c-6.15 -0.40 -14.20 -0.40 -19.95 0 l-4.55 0.35 -1.80 7.70 c-2.55 10.60 -3.20 14.75 -3.25 19.55 l0 4.10 -8.45 0 c-5.55 0 -8.60 -0.20 -8.85 -0.55z m49.05 -39.30 c-0.15 -0.50 -2.90 -9.55 -6.10 -20.15 -3.15 -10.60 -5.95 -19.60 -6.15 -20 -0.40 -0.65 -0.45 -0.65 -0.70 0 -2.30 6.80 -11.80 39.45 -11.80 40.50 0 0.30 4.80 0.50 12.55 0.50 11.75 0 12.55 -0.05 12.20 -0.85z"/>
 </g>
</svg>