<?xml version="1.0" standalone="no"?>
<!DOCTYPE svg PUBLIC "-//W3C//DTD SVG 20010904//EN"
 "http://www.w3.org/TR/2001/REC-SVG-20010904/DTD/svg10.dtd">
<svg version="1.0" xmlns="http://www.w3.org/2000/svg"
 width="1000.000000pt" height="1000.000000pt" viewBox="0 0 1000.000000 1000.000000"
 preserveAspectRatio="xMidYMid meet">

<g transform="translate(0.000000,1000.000000) scale(0.100000,-0.100000)"
fill="#000000" stroke="none">
<path d="M4573 6604 c-8 -21 56 -325 73 -343 16 -17 44 -7 51 19 6 21 225 165
252 165 8 0 21 19 29 42 13 33 13 47 4 67 -12 26 -40 34 -58 16 -13 -13 -287
23 -292 39 -6 17 -52 13 -59 -5z"/>
<path d="M4440 6496 c0 -14 10 -18 71 -30 9 -2 23 0 30 5 22 13 -4 31 -55 36
-38 5 -46 3 -46 -11z"/>
<path d="M4494 6431 c-56 -14 -76 -41 -30 -41 50 0 87 12 84 28 -4 19 -15 22
-54 13z"/>
<path d="M4513 6357 c-31 -21 -45 -57 -22 -57 12 0 70 39 81 54 8 13 1 26 -15
25 -7 0 -27 -10 -44 -22z"/>
<path d="M4835 6319 c-16 -11 -37 -24 -45 -29 -12 -7 -8 -16 25 -49 21 -23 44
-41 50 -41 6 0 19 25 30 56 19 55 19 57 0 70 -23 17 -23 17 -60 -7z"/>
<path d="M6155 4708 c-44 -5 -85 -10 -91 -12 -6 -3 -15 -22 -19 -43 -10 -56
-106 -384 -165 -567 -35 -106 -55 -155 -60 -145 -15 26 -217 624 -236 697
l-18 72 -42 0 c-23 0 -61 -3 -86 -6 l-45 -6 -6 -302 c-4 -167 -13 -356 -21
-426 -23 -184 -26 -170 42 -170 l59 0 6 350 c3 192 10 357 15 366 7 12 24 -27
69 -157 75 -215 158 -470 173 -528 l11 -44 65 6 c36 2 67 7 70 9 2 3 23 70 47
149 94 310 182 577 189 566 13 -24 28 -298 28 -505 l0 -212 81 0 82 0 -7 53
c-29 238 -58 728 -49 813 3 23 1 44 -4 46 -4 2 -44 0 -88 -4z"/>
<path d="M8864 4703 c-27 -3 -33 -9 -38 -38 -12 -62 -186 -615 -221 -703 -20
-47 -46 -103 -60 -124 l-25 -38 84 0 85 0 6 58 c4 31 17 100 29 152 l21 95
147 3 147 3 36 -111 c19 -61 38 -131 42 -156 l6 -44 103 0 c57 0 104 3 104 6
0 3 -13 22 -30 42 -16 20 -48 82 -71 137 -54 130 -203 553 -227 647 l-19 73
-44 1 c-24 1 -58 -1 -75 -3z m90 -316 c31 -103 56 -192 56 -197 0 -6 -50 -10
-120 -10 -104 0 -120 2 -120 16 0 9 25 102 55 206 30 104 55 192 55 196 1 21
24 -44 74 -211z"/>
<path d="M670 4645 c0 -30 4 -55 9 -55 5 0 40 6 78 14 37 8 91 16 118 18 l50
3 0 -413 0 -412 79 0 78 0 -6 33 c-10 60 -19 541 -11 670 l7 127 52 -6 c28 -3
82 -13 120 -20 38 -8 71 -13 73 -11 2 3 6 27 10 56 l6 51 -332 0 -331 0 0 -55z"/>
<path d="M1458 4695 c-3 -3 -2 -25 3 -48 11 -55 11 -749 0 -804 l-8 -43 85 0
85 0 -7 46 c-3 25 -9 122 -12 215 l-7 169 208 0 208 0 -5 -197 c-3 -109 -9
-206 -13 -215 -6 -16 1 -18 79 -18 l85 0 -7 68 c-9 87 -9 677 0 765 l7 67 -85
0 c-78 0 -85 -2 -79 -17 4 -10 9 -98 12 -195 l6 -178 -208 0 -208 0 7 148 c4
81 9 168 13 195 l6 47 -80 0 c-44 0 -82 -2 -85 -5z"/>
<path d="M2448 4663 c4 -21 7 -207 7 -413 0 -206 -3 -392 -7 -412 l-7 -38 269
0 c247 0 269 1 274 18 10 35 18 92 13 92 -3 0 -32 -7 -64 -15 -66 -17 -267
-31 -307 -21 l-26 6 0 176 0 175 132 -2 131 -1 18 33 c10 19 18 38 19 43 0 4
-67 7 -150 5 l-150 -4 0 157 0 157 36 7 c37 7 178 0 253 -12 38 -6 38 -6 54
40 l16 46 -259 0 -259 0 7 -37z"/>
<path d="M3484 4663 c3 -21 9 -171 12 -333 6 -273 -2 -464 -21 -512 -7 -16 1
-18 85 -18 84 0 91 2 84 18 -4 9 -10 91 -12 181 l-4 164 60 -6 c32 -4 88 -2
123 4 173 28 270 130 268 284 -1 83 -14 124 -54 167 -63 66 -160 88 -394 88
l-153 0 6 -37z m383 -59 c85 -62 98 -227 26 -323 -45 -59 -135 -84 -232 -65
l-31 7 0 204 0 205 104 -4 c86 -2 110 -7 133 -24z"/>
<path d="M4287 4644 c13 -97 10 -763 -4 -806 l-11 -38 90 0 c82 0 89 2 82 18
-4 9 -10 101 -12 205 -5 253 -15 255 198 -46 l124 -177 106 1 c85 0 101 2 86
12 -48 30 -118 103 -228 241 l-119 150 55 16 c75 24 121 54 155 104 38 55 55
118 46 180 -11 87 -49 135 -134 168 -48 18 -82 22 -249 26 l-192 4 7 -58z
m351 -29 c56 -23 76 -64 77 -155 0 -86 -20 -131 -73 -166 -36 -25 -123 -38
-176 -29 l-36 7 0 179 0 179 85 0 c53 0 99 -6 123 -15z"/>
<path d="M6548 4603 c4 -54 7 -213 7 -353 0 -140 -3 -299 -7 -352 l-7 -98 268
0 268 0 7 51 c4 28 6 53 4 54 -2 2 -30 -3 -63 -11 -71 -16 -271 -30 -309 -20
l-26 6 0 176 0 176 135 -4 135 -3 15 38 c8 20 15 40 15 43 0 4 -67 5 -150 2
l-150 -4 0 158 0 157 36 7 c37 7 178 0 254 -12 42 -7 43 -7 64 64 l7 22 -255
0 -255 0 7 -97z"/>
<path d="M7276 4683 c12 -25 17 -769 6 -833 l-10 -52 232 4 c212 3 236 6 288
26 167 67 259 250 245 487 -11 195 -86 304 -245 356 -59 20 -94 23 -296 27
-220 4 -229 3 -220 -15z m462 -87 c61 -26 115 -92 138 -168 27 -95 26 -290 -4
-384 -24 -79 -52 -121 -90 -135 -50 -19 -178 -31 -264 -24 l-88 7 0 365 0 365
133 -4 c96 -3 144 -10 175 -22z"/>
<path d="M8255 4250 l0 -450 75 0 75 0 0 450 0 450 -75 0 -75 0 0 -450z"/>
<path d="M1787 3395 c34 -51 42 -92 21 -113 -9 -9 -4 -12 23 -11 18 0 28 3 22
6 -7 2 -13 20 -13 38 0 19 -9 50 -21 70 -12 19 -19 41 -16 48 3 8 -5 12 -22
12 l-27 0 33 -50z"/>
<path d="M2115 3443 c32 -8 54 -33 61 -68 13 -72 -55 -125 -99 -77 -21 24 -22
90 -1 120 18 26 4 30 -19 5 -60 -67 -5 -167 82 -148 96 21 71 180 -27 174 -13
-1 -12 -2 3 -6z"/>
<path d="M3170 3430 c-34 -34 -21 -61 43 -88 30 -13 37 -49 12 -58 -25 -10
-65 5 -66 24 0 11 -2 12 -6 4 -7 -19 16 -42 44 -42 41 0 63 18 63 51 0 26 -6
33 -39 46 -57 22 -65 54 -17 73 17 7 17 9 4 9 -10 1 -27 -8 -38 -19z"/>
<path d="M3562 3430 c0 -14 2 -19 5 -12 2 6 2 18 0 25 -3 6 -5 1 -5 -13z"/>
<path d="M3806 3437 c35 -16 44 -34 44 -81 0 -73 -74 -106 -105 -46 -21 40
-19 72 6 104 25 32 11 35 -19 3 -31 -33 -30 -90 3 -122 31 -32 75 -32 112 -1
22 19 28 32 28 65 0 47 -24 76 -70 86 l-30 6 31 -14z"/>
<path d="M4341 3398 c30 -51 39 -112 17 -121 -7 -3 3 -6 22 -6 23 0 30 2 21 8
-9 6 -12 22 -9 49 2 22 1 39 -3 36 -3 -2 -14 14 -24 35 -9 22 -25 41 -35 44
-15 4 -13 -3 11 -45z"/>
<path d="M4417 3434 c2 -7 0 -22 -7 -33 -18 -34 -4 -24 17 12 18 30 18 33 3
33 -10 0 -16 -6 -13 -12z"/>
<path d="M5018 3443 c7 -3 16 -2 19 1 4 3 -2 6 -13 5 -11 0 -14 -3 -6 -6z"/>
<path d="M6080 3432 c-34 -28 -21 -64 30 -87 31 -14 40 -23 38 -39 -5 -32 -65
-35 -77 -4 l-10 23 0 -22 c-2 -45 94 -43 105 2 8 31 1 41 -47 65 -41 21 -49
40 -24 60 18 15 52 4 58 -18 4 -13 5 -12 6 4 1 15 -7 24 -21 28 -32 8 -33 8
-58 -12z"/>
<path d="M6316 3435 c-9 -26 -7 -32 5 -12 6 10 9 21 6 23 -2 3 -7 -2 -11 -11z"/>
<path d="M6472 3430 c0 -14 2 -19 5 -12 2 6 2 18 0 25 -3 6 -5 1 -5 -13z"/>
<path d="M6990 3431 c-12 -23 -13 -42 -2 -23 6 8 12 1 19 -23 11 -33 10 -35
-13 -35 -13 0 -24 6 -24 13 0 8 -4 7 -10 -3 -15 -24 -12 -26 25 -22 30 4 36 1
45 -24 8 -21 8 -29 -2 -36 -8 -5 -1 -8 20 -8 31 0 32 1 18 23 -7 12 -24 52
-36 90 -12 37 -23 67 -25 67 -3 0 -9 -9 -15 -19z"/>
<path d="M7352 3430 c0 -14 2 -19 5 -12 2 6 2 18 0 25 -3 6 -5 1 -5 -13z"/>
<path d="M7610 3441 c0 -6 5 -13 10 -16 6 -3 10 1 10 9 0 9 -4 16 -10 16 -5 0
-10 -4 -10 -9z"/>
<path d="M7843 3440 c-36 -15 -56 -55 -50 -98 8 -46 38 -72 86 -72 43 0 66 15
74 48 5 19 1 22 -26 21 -18 -1 -24 -3 -14 -6 12 -3 17 -12 15 -26 -2 -17 -11
-23 -35 -25 -44 -4 -73 26 -73 76 0 47 16 70 55 81 19 6 23 9 10 10 -11 0 -30
-4 -42 -9z"/>
<path d="M8133 3443 c-22 -4 -22 -4 7 -52 32 -51 38 -89 18 -109 -9 -9 -4 -12
23 -11 18 0 28 3 22 6 -7 2 -13 20 -13 38 0 19 -9 50 -21 70 -12 19 -18 42
-15 50 3 8 4 14 3 14 -1 -1 -12 -4 -24 -6z"/>
<path d="M1861 3413 c-10 -26 -10 -27 4 -9 8 11 15 23 15 28 0 15 -7 8 -19
-19z"/>
<path d="M2368 3368 c4 -84 12 -98 56 -98 l31 1 -32 14 c-33 14 -33 15 -33 85
0 49 -4 70 -12 70 -10 0 -12 -19 -10 -72z"/>
<path d="M2490 3370 c0 -55 -4 -71 -17 -80 -15 -9 -15 -11 -2 -7 9 3 21 1 27
-5 7 -7 11 16 14 76 2 64 0 86 -9 86 -9 0 -13 -21 -13 -70z"/>
<path d="M2698 3364 c3 -56 0 -79 -10 -85 -8 -6 -1 -8 22 -8 19 0 29 3 23 6
-7 2 -13 20 -13 39 0 29 3 34 23 34 31 0 47 -18 47 -52 0 -23 4 -28 23 -27 12
0 16 3 10 6 -7 2 -13 13 -13 24 0 10 -9 28 -19 38 -17 17 -18 21 -5 32 24 20
14 63 -16 67 -24 3 -24 3 -6 -11 28 -21 15 -67 -19 -67 -22 0 -25 4 -25 40 0
25 -5 40 -12 40 -10 0 -12 -20 -10 -76z"/>
<path d="M3230 3436 c0 -2 7 -9 15 -16 12 -10 15 -10 15 4 0 9 -7 16 -15 16
-8 0 -15 -2 -15 -4z"/>
<path d="M3480 3361 c0 -54 -4 -81 -12 -84 -7 -3 3 -6 22 -6 23 0 30 2 22 8
-10 6 -13 29 -10 85 2 56 0 76 -9 76 -9 0 -13 -23 -13 -79z"/>
<path d="M4048 3364 c3 -56 0 -79 -10 -85 -8 -6 -1 -8 22 -8 19 0 29 3 23 6
-7 2 -13 20 -13 39 0 29 3 34 23 34 31 0 47 -18 47 -52 0 -23 4 -28 23 -27 12
0 16 3 10 6 -7 2 -13 16 -13 29 0 13 -9 29 -20 36 -17 11 -18 14 -4 29 23 26
14 63 -16 67 -23 3 -24 3 -7 -10 29 -22 19 -62 -15 -66 -27 -3 -28 -1 -28 37
0 26 -5 41 -12 41 -10 0 -12 -20 -10 -76z"/>
<path d="M4961 3414 c-41 -52 -19 -126 40 -139 59 -13 109 28 109 89 0 25 -35
76 -52 76 -6 0 -3 -9 7 -20 40 -44 12 -140 -40 -140 -33 0 -60 36 -60 80 0 24
8 46 19 59 11 12 14 21 8 21 -6 0 -20 -12 -31 -26z"/>
<path d="M5270 3383 c0 -79 16 -107 60 -111 l35 -2 -32 14 c-33 15 -33 16 -33
86 0 56 -3 70 -15 70 -12 0 -15 -13 -15 -57z"/>
<path d="M5397 3364 c2 -112 23 -122 23 -11 0 63 -3 87 -12 87 -10 0 -13 -21
-11 -76z"/>
<path d="M5598 3355 c-3 -81 -2 -85 18 -85 19 0 21 4 14 41 l-8 40 32 -3 c27
-3 32 -8 40 -40 5 -21 15 -38 22 -38 17 0 0 61 -21 76 -14 10 -14 13 0 24 27
23 12 70 -23 70 -10 0 -10 -4 3 -16 29 -29 -1 -75 -40 -60 -13 5 -16 15 -13
41 3 23 0 35 -8 35 -9 0 -14 -26 -16 -85z"/>
<path d="M6385 3364 c0 -55 -4 -77 -15 -84 -11 -7 -4 -10 25 -9 22 0 34 3 28
6 -9 3 -13 30 -13 84 0 57 -4 79 -12 79 -9 0 -13 -22 -13 -76z"/>
<path d="M6647 3370 c4 -49 2 -74 -7 -85 -11 -13 -8 -15 21 -14 19 0 28 3 22
6 -7 2 -13 20 -13 39 0 29 3 34 25 34 26 0 45 -25 45 -59 0 -15 6 -21 23 -20
12 0 16 3 10 6 -7 2 -13 13 -13 24 0 10 -9 28 -19 38 -17 17 -18 21 -5 32 26
22 10 69 -24 69 -10 0 -10 -3 2 -16 28 -27 12 -64 -26 -64 -14 0 -18 8 -18 40
0 28 -4 40 -14 40 -12 0 -14 -13 -9 -70z"/>
<path d="M7268 3370 c2 -45 -1 -76 -8 -85 -11 -13 -7 -15 21 -14 19 0 28 3 22
6 -9 3 -13 30 -13 84 0 56 -4 79 -12 79 -10 0 -12 -19 -10 -70z"/>
<path d="M7528 3364 c3 -57 1 -79 -9 -85 -9 -5 12 -9 54 -9 63 0 67 1 66 23
-1 16 -2 18 -6 5 -3 -13 -15 -18 -44 -18 l-39 0 0 80 c0 58 -3 80 -13 80 -9 0
-11 -19 -9 -76z"/>
<path d="M7923 3427 c8 -7 17 -19 20 -27 3 -9 6 -5 6 10 1 19 -4 26 -20 27
-18 2 -19 0 -6 -10z"/>
<path d="M8207 3405 c-9 -19 -15 -35 -13 -35 2 0 13 16 25 35 11 19 17 35 13
35 -5 0 -16 -16 -25 -35z"/>
<path d="M6932 3295 c-10 -23 -9 -25 11 -25 15 0 18 3 9 8 -7 5 -10 16 -6 25
10 27 -2 20 -14 -8z"/>
<path d="M4585 3265 c0 -23 1 -24 13 -8 6 9 12 20 12 25 0 4 -6 8 -12 8 -7 0
-13 -11 -13 -25z"/>
</g>
</svg>
